<?xml version="1.0" standalone="no"?>
<!DOCTYPE svg PUBLIC "-//W3C//DTD SVG 1.1//EN" "http://www.w3.org/Graphics/SVG/1.1/DTD/svg11.dtd" >
<svg xmlns="http://www.w3.org/2000/svg" xmlns:xlink="http://www.w3.org/1999/xlink" version="1.1">
<metadata>
Created by FontForge 20170731 at Wed May 18 16:31:19 2022
 By Aleksey,,,
Copyright  2016 by Adam Fathony. All rights reserved.
</metadata>
<defs>
<font id="ClarksonScript-Regular" horiz-adv-x="0" >
  <font-face 
    font-family="Clarkson Script"
    font-weight="400"
    font-style="italic"
    font-stretch="normal"
    units-per-em="2048"
    panose-1="0 0 5 0 0 0 0 0 0 0"
    ascent="1638"
    descent="-410"
    x-height="885"
    cap-height="1622"
    bbox="-3353 -694 4047.26 2568"
    underline-thickness="102"
    underline-position="-307"
    slope="-20"
    unicode-range="U+0020-2265"
  />
<missing-glyph horiz-adv-x="1024" 
d="M840 1638v-2048h-650v2048h650zM682 1501h-338v-67h133v-76h-135v-68h340v68h-135v76h135v67zM547 1237h-205v-213h340v70h-135v143zM477 1167v-73h-67v73h67zM682 969h-340v-68h135v-76h-135v-67h205v143h135v68zM682 846h-68v-135h-272v-70h340v205zM682 596h-205v-115
h70v47h67v-96h-204v164h-68v-231h340v231zM682 242h-340v-232h340v232zM614 174v-96h-204v96h204zM682 -37h-340v-67h143l-143 -97v-67h340v67h-209l143 97h66v67z" />
    <glyph glyph-name="a.ss08" unicode="&#x2d;&#x2d;a" horiz-adv-x="897" 
d="M969 573q20 34 56 39q28 3 29 -17q1 -9 -7 -22q-48 -83 -100 -152.5t-111.5 -129.5t-124.5 -94.5t-127 -34.5q-71 0 -107 36t-33 105q-56 -62 -134 -101.5t-148 -39.5q-64 0 -103 31.5t-49.5 84.5t0 118.5t41.5 135.5q-73 -47 -174 -47q-83 0 -178.5 26.5t-167.5 58.5
t-162.5 58.5t-165.5 26.5q-50 0 -87.5 -14.5t-56.5 -37t-27.5 -44t-8.5 -41.5q0 -47 -39 -59q-32 -9 -52 13q-13 15 -9 38q37 209 243 209q62 0 154.5 -19.5t176 -42.5t206 -38.5t240.5 -8.5q54 3 94 16.5t71.5 35.5t32.5 22q68 91 155.5 146t178.5 55q57 0 103 -25t59 -72
q19 58 8 95q5 0 20 1t23 1q123 0 123 -92q0 -31 -77 -161q-94 -161 -117 -222q-45 -125 55 -125q31 0 64 17.5t61.5 43.5t61 67t56.5 76.5t54 83.5zM258 274q42 0 81 21.5t66.5 50.5t58 78.5t48 85.5t43.5 91.5t37 78.5q-35 -13 -59 -5q-5 3 -3 5q29 23 37 53.5t-7 53
t-48 22.5q-114 0 -213 -132q-82 -109 -107 -236q-24 -119 26 -155q16 -12 40 -12z" />
    <glyph glyph-name="b.ss08" unicode="&#x2d;&#x2d;b" horiz-adv-x="864" 
d="M940 580q19 30 54 31q27 0 27 -17q0 -7 -5 -16q-49 -83 -114 -154t-148 -131.5t-188 -95.5t-218 -35q-89 0 -149 30t-62 70v2q0 13 6 19l2 2l2 2q3 0 3 2h2l2 2q9 6 22 6q12 0 44 -18.5t56 -18.5q64 0 139 89t123 199.5t48 180.5q0 35 -13 52.5t-30 17.5
q-110 0 -244 -187q-70 -108 -149 -272q0 -1 -10.5 -22t-14 -31t-10.5 -30.5t-10 -40t-3 -40.5q0 -14 -14 -14q-13 0 -29 4q-69 19 -69 129q0 80 65 240q-82 -50 -178 -50q-83 0 -178.5 26.5t-167.5 58.5t-162.5 58.5t-165.5 26.5q-50 0 -87.5 -14.5t-56.5 -37t-27.5 -44
t-8.5 -41.5q0 -47 -39 -59q-32 -9 -52 13q-13 15 -9 38q37 209 243 209q62 0 154.5 -19.5t176 -42.5t206 -38.5t240.5 -8.5q89 4 170 56q23 50 74.5 158t80.5 172t63.5 148.5t51 148t16.5 110.5q0 44 -16 76q0 1 16.5 6.5t46 10.5t56.5 5q50 0 83 -21t33 -71q0 -26 -16 -74
t-50.5 -122t-65.5 -137t-84 -167t-83 -166q134 142 259 142q84 0 129 -45t51 -131q9 -88 -35 -206.5t-105 -195.5q84 25 169.5 94.5t152.5 178.5z" />
    <glyph glyph-name="c.ss08" unicode="&#x2d;&#x2d;c" horiz-adv-x="667" 
d="M752 594q22 36 52 30q23 -4 22 -26q-1 -10 -7 -20q-45 -75 -85.5 -133t-94.5 -117t-109 -98t-123.5 -63t-142.5 -24q-90 0 -148 33.5t-79 89t-17 123.5t33 143q-77 -47 -176 -47q-83 0 -178.5 26.5t-167.5 58.5t-162.5 58.5t-165.5 26.5q-50 0 -87.5 -14.5t-56.5 -37
t-27.5 -44t-8.5 -41.5q0 -47 -39 -59q-32 -9 -52 13q-13 15 -9 38q37 209 243 209q62 0 154.5 -19.5t176 -42.5t206 -38.5t240.5 -8.5q25 1 49 6t39 9.5t33.5 13.5t25.5 13.5t22.5 14.5t16.5 11q69 100 164.5 162.5t195.5 62.5q84 0 124 -37.5t40 -97.5q0 -86 -66.5 -165
t-152.5 -79q-22 0 -22 27t22 27q48 0 89.5 62t41.5 120q0 61 -57 61q-89 0 -183 -117q-87 -109 -118 -238q-34 -139 31 -190q30 -24 79 -24q47 0 96 17t105 54.5t116.5 106.5t117.5 164z" />
    <glyph glyph-name="d.ss08" unicode="&#x2d;&#x2d;d" horiz-adv-x="927" 
d="M1004 580q21 36 54 36q25 0 26 -20q0 -10 -7 -23q-89 -152 -130 -207q-141 -188 -313 -203q-16 -1 -32 -1q-68 0 -103.5 42.5t-35.5 106.5v4q-56 -67 -138 -110t-155 -43q-91 0 -132.5 55t-35.5 137t49 178q-73 -47 -174 -47q-83 0 -178.5 26.5t-167.5 58.5t-162.5 58.5
t-165.5 26.5q-50 0 -87.5 -14.5t-56.5 -37t-27.5 -44t-8.5 -41.5q0 -47 -39 -59q-32 -9 -52 13q-13 15 -9 38q37 209 243 209q62 0 154.5 -19.5t176 -42.5t206 -38.5t240.5 -8.5q56 3 98.5 19t70 35.5t33.5 21.5q72 90 159.5 144.5t178.5 54.5q47 0 89 -18.5t63 -53.5
q12 25 45 95.5t46.5 101t40 89.5t38.5 92t26.5 77t20.5 77t6 60q0 50 -16 74q1 2 18 7.5t46 10t55 4.5q116 0 116 -90q0 -57 -46 -167.5t-112 -235t-132 -250t-112 -237.5t-46 -171q0 -29 2.5 -45t16 -30.5t40.5 -14.5q121 0 316 320zM571 674q-32 -1 -32 6q29 23 37 53.5
t-7.5 53t-48.5 22.5q-114 0 -213 -133q-81 -110 -105 -237q-23 -118 26 -153q16 -12 38 -12q40 0 78 23t64 52.5t55 81.5t43 84.5t37 89t28 69.5z" />
    <glyph glyph-name="e.ss08" unicode="&#x2d;&#x2d;e" horiz-adv-x="671" 
d="M-1073 510q37 209 244 209q62 0 154 -19.5t175.5 -42.5t206 -38.5t240.5 -8.5q70 4 116 19t72.5 39.5t45 50.5t48.5 60.5t68 60.5q63 44 133 55q4 3 31 6t66 -0.5t65 -17.5q58 -33 65 -103q-1 -83 -44 -133.5t-80 -50.5t-44 2q44 40 65.5 93t11.5 91.5t-50 38.5
q-72 0 -130 -63.5t-58 -136.5q0 -72 100 -103q-7 -28 -14.5 -39.5t-24.5 -11.5q-77 0 -129 -63q-44 -53 -33 -101q12 -51 84 -51q69 0 133.5 26.5t119 75.5t97.5 102.5t87 123.5q22 36 57 36q5 0 12 -3.5t11.5 -13t-7.5 -26.5q-49 -76 -88 -129.5t-95 -114.5t-108.5 -98.5
t-121 -62.5t-140.5 -25q-65 0 -116 25h-2q-38 20 -58 53l-4 4q-32 63 -8.5 144.5t82.5 134.5q17 15 10.5 34t-22.5 19q-9 0 -42.5 -18t-93 -36t-133.5 -18q-83 0 -178.5 26.5t-167.5 58.5t-162.5 58.5t-165.5 26.5q-50 0 -87.5 -14.5t-56.5 -37t-27.5 -44t-8.5 -41.5
q0 -47 -39 -59q-32 -9 -52 13q-13 15 -9 38z" />
    <glyph glyph-name="f.ss08" unicode="&#x2d;&#x2d;f" horiz-adv-x="473" 
d="M545 573q27 46 62 48q23 1 25 -19q0 -13 -9 -29q-35 -59 -75 -93.5t-75 -42.5t-69.5 -1t-59.5 23.5t-43 38.5q30 -613 -297 -613q-53 0 -84 43.5t-31 106.5q0 130 164 497q-84 -47 -176 -47q-83 0 -178.5 26.5t-167.5 58.5t-162.5 58.5t-165.5 26.5q-50 0 -87.5 -14.5
t-56.5 -37t-27.5 -44t-8.5 -41.5q0 -47 -39 -59q-32 -9 -52 13q-13 15 -9 38q37 209 243 209q62 0 154.5 -19.5t176 -42.5t206 -38.5t240.5 -8.5q95 4 172 58q68 150 102.5 230t68 181t33.5 156q0 47 -18 74q1 2 18 7.5t46.5 10t56.5 4.5q115 0 115 -92q0 -36 -17.5 -92
t-60 -149.5t-69.5 -149t-91 -182.5q0 -49 25 -92t61 -65t80.5 -7.5t79.5 71.5zM92 -16q42 0 72 66.5t43.5 167t18.5 177.5t5 137q-176 -354 -176 -458q0 -90 37 -90z" />
    <glyph glyph-name="g.ss08" unicode="&#x2d;&#x2d;g" horiz-adv-x="794" 
d="M647 885q25 0 40.5 -0.5t37.5 -3t35 -8.5t26 -16t19 -26t6 -38q0 -16 -8 -34.5t-34 -72t-52 -113.5q-28 -65 -80 -185q-47 -110 -69.5 -161.5t-61.5 -138.5t-59 -125.5t-54 -102t-56 -90t-54.5 -67.5t-59.5 -57t-62 -35t-71 -25t-78 -6q-115 0 -153 70q-31 57 6 120
q42 72 139 90q25 5 53 5q6 0 11.5 -5.5t5.5 -11.5t-8 -14q-49 -29 -68.5 -73.5t-2 -77.5t63.5 -33q48 0 102.5 64.5t99 155.5t82 184.5t58.5 156t21 65.5q-55 -50 -124 -82t-128 -32q-89 0 -130.5 55t-35.5 137.5t47 177.5q-73 -47 -174 -47q-83 0 -178.5 26.5t-167.5 58.5
t-162.5 58.5t-165.5 26.5q-50 0 -87.5 -14.5t-56.5 -37t-27.5 -44t-8.5 -41.5q0 -47 -39 -59q-32 -9 -52 13q-13 15 -9 38q37 209 243 209q62 0 154.5 -19.5t176 -42.5t206 -38.5t240.5 -8.5q55 3 95.5 17.5t70.5 35.5t34 23q70 90 157 144.5t179 54.5q57 0 101.5 -24.5
t58.5 -74.5q18 64 8 99zM262 274q23 -1 47 6.5t43.5 19.5t41.5 35.5t37.5 42t35.5 51.5t31.5 53t29.5 57t24.5 51.5t22 49.5t17.5 40q-38 -13 -58 -4q-5 2 -2 4q28 23 35.5 54t-6.5 53t-43 22q-100 0 -203 -125q-88 -108 -121 -232q-33 -125 23 -164q18 -13 45 -14z" />
    <glyph glyph-name="h.ss08" unicode="&#x2d;&#x2d;h" horiz-adv-x="890" 
d="M963 573q24 38 59 40q24 1 25 -18q0 -10 -7 -22q-67 -115 -136.5 -202t-156 -148t-167.5 -61q-66 0 -100 41.5t-34 107.5q0 60 39 163t78 192t39 114q0 15 -12 15q-64 0 -184 -133t-212 -283t-92 -203q0 -6 -4 -10q-2 -2 -4 -2q-2 -2 -6 -2q-51 0 -74.5 37t-23.5 96
q0 80 65 240q-82 -50 -178 -50q-83 0 -178.5 26.5t-167.5 58.5t-162.5 58.5t-165.5 26.5q-50 0 -87.5 -14.5t-56.5 -37t-27.5 -44t-8.5 -41.5q0 -47 -39 -59q-32 -9 -52 13q-13 15 -9 38q37 209 243 209q62 0 154.5 -19.5t176 -42.5t206 -38.5t240.5 -8.5q95 4 172 58
q24 52 74 157.5t79 171t63.5 149t51 147t16.5 110.5q0 44 -16 76q0 1 16.5 6.5t46 10.5t56.5 5q50 0 83 -21t33 -71q0 -52 -64 -191.5t-175.5 -358t-165.5 -337.5q265 363 424 363q117 0 117 -99q0 -55 -36 -145.5t-72 -173.5t-36 -119q0 -67 64 -67q106 0 289 292z" />
    <glyph glyph-name="i.ss08" unicode="&#x2d;&#x2d;i" horiz-adv-x="430" 
d="M367 997q-32 -2 -53.5 -1.5t-32.5 2.5l-11 1q6 0 30 58.5t47.5 156t23.5 179.5q0 18 -2 28q61 11 112 11q43 0 65.5 -16t22.5 -56q0 -71 -69 -185t-133 -178zM502 573q24 40 59 41q24 1 26 -18q0 -11 -7 -23q-66 -113 -135.5 -200.5t-157.5 -149t-170 -61.5
q-140 0 -140 131q0 86 72 237q-76 -45 -172 -45q-83 0 -178.5 26.5t-167.5 58.5t-162.5 58.5t-165.5 26.5q-50 0 -87.5 -14.5t-56.5 -37t-27.5 -44t-8.5 -41.5q0 -47 -39 -59q-32 -9 -52 13q-13 15 -9 38q37 209 243 209q62 0 154.5 -19.5t176 -42.5t206 -38.5t240.5 -8.5
q44 3 84 16t54 21t40 25q61 122 61 182q0 21 -4 29q4 2 43 2q156 0 156 -88q0 -24 -35 -87t-77.5 -128t-77.5 -136t-35 -110q0 -51 63 -51q34 0 74 27t79.5 73.5t71 91t62.5 96.5z" />
    <glyph glyph-name="j.ss08" unicode="&#x2d;&#x2d;j" horiz-adv-x="335" 
d="M348 997l-57 -4q-29 0 -41 6h2q6 0 29 58.5t46 156t23 179.5v28q62 11 111 11q44 0 67 -16t23 -56q0 -71 -69.5 -185t-133.5 -178zM160 885h15q36 0 54 -0.5t45.5 -5t41 -14t24 -27.5t10.5 -45q0 -16 -8 -34.5t-34 -72t-52 -113.5q-82 -189 -128 -293t-103.5 -225.5
t-88.5 -178t-74.5 -122.5t-71.5 -90t-69.5 -49t-79.5 -30t-90 -5q-116 0 -153 69q-31 57 8 122q43 72 139 89q24 5 49 5h3q12 -1 14.5 -13t-6.5 -18q-54 -32 -71 -77.5t4.5 -76.5t66.5 -28q49 4 100.5 64t98 160.5t76 175.5t61.5 167q8 24 12 35q16 39 104 283
q-85 -52 -180 -52q-83 0 -178.5 26.5t-167.5 58.5t-162.5 58.5t-165.5 26.5q-50 0 -87.5 -14.5t-56.5 -37t-27.5 -44t-8.5 -41.5q0 -47 -39 -59q-32 -9 -52 13q-13 15 -9 38q37 209 243 209q62 0 154.5 -19.5t176 -42.5t206 -38.5t240.5 -8.5q87 4 161 52l29 75q25 69 30 96
t-3 52zM-47 254l-18 -47q7 18 24 65z" />
    <glyph glyph-name="k.ss08" unicode="&#x2d;&#x2d;k" horiz-adv-x="825" 
d="M897 573q25 43 60 43q23 1 25 -19q1 -11 -7 -24q-35 -60 -81 -124t-104.5 -132t-120.5 -111.5t-112 -43.5q-64 0 -105 22t-56 56t-22.5 76t-8 79t-10 68.5t-29.5 42.5q0 26 15.5 38.5t31.5 12.5q22 0 43 6q87 20 138.5 83t51.5 114q0 68 -86 7q-11 -8 -24 -19
q-108 -86 -253 -287t-145 -285q0 -14 -16 -14q-49 0 -72.5 37.5t-23.5 95.5q0 78 65 235q-80 -45 -174 -45q-83 0 -178.5 26.5t-167.5 58.5t-162.5 58.5t-165.5 26.5q-50 0 -87.5 -14.5t-56.5 -37t-27.5 -44t-8.5 -41.5q0 -47 -39 -59q-32 -9 -52 13q-13 15 -9 38
q37 209 243 209q62 0 154.5 -19.5t176 -42.5t206 -38.5t240.5 -8.5q83 4 166 54q22 48 74.5 158t80.5 173t63 148.5t51.5 149t16.5 110.5q0 44 -16 76q0 1 16.5 6.5t46 10.5t56.5 5q116 0 116 -92q0 -52 -61.5 -186t-170.5 -346t-163 -332q248 340 420 340q87 0 107 -66
t-37 -150q-71 -104 -209 -150q-37 -12 -76 -19q30 -30 45 -66.5t17.5 -61.5t16.5 -50t44 -39q42 -19 114 30.5t134.5 121.5t101.5 138z" />
    <glyph glyph-name="l.ss08" unicode="&#x2d;&#x2d;l" horiz-adv-x="464" 
d="M537 573q25 41 60 41q23 1 24 -18q0 -11 -7 -23q-33 -57 -68 -109.5t-84.5 -111t-98 -100t-107.5 -67.5t-115 -23q-56 -3 -95.5 32t-45.5 97q-6 85 51 241q-77 -47 -174 -47q-83 0 -178.5 26.5t-167.5 58.5t-162.5 58.5t-165.5 26.5q-50 0 -87.5 -14.5t-56.5 -37
t-27.5 -44t-8.5 -41.5q0 -47 -39 -59q-32 -9 -52 13q-13 15 -9 38q37 209 243 209q62 0 154.5 -19.5t176 -42.5t206 -38.5t240.5 -8.5q88 5 157 49q4 9 15.5 33.5t17.5 38.5q23 49 70 149t73.5 158.5t58 135t46 133t14.5 98.5q0 50 -16 74q1 2 18 7.5t46 10t55 4.5
q116 0 116 -90q0 -57 -47 -169.5t-114 -238.5t-133.5 -252t-111.5 -238.5t-42 -170.5q0 -57 74 -57q45 0 104 49.5t106 110.5t87 128z" />
    <glyph glyph-name="m.ss08" unicode="&#x2d;&#x2d;m" horiz-adv-x="1363" 
d="M1436 573q25 41 60 41q23 1 24 -18q0 -11 -7 -23q-67 -115 -136.5 -202t-156 -148t-167.5 -61q-140 0 -140 119q0 69 45.5 178t90.5 200.5t45 118.5q0 17 -15 17q-50 0 -139 -85t-172.5 -195.5t-142.5 -211.5q-47 -85 -54 -139q0 -2 -6 -2q-61 0 -95 45.5t-34 114.5
q0 60 49 163t97.5 190.5t48.5 108.5q0 11 -10 11q-59 0 -166 -112.5t-198.5 -253t-121.5 -228.5q-8 -24 -8 -33q-3 -6 -8 -6q-71 0 -106.5 34t-35.5 97q0 86 72 237q-76 -45 -172 -45q-83 0 -178.5 26.5t-167.5 58.5t-162.5 58.5t-165.5 26.5q-50 0 -87.5 -14.5t-56.5 -37
t-27.5 -44t-8.5 -41.5q0 -47 -39 -59q-32 -9 -52 13q-13 15 -9 38q37 209 243 209q62 0 154.5 -19.5t176 -42.5t206 -38.5t240.5 -8.5q44 3 84 16t54 21t40 25q61 122 61 182q0 21 -2 29q4 0 18 1t23 1q156 0 156 -92q0 -25 -37 -88.5t-89 -147.5t-75 -137q49 75 104 147.5
t123.5 148.5t138.5 122.5t126 46.5q108 0 108 -84q0 -45 -30.5 -115t-73 -150.5t-56.5 -119.5q329 469 508 469q119 0 119 -94q0 -54 -39.5 -145.5t-79 -176t-39.5 -121.5q0 -67 64 -67q59 0 135 83t152 209z" />
    <glyph glyph-name="n.ss08" unicode="&#x2d;&#x2d;n" horiz-adv-x="919" 
d="M991 573q24 40 59 41q24 1 26 -18q0 -11 -7 -23q-105 -179 -224 -295t-237 -116q-139 0 -139 119q0 69 45 178t90 200.5t45 118.5q0 17 -14 17q-50 0 -139.5 -85t-173 -195.5t-142.5 -211.5q-10 -18 -26.5 -53.5t-27.5 -61.5l-11 -26q-72 0 -105 36t-33 95q0 86 72 237
q-76 -45 -172 -45q-83 0 -178.5 26.5t-167.5 58.5t-162.5 58.5t-165.5 26.5q-50 0 -87.5 -14.5t-56.5 -37t-27.5 -44t-8.5 -41.5q0 -47 -39 -59q-32 -9 -52 13q-13 15 -9 38q37 209 243 209q62 0 154.5 -19.5t176 -42.5t206 -38.5t240.5 -8.5q44 3 84 16t54 21t40 25
q61 122 61 182q0 21 -2 29q4 0 18 1t23 1q156 0 156 -92q0 -25 -38 -90t-90.5 -150t-74.5 -137q41 60 81.5 113.5t99 122t111 117t110.5 82.5t104 34q119 0 119 -94q0 -54 -39.5 -145.5t-79 -176t-39.5 -121.5q0 -67 64 -67q58 0 134 82.5t152 209.5z" />
    <glyph glyph-name="o.ss08" unicode="&#x2d;&#x2d;o" horiz-adv-x="714" 
d="M799 594q28 46 57 37q21 -6 18 -31q0 -10 -6 -20q-83 -144 -160 -206.5t-182 -66.5l-6 -8q-118 -156 -280 -156q-94 0 -159 57t-65 148q0 82 37 184q-84 -47 -176 -47q-83 0 -178.5 26.5t-167.5 58.5t-162.5 58.5t-165.5 26.5q-50 0 -87.5 -14.5t-56.5 -37t-27.5 -44
t-8.5 -41.5q0 -47 -39 -59q-32 -9 -52 13q-13 15 -9 38q37 209 243 209q62 0 154.5 -19.5t176 -42.5t206 -38.5t240.5 -8.5q40 2 77.5 13t52 19t40.5 24q28 65 28 84q0 8 -4 28h74q23 55 79 90t116 35q83 0 139 -40t77.5 -105t16 -147.5t-38.5 -168.5q-8 -16 -10 -24
q92 -17 209 176zM506 455q24 105 24.5 187.5t-36 133.5t-107.5 51q-42 0 -66 -30t-21 -67t32 -56q15 -9 30 -15q7 -1 9.5 -7.5t-2.5 -10.5q-27 -15 -56 -18q-85 -180 -106 -247q-51 -167 62 -175h12q94 0 170 129q-27 19 -28 53.5t23.5 57.5t59.5 14z" />
    <glyph glyph-name="p.ss08" unicode="&#x2d;&#x2d;p" horiz-adv-x="804" 
d="M881 580q23 39 56 41q25 2 26 -19q0 -11 -7 -24q-114 -209 -273 -312.5t-353 -103.5q-90 0 -150.5 31t-60.5 71q0 14 10.5 23.5t28.5 9.5q12 0 44 -18.5t56 -18.5q79 0 174 135q86 122 122 255q35 125 -13 146l-17 3q-160 0 -354 -371q-65 -125 -127 -254t-132.5 -313
t-70.5 -267q0 -6 -4 -10t-10 -4q-51 0 -82 41.5t-31 97.5q0 43 19 108.5t61 163.5t73 165.5t93.5 196t83.5 173.5q-80 -41 -166 -41q-83 0 -178.5 26.5t-167.5 58.5t-162.5 58.5t-165.5 26.5q-50 0 -87.5 -14.5t-56.5 -37t-27.5 -44t-8.5 -41.5q0 -47 -39 -59q-32 -9 -52 13
q-13 15 -9 38q37 209 243 209q62 0 154.5 -19.5t176 -42.5t206 -38.5t240.5 -8.5q90 5 159 49q77 175 64 222h43q141 0 145 -82q103 86 211 86q85 0 134 -52.5t49 -156.5q0 -69 -43 -178.5t-105 -190.5q41 23 61 35t53.5 37t56 49t52 63t58.5 89z" />
    <glyph glyph-name="q.ss08" unicode="&#x2d;&#x2d;q" horiz-adv-x="790" 
d="M696 885q115 -5 115 -92q0 2 -49.5 -97t-119.5 -250.5t-140.5 -314.5t-120 -313.5t-49.5 -223.5q0 -14 -15 -14q-51 0 -81.5 41.5t-30.5 97.5q0 74 50.5 200.5t152.5 340.5q-65 -54 -140.5 -79t-138 -17.5t-98.5 63.5t-23 154q7 60 43 151q-73 -47 -174 -47
q-83 0 -178.5 26.5t-167.5 58.5t-162.5 58.5t-165.5 26.5q-50 0 -87.5 -14.5t-56.5 -37t-27.5 -44t-8.5 -41.5q0 -47 -39 -59q-32 -9 -52 13q-13 15 -9 38q37 209 243 209q62 0 154.5 -19.5t176 -42.5t206 -38.5t240.5 -8.5q54 3 94 17t70 34.5t34 22.5q68 91 154 146
t176 55q59 0 107 -26t59 -71q18 66 8 97h51zM549 590l43 90q-35 -13 -59 -5q-5 3 -3 5l5 4q5 3 10 8q33 37 23 77t-54 40q-115 0 -215 -132q-82 -108 -107 -234q-24 -120 26 -157q17 -12 42 -12q34 0 65.5 13t58 38.5t48 50.5t42 61.5t32 59t26 55.5t17.5 38z" />
    <glyph glyph-name="r.ss08" unicode="&#x2d;&#x2d;r" horiz-adv-x="692" 
d="M-1077 510q37 209 243 209q63 0 154.5 -17t175.5 -37.5t206.5 -37.5t240.5 -17q193 0 266 193q-20 -4 -33 -4q-49 0 -53 36q-5 36 36 69q42 34 101 34q29 0 44 -12.5t15 -32.5q0 -4 -4 -16q101 26 162 26q113 0 113 -84q0 -46 -44 -138.5t-88 -188.5t-44 -150
q0 -61 63 -61q108 0 287 292q9 15 27.5 27t33.5 12q23 0 23 -20q0 -10 -6 -19q-251 -413 -461 -413q-66 0 -102.5 45t-36.5 112q0 45 44 158t88 211.5t44 110.5q0 34 -45 34q-18 0 -80 -12q-77 -176 -180.5 -255t-235.5 -79q-83 0 -178.5 26.5t-167.5 58.5t-162.5 58.5
t-165.5 26.5q-50 0 -87.5 -14.5t-56.5 -37t-27.5 -44t-8.5 -41.5q0 -47 -39 -59q-32 -9 -52 13q-13 15 -9 38z" />
    <glyph glyph-name="s.ss08" unicode="&#x2d;&#x2d;s" horiz-adv-x="571" 
d="M-1077 510q37 209 243 209q62 0 154.5 -19.5t176 -42.5t206 -38.5t240.5 -8.5q63 3 112 23t79 49t54 63.5t44.5 68.5t43.5 62t59 45t83 17q31 0 56.5 -10t25.5 -33t-21 -23q-4 0 -9.5 1t-8.5 1q-27 0 -34.5 -44t-3 -115t8.5 -147.5t-6.5 -156t-42.5 -126.5
q137 101 260 288q8 15 26 27t36 12q15 0 20 -12t-4 -27q-45 -73 -82 -126t-93 -116t-111.5 -102.5t-129 -66.5t-153.5 -27q-139 0 -200 97q-44 70 -26 146q16 66 67 81l25 4q8 0 15 -2t9 -4l3 -2q-33 -30 -38.5 -82t23 -93.5t79.5 -41.5q33 0 58.5 15t41 38t25.5 60.5
t14.5 72t6 82.5t0.5 82.5t-2 82t-1 72.5q-24 -51 -42.5 -83t-50 -69t-67.5 -57.5t-91 -34.5t-124 -14q-83 0 -178.5 26.5t-167.5 58.5t-162.5 58.5t-165.5 26.5q-50 0 -87.5 -14.5t-56.5 -37t-27.5 -44t-8.5 -41.5q0 -47 -39 -59q-32 -9 -52 13q-13 15 -9 38z" />
    <glyph glyph-name="t.ss08" unicode="&#x2d;&#x2d;t" horiz-adv-x="471" 
d="M707 1075q6 3 12 -0.5t8 -9.5v-6q-2 -31 -40.5 -53t-94.5 -21q-75 3 -143 16q-24 -48 -79 -152.5t-81 -157t-59.5 -127.5t-47 -127.5t-12.5 -92.5q3 -59 76 -59q60 0 131.5 69.5t165.5 218.5q21 34 57 40q27 4 29 -15q0 -11 -8 -25q-36 -64 -78.5 -124t-97 -122
t-118.5 -105.5t-126 -55.5q-18 -4 -62 -4t-76.5 23.5t-46.5 64.5q-31 88 41 287q-79 -52 -180 -52q-83 0 -178.5 26.5t-167.5 58.5t-162.5 58.5t-165.5 26.5q-50 0 -87.5 -14.5t-56.5 -37t-27.5 -44t-8.5 -41.5q0 -47 -39 -59q-32 -9 -52 13q-13 15 -9 38q37 209 243 209
q62 0 154.5 -19.5t176 -42.5t206 -38.5t240.5 -8.5q99 5 168 56q1 1 2 4t2 4l24 57q131 304 135 322q-37 7 -63 10q-38 1 -55.5 -11t-19 -29.5t0 -35t-5.5 -30t-29 -11.5q-9 1 -18 12.5t-12 22.5q0 11 -0.5 28.5t12 39t30.5 39.5t55 29t85 9q17 0 49 -4l16 45q63 171 21 240
q0 2 17 7.5t46 10.5t56 5q116 0 116 -91q0 -27 -18 -92q-20 -66 -68 -164q161 -36 218 -8z" />
    <glyph glyph-name="u.ss08" unicode="&#x2d;&#x2d;u" horiz-adv-x="860" 
d="M932 573q23 38 59 40q24 1 26 -18q0 -10 -7 -22q-49 -84 -99.5 -153t-110 -129.5t-125 -94.5t-128.5 -34q-139 0 -139 131q0 15 4 43q-32 -37 -60 -62q-52 -47 -115 -79.5t-120 -32.5q-140 0 -140 131q0 86 72 237q-76 -45 -172 -45q-83 0 -178.5 26.5t-167.5 58.5
t-162.5 58.5t-165.5 26.5q-50 0 -87.5 -14.5t-56.5 -37t-27.5 -44t-8.5 -41.5q0 -47 -39 -59q-32 -9 -52 13q-13 15 -9 38q37 209 243 209q62 0 154.5 -19.5t176 -42.5t206 -38.5t240.5 -8.5q44 3 84 16t54 21t40 25q61 122 61 182q0 21 -2 31h41q156 0 156 -88
q0 -24 -35 -87t-77.5 -128t-77.5 -136t-35 -110q0 -51 63 -51q45 0 100 47q95 84 196 259.5t101 266.5q0 11 -4 27h43q156 0 156 -88q0 -24 -35 -87t-77.5 -128t-77.5 -136t-35 -110q0 -35 27 -46t65 1.5t71 40.5q90 81 187 241z" />
    <glyph glyph-name="v.ss08" unicode="&#x2d;&#x2d;v" horiz-adv-x="696" 
d="M606 881q58 -3 88.5 -20.5t30.5 -61.5q0 -91 -107 -271t-247 -286q-136 -101 -244 -101h-14q-104 3 -131 80q-18 57 2.5 133t68.5 178q-84 -47 -176 -47q-83 0 -178.5 26.5t-167.5 58.5t-162.5 58.5t-165.5 26.5q-50 0 -87.5 -14.5t-56.5 -37t-27.5 -44t-8.5 -41.5
q0 -47 -39 -59q-32 -9 -52 13q-13 15 -9 38q37 209 243 209q62 0 154.5 -19.5t176 -42.5t206 -38.5t240.5 -8.5q98 6 178 62q59 129 59 182q0 11 -4 31h41q13 0 19 -2q135 0 135 -86q0 13 -24 -24q-63 -97 -128 -254q-99 -238 -37 -264q6 -3 15 -3q62 0 151.5 113t154 256
t64.5 227q0 11 -4 35q29 0 43 -2z" />
    <glyph glyph-name="w.ss08" unicode="&#x2d;&#x2d;w" horiz-adv-x="1128" 
d="M995 883q37 0 62.5 -2.5t51 -10.5t38 -26t12.5 -45q0 -38 -25.5 -102t-68 -137t-102.5 -147.5t-124.5 -135t-138.5 -98.5t-141 -38q-84 0 -124 43.5t-27 130.5q-64 -72 -143 -123t-152 -51q-140 0 -140 131q0 93 80 260q-84 -47 -176 -47q-83 0 -178.5 26.5t-167.5 58.5
t-162.5 58.5t-165.5 26.5q-50 0 -87.5 -14.5t-56.5 -37t-27.5 -44t-8.5 -41.5q0 -47 -39 -59q-32 -9 -52 13q-13 15 -9 38q37 209 243 209q62 0 154.5 -19.5t176 -42.5t206 -38.5t240.5 -8.5q44 3 84 16t54 21t40 25q59 125 59 182q0 21 -2 31h41q156 0 156 -88
q0 -30 -59 -130.5t-118 -209.5t-59 -158q0 -31 9.5 -42t29.5 -11q53 0 158 119t189.5 267t84.5 222v10q0 15 -2 21h41q13 0 19 -2q137 0 137 -86q0 -33 -84 -172q-104 -171 -130 -233q-57 -136 40 -136q38 0 101 61t122 148.5t102 194.5t43 188q0 23 -4 35z" />
    <glyph glyph-name="x.ss08" unicode="&#x2d;&#x2d;x" horiz-adv-x="743" 
d="M-1073 510q37 209 244 209q62 0 154 -19.5t175.5 -42.5t206 -38.5t240.5 -8.5q56 3 97 15.5t66 34t39 42t27 50.5q10 25 17.5 49t10.5 38t6 25.5t8 16t13 4.5q33 0 48.5 -0.5t38.5 -3t34 -8t25 -15t20.5 -25t12 -37t8.5 -51.5q2 -12 2 -43q51 82 83.5 130.5t74.5 102.5
t77 79.5t66 25.5q11 0 27 -4q16 -5 27 -16t11 -25q0 -19 -10.5 -28t-25.5 -9q-5 0 -15 1.5t-14 1.5q-2 0 -6.5 -1.5t-7.5 -1.5q-23 -6 -44.5 -24.5t-47.5 -57.5t-49 -78t-65.5 -111t-80.5 -132q0 -14 -1 -40q-3 -54 -2 -101.5t5.5 -83t19 -56t39.5 -20.5q39 0 89.5 35
t97.5 88t83.5 103t63.5 93q10 16 29 29q17 10 33 10q22 0 22 -20q0 -10 -6 -19q-35 -57 -67 -104.5t-80.5 -106.5t-94.5 -99.5t-102.5 -69.5t-110.5 -31q-68 -3 -113 32.5t-57 108.5q0 -26 -59 -83.5t-111 -57.5q-16 2 -26.5 13t-10.5 28q0 15 12 27t29 12q29 0 84.5 64.5
t71.5 111.5q0 13 8 293q0 49 -20 49q-2 0 -13.5 -26.5t-27.5 -64t-27 -55.5q-41 -65 -109 -97t-188 -32q-83 0 -178.5 26.5t-167.5 58.5t-162.5 58.5t-165.5 26.5q-50 0 -87.5 -14.5t-56.5 -37t-27.5 -44t-8.5 -41.5q0 -47 -39 -59q-32 -9 -52 13q-13 15 -9 38z" />
    <glyph glyph-name="y.ss08" unicode="&#x2d;&#x2d;y" horiz-adv-x="774" 
d="M784 836q9 -27 9 -43t-69 -175t-134 -302l-70 -154q-58 -132 -101 -217.5t-92 -161.5t-97 -116.5t-106.5 -63.5t-129.5 -23q-76 0 -121 33q-2 0 -2 2q-43 30 -43 84v2q0 65 55 111l6 4q0 2 2 2q40 32 95 41q24 6 53 6q4 0 4 -2h2q8 -3 8.5 -13t-6.5 -16q-51 -29 -69 -70
t-3 -73q16 -41 66 -41q36 0 78 39q56 48 119 174q86 164 165 409v4q-73 -70 -173.5 -101.5t-176.5 -2t-76 120.5q0 86 72 237q-76 -45 -172 -45q-83 0 -178.5 26.5t-167.5 58.5t-162.5 58.5t-165.5 26.5q-50 0 -87.5 -14.5t-56.5 -37t-27.5 -44t-8.5 -41.5q0 -47 -39 -59
q-32 -9 -52 13q-13 15 -9 38q37 209 243 209q62 0 154.5 -19.5t176 -42.5t206 -38.5t240.5 -8.5q44 3 84 16t54 21t40 25q61 122 61 182q0 21 -2 31h41q156 0 156 -90q0 -7 -3 -17t-10 -25t-13 -26.5t-19 -33.5t-19.5 -33.5t-23.5 -38.5t-23 -37q-107 -174 -94 -269
q7 -56 53 -56q64 -1 150 99q114 134 200 379q25 69 30 96t-3 52h15q48 0 72.5 -1.5t53.5 -13t41 -34.5z" />
    <glyph glyph-name="z.ss08" unicode="&#x2d;&#x2d;z" horiz-adv-x="651" 
d="M735 885q17 0 22.5 -17.5t-3 -43.5t-29.5 -50q-13 -16 -101 -104t-181 -189.5t-138 -171.5q77 -138 95.5 -267t-20 -227t-141 -157t-255.5 -59q-69 0 -116 29.5t-48 86.5q1 75 65.5 122.5t149.5 45.5q12 -4 12 -16q0 -2 -4 -10q-42 -24 -64 -55t-22 -62q0 -30 20.5 -51
t53.5 -21q68 0 116 59.5t66 146t17 179.5t-21 164q-21 72 -23 96l443 469q-59 -32 -119.5 -50t-128.5 -17.5t-123 26.5q-26 -44 -39.5 -65t-37 -55.5t-44.5 -55t-41 -30.5q-76 -50 -217 -50q-83 0 -178.5 26.5t-167.5 58.5t-162.5 58.5t-165.5 26.5q-50 0 -87.5 -14.5
t-56.5 -37t-27.5 -44t-8.5 -41.5q0 -47 -39 -59q-32 -9 -52 13q-13 15 -9 38q37 209 244 209q63 0 154.5 -17t175 -37.5t206 -37.5t240.5 -17q53 0 104 21q57 27 100.5 83.5t98.5 162.5q8 14 22.5 17.5t26.5 -5.5q64 -50 120.5 -68t99.5 -9.5t78 24.5t73 32.5t67 16.5z" />
    <glyph glyph-name="a.ss09" unicode="a&#x2d;&#x2d;" horiz-adv-x="897" 
d="M2281 510q7 -37 -27 -50q-32 -12 -56 12q-17 17 -17 46q0 20 -8.5 41.5t-27.5 44t-56.5 37t-87.5 14.5q-75 0 -165.5 -26.5t-162.5 -58.5t-167.5 -58.5t-178.5 -26.5q-52 0 -98.5 13.5t-72 31t-50.5 33t-34 19.5t-23 -9l-15 -20q-103 -171 -219 -281t-231 -110
q-71 0 -107 36t-33 105q-56 -62 -134 -101.5t-148 -39.5q-124 0 -151 112q-26 109 44 265q72 159 195 258q111 88 225 88q57 0 103 -25t59 -72q19 58 8 95q5 0 20 1t23 1q123 0 123 -92q0 -31 -77 -161q-94 -161 -117 -222q-45 -125 55 -125q91 0 209 157v2q28 35 63 93
l25 36q1 1 2 3t2 2q4 7 23 39.5t28 48.5q11 20 21.5 22t27 -9l37.5 -25t62 -27.5t90 -16.5q118 -7 240.5 8.5t206 38.5t175.5 42.5t154 19.5q206 0 243 -209zM258 274q42 0 81 21.5t66.5 50.5t58 78.5t48 85.5t43.5 91.5t37 78.5q-35 -13 -59 -5q-5 3 -3 5q29 23 37 53.5
t-7 53t-48 22.5q-114 0 -213 -132q-82 -109 -107 -236q-24 -119 26 -155q16 -12 40 -12z" />
    <glyph glyph-name="b.ss09" unicode="b&#x2d;&#x2d;" horiz-adv-x="864" 
d="M2247 510q7 -37 -27 -50q-32 -12 -56 11q-18 17 -18 47q0 20 -8.5 41.5t-27.5 44t-56.5 37t-87.5 14.5q-75 0 -165.5 -26.5t-162.5 -58.5t-167.5 -58.5t-178.5 -26.5q-44 0 -84 9.5t-65 23t-49 28t-35.5 24.5t-25.5 12t-19 -9l-2 -4q-50 -82 -114.5 -151.5t-147 -128.5
t-186.5 -93t-216 -34q-89 0 -149 30t-62 70v2q0 13 6 19l2 2l2 2q3 0 3 2h2l2 2q9 6 22 6q12 0 44 -18.5t56 -18.5q64 0 139 89t123 199.5t48 180.5q0 35 -13 52.5t-30 17.5q-110 0 -244 -187q-70 -108 -149 -272q0 -1 -10.5 -22t-14 -31t-10.5 -30.5t-10 -40t-3 -40.5
q0 -14 -14 -14q-13 0 -29 4q-69 19 -69 129q0 64 42 178t102.5 240t120.5 253.5t102 246.5t42 190q0 44 -16 76q0 1 16.5 6.5t46 10.5t56.5 5q50 0 83 -21t33 -71q0 -26 -16 -74t-50.5 -122t-65.5 -137t-84 -167t-83 -166q134 142 259 142q84 0 129 -45t51 -131
q9 -88 -35 -206.5t-105 -195.5q119 32 230 152l2 4q75 91 139 203q11 20 21.5 22t27 -9l37.5 -25t62 -27.5t90 -16.5q118 -7 240.5 8.5t206 38.5t175.5 42.5t154 19.5q207 0 244 -209z" />
    <glyph glyph-name="c.ss09" unicode="c&#x2d;&#x2d;" horiz-adv-x="667" 
d="M2050 510q7 -37 -27 -50q-32 -12 -56 12q-17 18 -17 46q0 20 -8.5 41.5t-27.5 44t-57 37t-88 14.5q-75 0 -165.5 -26.5t-162.5 -58.5t-167 -58.5t-178 -26.5q-44 0 -84 10t-65 23.5t-49 28t-36 24.5t-26 12t-19 -10l-2 -4q-44 -73 -85 -130.5t-95 -115t-108 -95.5
t-122 -61.5t-141 -23.5q-181 0 -230 131q-42 114 25 275q63 153 185 255q120 99 245 99q84 0 124 -37.5t40 -97.5q0 -86 -66.5 -165t-152.5 -79q-22 0 -22 27t22 27q48 0 89.5 62t41.5 120q0 61 -57 61q-89 0 -183 -117q-87 -109 -118 -238q-34 -139 31 -190q30 -24 79 -24
q83 0 175.5 54.5t185.5 178.5q57 79 115 181q11 20 21.5 22t27 -9t37 -25t61.5 -27.5t90 -16.5q118 -7 240.5 8.5t206 38.5t175.5 42.5t154 19.5q207 0 244 -209z" />
    <glyph glyph-name="d.ss09" unicode="d&#x2d;&#x2d;" horiz-adv-x="927" 
d="M2312 510q7 -37 -27 -50q-32 -12 -56 12q-17 17 -17 46q0 20 -8.5 41.5t-27.5 44t-56.5 37t-87.5 14.5q-75 0 -165.5 -26.5t-162.5 -58.5t-167.5 -58.5t-178.5 -26.5q-38 0 -73.5 7.5t-60 18.5t-46 23.5t-36.5 23.5t-27 18t-21 7t-15 -10l-16 -24q-29 -50 -45 -76.5
t-48 -74t-56.5 -75t-62 -62.5t-73 -53.5t-81.5 -32t-95 -13.5q-68 0 -103.5 42.5t-35.5 106.5v4q-56 -67 -138 -110t-155 -43q-134 0 -162 114q-26 109 48 265.5t198 254.5q114 89 229 89q47 0 89 -18.5t63 -53.5q12 25 45 95.5t46.5 101t40 89.5t38.5 92t26.5 77t20.5 77
t6 60q0 50 -16 74q1 2 18 7.5t46 10t55 4.5q116 0 116 -90q0 -57 -46 -167.5t-112 -235t-132 -250t-112 -237.5t-46 -171q0 -29 2.5 -45t16 -30.5t40.5 -14.5q121 0 316 320l8 12q24 42 43 74q11 20 21.5 22t27 -9t37 -25t61.5 -27.5t90 -16.5q118 -7 240.5 8.5t206 38.5
t175.5 42.5t154 19.5q207 0 244 -209zM571 674q-32 -1 -32 6q29 23 37 53.5t-7.5 53t-48.5 22.5q-114 0 -213 -133q-81 -110 -105 -237q-23 -118 26 -153q16 -12 38 -12q40 0 78 23t64 52.5t55 81.5t43 84.5t37 89t28 69.5z" />
    <glyph glyph-name="e.ss09" unicode="e&#x2d;&#x2d;" horiz-adv-x="671" 
d="M2056 510q7 -37 -27 -50q-32 -12 -56 12q-17 18 -17 46q0 20 -8.5 41.5t-27.5 44t-56.5 37t-87.5 14.5q-75 0 -165.5 -26.5t-162.5 -58.5t-167.5 -58.5t-178.5 -26.5q-44 0 -84 10t-65 23.5t-49 28t-36 24.5t-26 12t-19 -10l-10 -16q-41 -70 -82.5 -127t-94.5 -112
t-108 -92.5t-122 -60t-138 -22.5q-80 0 -131.5 37t-64 91t10.5 118t79 115q11 9 9.5 24t-13.5 21t-17 6q-4 0 -8 -1t-6.5 -2.5t-7.5 -5t-10 -5.5q-13 -8 -28 -4t-15 18q0 9 6 18q54 90 115.5 160.5t131 118t138 56.5t135.5 -25q80 -44 48 -155q-22 -77 -77 -131
q-46 -46 -66 -23q-6 8 -8 24q44 40 65.5 93t11.5 91.5t-50 38.5q-72 0 -130 -63.5t-58 -136.5q0 -72 100 -103q-7 -28 -14.5 -39.5t-24.5 -11.5q-77 0 -129 -63q-44 -53 -33 -101q12 -51 84 -51q202 0 367 223q48 66 121 191q11 20 21.5 22t27 -9t37 -25t61.5 -27.5
t90 -16.5q118 -7 240.5 8.5t206 38.5t175.5 42.5t154 19.5q207 0 244 -209z" />
    <glyph glyph-name="f.ss09" unicode="f&#x2d;&#x2d;" horiz-adv-x="473" 
d="M1855 510q7 -37 -27 -50q-32 -12 -56 12q-17 18 -17 46q0 20 -8.5 41.5t-27.5 44t-56.5 37t-87.5 14.5q-75 0 -165.5 -26.5t-162.5 -58.5t-167.5 -58.5t-178.5 -26.5q-52 0 -98.5 13.5t-72 31t-50.5 33t-34 19.5t-23 -9q-35 -59 -75 -93.5t-75 -42.5t-69.5 -1t-59.5 23.5
t-43 38.5q30 -613 -297 -613q-53 0 -84 43.5t-31 106.5q0 74 44.5 202.5t107.5 268.5t126 278t107.5 261.5t44.5 189.5q0 47 -18 74q1 2 18 7.5t46.5 10t56.5 4.5q115 0 115 -92q0 -36 -17.5 -92t-60 -149.5t-69.5 -149t-91 -182.5q0 -72 48.5 -126t107.5 -42l16 16
q51 25 76 61q5 10 8 13q7 12 20.5 37.5t22.5 40.5q11 20 21.5 22t27 -9l37.5 -25t62 -27.5t90 -16.5q118 -7 240.5 8.5t206 38.5t175.5 42.5t154 19.5q206 0 243 -209zM92 -16q42 0 72 66.5t43.5 167t18.5 177.5t5 137q-176 -354 -176 -458q0 -90 37 -90z" />
    <glyph glyph-name="g.ss09" unicode="g&#x2d;&#x2d;" horiz-adv-x="794" 
d="M2193 510q7 -37 -27 -50q-32 -12 -56 12q-17 17 -17 46q0 20 -8.5 41.5t-27.5 44t-56.5 37t-87.5 14.5q-75 0 -165.5 -26.5t-162.5 -58.5t-167.5 -58.5t-178.5 -26.5q-52 0 -98.5 13.5t-72 31t-50.5 33t-34 19.5t-23 -9l-123 -178q-75 -103 -175.5 -211.5t-199.5 -189.5
q-109 -225 -206.5 -319.5t-244.5 -94.5q-49 0 -85.5 14t-54 37t-24.5 51t3.5 57.5t30.5 55t55.5 44t78.5 24.5q12 2 48.5 8t56.5 10t52 10.5t60 15t54 19.5q36 74 69.5 161.5t49.5 136.5t16 52q-55 -50 -124 -82t-128 -32q-131 0 -159 114q-27 109 45 266t195 254
q112 89 228 89q57 0 101.5 -24.5t58.5 -74.5q18 64 8 99q25 0 40.5 -0.5t37.5 -3t35 -8.5t26 -16t19 -26t6 -38q0 -16 -8 -34.5t-34 -72t-52 -113.5q-171 -396 -217 -499q72 75 137 156.5t115.5 154t58.5 82.5q29 41 125 199q11 20 21.5 22t27 -9l37.5 -25t62 -27.5
t90 -16.5q118 -7 240.5 8.5t206 38.5t175.5 42.5t154 19.5q206 0 243 -209zM262 274q23 -1 47 6.5t43.5 19.5t41.5 35.5t37.5 42t35.5 51.5t31.5 53t29.5 57t24.5 51.5t22 49.5t17.5 40q-38 -13 -58 -4q-5 2 -2 4q28 23 35.5 54t-6.5 53t-43 22q-100 0 -203 -125
q-88 -108 -121 -232q-33 -125 23 -164q18 -13 45 -14zM59 -350q90 0 205 225q-51 -19 -131 -35.5t-98 -27.5q-34 -32 -44 -70.5t8.5 -65t59.5 -26.5z" />
    <glyph glyph-name="h.ss09" unicode="h&#x2d;&#x2d;" horiz-adv-x="890" 
d="M2275 510q7 -37 -27 -50q-32 -12 -56 12q-17 17 -17 46q0 20 -8.5 41.5t-27.5 44t-56.5 37t-87.5 14.5q-75 0 -165.5 -26.5t-162.5 -58.5t-167.5 -58.5t-178.5 -26.5q-44 0 -84 10t-65 23.5t-49 28t-36 24.5t-26 12t-19 -10l-14 -20q-65 -110 -133.5 -193t-152.5 -140.5
t-162 -57.5q-66 0 -100 41.5t-34 107.5q0 60 39 163t78 192t39 114q0 15 -12 15q-64 0 -184 -133t-212 -283t-92 -203q0 -6 -4 -10q-2 -2 -4 -2q-2 -2 -6 -2q-51 0 -74.5 37t-23.5 96q0 77 64 234.5t140.5 309.5t140.5 315t64 249q0 44 -16 76q0 1 16.5 6.5t46 10.5t56.5 5
q50 0 83 -21t33 -71q0 -52 -64 -191.5t-175.5 -358t-165.5 -337.5q265 363 424 363q117 0 117 -99q0 -55 -36 -145.5t-72 -173.5t-36 -119q0 -67 64 -67q79 0 200 163l31 43q29 38 58 86l4 7q1 1 51 86q11 20 21.5 22t27 -9t37 -25t61.5 -27.5t90 -16.5q118 -7 240.5 8.5
t206 38.5t176 42.5t154.5 19.5q206 0 243 -209z" />
    <glyph glyph-name="i.ss09" unicode="i&#x2d;&#x2d;" horiz-adv-x="430" 
d="M367 997q-32 -2 -53.5 -1.5t-32.5 2.5l-11 1q6 0 30 58.5t47.5 156t23.5 179.5q0 18 -2 28q61 11 112 11q43 0 65.5 -16t22.5 -56q0 -71 -69 -185t-133 -178zM1815 510q7 -37 -27 -50q-32 -12 -56 11q-18 17 -18 47q0 20 -8.5 41.5t-27.5 44t-56.5 37t-87.5 14.5
q-75 0 -165.5 -26.5t-162.5 -58.5t-167.5 -58.5t-178.5 -26.5q-52 0 -98.5 13.5t-72 31t-50.5 33t-34 19.5t-23 -9l-15 -20q-101 -170 -218 -280.5t-232 -110.5q-140 0 -140 131q0 62 32 146t70.5 152.5t70.5 143t32 119.5q0 21 -4 29q4 2 43 2q156 0 156 -88q0 -24 -35 -87
t-77.5 -128t-77.5 -136t-35 -110q0 -51 63 -51q85 0 203 161v3q28 35 45 63q8 11 21 32.5t18 28.5q5 9 8 11q7 12 23 39.5t24 42.5q11 20 21.5 22t27 -9l37.5 -25t62 -27.5t90 -16.5q118 -7 240.5 8.5t206 38.5t175.5 42.5t154 19.5q207 0 244 -209z" />
    <glyph glyph-name="j.ss09" unicode="j&#x2d;&#x2d;" horiz-adv-x="335" 
d="M348 997l-57 -4q-29 0 -41 6h2q6 0 29 58.5t46 156t23 179.5v28q62 11 111 11q44 0 67 -16t23 -56q0 -71 -69.5 -185t-133.5 -178zM1733 510q7 -37 -27 -50q-32 -12 -56 11q-18 17 -18 47q0 20 -8.5 41.5t-27.5 44t-56.5 37t-87.5 14.5q-75 0 -165.5 -26.5t-162.5 -58.5
t-167.5 -58.5t-178.5 -26.5q-52 0 -98.5 13.5t-72 31t-50.5 33t-34 19.5t-23 -9l-123 -178q-76 -105 -179 -215.5t-206 -191.5q-85 -174 -150 -260.5t-129 -117t-162 -30.5q-55 0 -93.5 17.5t-55 44t-16.5 59.5t16.5 63.5t49.5 56t77 36.5h2q12 4 23 4q13 3 77 14
t108.5 21.5t86.5 27.5q36 80 127 330q170 451 180 483q25 69 30 96t-3 52h15q36 0 54 -0.5t45.5 -5t41 -14t24 -27.5t10.5 -45q0 -16 -8 -34.5t-34 -72t-52 -113.5q-163 -374 -225 -507q74 76 140.5 159.5t118 156.5t60.5 85q29 41 125 199q11 20 21.5 22t27 -9l37.5 -25
t62 -27.5t90 -16.5q118 -7 240.5 8.5t206 38.5t175.5 42.5t154 19.5q207 0 244 -209zM-47 254l-18 -47q7 18 24 65zM-395 -348q91 8 198 223q-50 -18 -131.5 -35t-99.5 -30q-36 -34 -43.5 -72.5t14.5 -63.5t62 -22z" />
    <glyph glyph-name="k.ss09" unicode="k&#x2d;&#x2d;" horiz-adv-x="825" 
d="M2210 510q7 -37 -27 -50q-32 -12 -56 11q-18 17 -18 47q0 20 -8.5 41.5t-27.5 44t-56.5 37t-87.5 14.5q-75 0 -165.5 -26.5t-162.5 -58.5t-167.5 -58.5t-178.5 -26.5q-52 0 -98.5 13.5t-72 31t-50.5 33t-34 19.5t-23 -9l-16 -22q-37 -61 -82.5 -123t-101.5 -124.5
t-114.5 -102t-105.5 -39.5q-64 0 -105 22t-56 56t-22.5 76t-8 79t-10 68.5t-29.5 42.5q0 26 15.5 38.5t31.5 12.5q22 0 43 6q87 20 138.5 83t51.5 114q0 68 -86 7q-11 -8 -24 -19q-108 -86 -253 -287t-145 -285q0 -14 -16 -14q-49 0 -72.5 37.5t-23.5 95.5q0 77 64 234.5
t140.5 309.5t140.5 315t64 249q0 44 -16 76q0 1 16.5 6.5t46 10.5t56.5 5q116 0 116 -92q0 -52 -61.5 -186t-170.5 -346t-163 -332q248 340 420 340q87 0 107 -66t-37 -150q-71 -104 -209 -150q-37 -12 -76 -19q30 -30 45 -66.5t17.5 -61.5t16.5 -50t44 -39q39 -18 105 24
t125 106.5t102 131.5q3 5 8 13t6 9l4 6q4 4 4 9q45 73 51 84q11 20 21.5 22t27 -9l37.5 -25t62 -27.5t90 -16.5q118 -7 240.5 8.5t206 38.5t175.5 42.5t154 19.5q207 0 244 -209z" />
    <glyph glyph-name="l.ss09" unicode="l&#x2d;&#x2d;" horiz-adv-x="464" 
d="M1849 510q7 -37 -27 -50q-32 -12 -56 12q-17 18 -17 46q0 20 -8.5 41.5t-27.5 44t-56.5 37t-87.5 14.5q-75 0 -165.5 -26.5t-162.5 -58.5t-167.5 -58.5t-178.5 -26.5q-44 0 -84 10t-65 23.5t-49 28t-36 24.5t-26 12t-19 -10l-14 -20q-33 -56 -68.5 -106.5t-83.5 -106
t-95.5 -94.5t-104 -63t-109.5 -21q-56 -3 -95.5 32t-45.5 97q-10 127 133 440q23 49 70 149t73.5 158.5t58 135t46 133t14.5 98.5q0 50 -16 74q1 2 18 7.5t46 10t55 4.5q116 0 116 -90q0 -57 -47 -169.5t-114 -238.5t-133.5 -252t-111.5 -238.5t-42 -170.5q0 -57 74 -57
q86 0 221 174q30 42 71 108l5 6q1 1 2 3.5t2 3.5l51 86q11 20 21.5 22t27 -9t37 -25t61.5 -27.5t90 -16.5q118 -7 240.5 8.5t206 38.5t176 42.5t154.5 19.5q206 0 243 -209z" />
    <glyph glyph-name="m.ss09" unicode="m&#x2d;&#x2d;" horiz-adv-x="1363" 
d="M2748 510q7 -37 -27 -50q-32 -12 -56 12q-17 17 -17 46q0 20 -8.5 41.5t-27.5 44t-56.5 37t-87.5 14.5q-75 0 -165.5 -26.5t-162.5 -58.5t-167.5 -58.5t-178.5 -26.5q-52 0 -98.5 13.5t-72 31t-50.5 33t-34 19.5t-23 -9l-15 -20q-65 -110 -133.5 -193t-152.5 -140.5
t-162 -57.5q-140 0 -140 119q0 69 45.5 178t90.5 200.5t45 118.5q0 17 -15 17q-50 0 -139 -85t-172.5 -195.5t-142.5 -211.5q-47 -85 -54 -139q0 -2 -6 -2q-61 0 -95 45.5t-34 114.5q0 60 49 163t97.5 190.5t48.5 108.5q0 11 -10 11q-59 0 -166 -112.5t-198.5 -253
t-121.5 -228.5q-8 -24 -8 -33q-3 -6 -8 -6q-71 0 -106.5 34t-35.5 97q0 62 32 146t70.5 152.5t70.5 143t32 119.5q0 21 -2 29q4 0 18 1t23 1q156 0 156 -92q0 -25 -37 -88.5t-89 -147.5t-75 -137q49 75 104 147.5t123.5 148.5t138.5 122.5t126 46.5q108 0 108 -84
q0 -45 -30.5 -115t-73 -150.5t-56.5 -119.5q329 469 508 469q119 0 119 -94q0 -54 -39.5 -145.5t-79 -176t-39.5 -121.5q0 -67 64 -67q78 0 199 159v4q44 58 84 123l4 6q1 1 2 3.5t2 3.5l51 86q11 20 21.5 22t27 -9l37.5 -25t62 -27.5t90 -16.5q118 -7 240.5 8.5t206 38.5
t175.5 42.5t154 19.5q206 0 243 -209z" />
    <glyph glyph-name="n.ss09" unicode="n&#x2d;&#x2d;" horiz-adv-x="919" 
d="M2304 510q7 -37 -27 -50q-32 -12 -56 12q-17 17 -17 46q0 20 -8.5 41.5t-27.5 44t-57 37t-88 14.5q-75 0 -165.5 -26.5t-162.5 -58.5t-167 -58.5t-178 -26.5q-44 0 -84 10t-65 23.5t-49 28t-36 24.5t-26 12t-19 -10l-14 -20q-102 -171 -218.5 -281t-230.5 -110
q-139 0 -139 119q0 69 45 178t90 200.5t45 118.5q0 17 -14 17q-50 0 -139.5 -85t-173 -195.5t-142.5 -211.5q-10 -18 -26.5 -53.5t-27.5 -61.5l-11 -26q-72 0 -105 36t-33 95q0 62 32 146t70.5 152.5t70.5 143t32 119.5q0 21 -2 29q4 0 18 1t23 1q156 0 156 -92
q0 -25 -38 -90t-90.5 -150t-74.5 -137q41 60 81.5 113.5t99 122t111 117t110.5 82.5t104 34q119 0 119 -94q0 -54 -39.5 -145.5t-79 -176t-39.5 -121.5q0 -67 64 -67q79 0 202 165v3q14 17 47 65q16 24 37 59q5 9 8 11q7 13 23.5 40t24.5 42q11 20 21.5 22t27 -9t37 -25
t61.5 -27.5t90 -16.5q118 -7 240.5 8.5t206 38.5t175.5 42.5t154 19.5q207 0 244 -209z" />
    <glyph glyph-name="o.ss09" unicode="o&#x2d;&#x2d;" horiz-adv-x="714" 
d="M2097 510q7 -37 -27 -50q-32 -12 -56 12q-17 18 -17 46q0 20 -8.5 41.5t-27.5 44t-56.5 37t-87.5 14.5q-75 0 -165.5 -26.5t-162.5 -58.5t-167.5 -58.5t-178.5 -26.5q-51 0 -97 13.5t-71 30t-50 32.5t-34.5 20.5t-24.5 -6.5q-84 -141 -159.5 -202.5t-180.5 -65.5l-6 -8
q-118 -156 -280 -156q-94 0 -159 57t-65 148q0 61 19.5 130t43 117t43 92.5t19.5 62.5q0 8 -4 28h74q23 55 79 90t116 35q83 0 139 -40t77.5 -105t16 -147.5t-38.5 -168.5q-8 -16 -10 -24q51 -9 110 47l2 6q11 10 22 22t19.5 21.5t19 25t16 23.5t17 26.5t14.5 24t15.5 27.5
t14.5 25q11 20 21.5 22t27 -9t37 -25t61.5 -27.5t90 -16.5q118 -7 240.5 8.5t206 38.5t175.5 42.5t154 19.5q207 0 244 -209zM506 455q24 105 24.5 187.5t-36 133.5t-107.5 51q-42 0 -66 -30t-21 -67t32 -56q15 -9 30 -15q7 -1 9.5 -7.5t-2.5 -10.5q-27 -15 -56 -18
q-85 -180 -106 -247q-51 -167 62 -175h12q94 0 170 129q-27 19 -28 53.5t23.5 57.5t59.5 14z" />
    <glyph glyph-name="p.ss09" unicode="p&#x2d;&#x2d;" horiz-adv-x="804" 
d="M2189 510q7 -37 -27 -50q-32 -12 -56 12q-17 17 -17 46q0 20 -8.5 41.5t-27.5 44t-56.5 37t-87.5 14.5q-75 0 -165.5 -26.5t-162.5 -58.5t-167.5 -58.5t-178.5 -26.5q-44 0 -84 10t-65 24t-49 28.5t-36 24.5t-26 11.5t-19 -10.5l-12 -16q-112 -198 -268.5 -296.5
t-345.5 -98.5q-90 0 -150.5 31t-60.5 71q0 14 10.5 23.5t28.5 9.5q12 0 44 -18.5t56 -18.5q79 0 174 135q86 122 122 255q35 125 -13 146l-17 3q-160 0 -354 -371q-65 -125 -127 -254t-132.5 -313t-70.5 -267q0 -6 -4 -10t-10 -4q-51 0 -82 41.5t-31 97.5q0 65 50.5 197.5
t120 278t138.5 287.5t111.5 252.5t32.5 146.5h43q141 0 145 -82q103 86 211 86q85 0 134 -52.5t49 -156.5q0 -69 -43 -178.5t-105 -190.5q45 25 69 39.5t57.5 42t61.5 60.5q22 27 44.5 59t35.5 53t34.5 57t29.5 48q11 20 21.5 22t27 -9t37 -25t61.5 -27.5t90 -16.5
q118 -7 240.5 8.5t206 38.5t176 42.5t154.5 19.5q206 0 243 -209z" />
    <glyph glyph-name="q.ss09" unicode="q&#x2d;&#x2d;" horiz-adv-x="790" 
d="M2234 510q7 -37 -27 -50q-32 -12 -56 12q-17 17 -17 46q0 20 -8.5 41.5t-27.5 44t-56.5 37t-87.5 14.5q-75 0 -165.5 -26.5t-162.5 -58.5t-167.5 -58.5t-178.5 -26.5q-44 0 -84 10t-65 23.5t-49 28t-36 24.5t-26 12t-19 -10l-122 -178q-52 -64 -104 -110t-103 -73.5
t-85 -41t-81 -27.5q-19 -42 -23 -55q18 -24 29.5 -47.5t22 -61.5t6 -88t-24.5 -108q-18 -50 -37 -88t-39.5 -59t-35 -33.5t-35.5 -17t-27 -5t-23 -0.5h-2h-2h-6q-48 4 -76 44.5t-28 94.5q0 74 50.5 200.5t152.5 340.5q-65 -54 -140.5 -79t-138 -17.5t-98.5 63.5t-23 154
q15 111 81 226.5t170.5 196.5t211.5 81q59 0 107 -26t59 -71q18 66 8 97h51q115 -5 115 -92q0 2 -38.5 -75t-105 -217.5t-124.5 -271.5q64 21 113.5 48t84.5 60t52 53t41 54q87 124 143 222q11 20 21.5 22t27 -9t37 -25t61.5 -27.5t90 -16.5q118 -7 240.5 8.5t206 38.5
t176 42.5t154.5 19.5q206 0 243 -209zM260 274q34 0 65.5 13t58 38.5t48 50.5t42 61.5t32 59t26 55.5t17.5 38l43 90q-35 -13 -59 -5q-5 3 -3 5l5 4q5 3 10 8q33 37 23 77t-54 40q-115 0 -215 -132q-82 -108 -107 -234q-24 -120 26 -157q17 -12 42 -12zM463 -199
q30 91 -6 222q-106 -263 -123 -392q22 -1 43 14.5t37 44.5t27 54.5t22 56.5z" />
    <glyph glyph-name="r.ss09" unicode="r&#x2d;&#x2d;" horiz-adv-x="692" 
d="M2077 510q7 -37 -27 -50q-32 -12 -56 11q-18 17 -18 47q0 20 -8.5 41.5t-27.5 44t-56.5 37t-87.5 14.5q-75 0 -165.5 -26.5t-162.5 -58.5t-167.5 -58.5t-178.5 -26.5q-52 0 -98.5 13.5t-72 31t-50.5 33t-34 19.5t-23 -9l-15 -20q-48 -81 -98.5 -148t-108 -124t-119.5 -89
t-122 -32q-66 0 -102.5 45t-36.5 112q0 45 44 158t88 211.5t44 110.5q0 34 -45 34q-18 0 -80 -12l-143 -246q-23 -39 -59 -40q-24 -1 -26 19q0 9 7 21l137 230q-20 -4 -33 -4q-49 0 -53 36q-5 36 36 69q42 34 101 34q29 0 44 -12.5t15 -32.5q0 -4 -4 -16q101 26 162 26
q113 0 113 -84q0 -46 -44 -138.5t-88 -188.5t-44 -150q0 -61 63 -61q79 0 205 168v2l41 55q7 12 20.5 34t20.5 33l8 13q40 68 47 80q11 20 21.5 22t27 -9l37.5 -25t62 -27.5t90 -16.5q118 -7 240.5 8.5t206 38.5t175.5 42.5t154 19.5q207 0 244 -209z" />
    <glyph glyph-name="s.ss09" unicode="s&#x2d;&#x2d;" horiz-adv-x="571" 
d="M1954 510q7 -37 -27 -50q-32 -12 -56 11q-18 17 -18 47q0 20 -8.5 41.5t-27.5 44t-56.5 37t-87.5 14.5q-75 0 -165.5 -26.5t-162.5 -58.5t-167.5 -58.5t-178.5 -26.5q-52 0 -98.5 13.5t-72 31t-50.5 33t-34 19.5t-23 -9q-80 -124 -127 -184v-2q-94 -117 -201 -184.5
t-241 -67.5q-139 0 -200 97q-44 70 -26 146q16 66 67 81l25 4q5 0 12 -2t11 -4l4 -2q-33 -30 -38.5 -82t23 -93.5t79.5 -41.5q33 0 58.5 15t41 38t25.5 60.5t14.5 72t6 82.5t0.5 82.5t-2 82t-1 72.5q-24 -41 -102 -170q-9 -16 -27.5 -27t-34.5 -11q-22 0 -22 18q0 12 6 20
q9 14 32 52t34.5 56t34 53.5t37.5 54t37.5 46.5t41 43t41 30.5t44.5 22.5t44 7q31 0 56.5 -10t25.5 -33t-21 -23q-4 0 -9.5 1t-8.5 1q-27 0 -34.5 -44t-3 -115t8.5 -147.5t-6.5 -156t-42.5 -126.5q65 11 168 151l2 13q85 112 145 217q11 20 21.5 22t26.5 -9t36.5 -25
t61.5 -27.5t90 -16.5q118 -7 240.5 8.5t206 38.5t175.5 42.5t154 19.5q207 0 244 -209z" />
    <glyph glyph-name="t.ss09" unicode="t&#x2d;&#x2d;" horiz-adv-x="471" 
d="M1855 510q7 -37 -27 -50q-32 -12 -56 12q-17 18 -17 46q0 20 -8.5 41.5t-27.5 44t-56.5 37t-87.5 14.5q-75 0 -165.5 -26.5t-162.5 -58.5t-167.5 -58.5t-178.5 -26.5q-52 0 -98.5 13.5t-72 31t-50.5 33t-34 19.5t-23 -9l-13 -18q-37 -63 -78.5 -120.5t-94.5 -116.5
t-114.5 -99.5t-121.5 -52.5q-18 -4 -62 -4t-76.5 23.5t-46.5 64.5q-40 110 99 424l24 57q131 304 135 322q-37 7 -63 10q-38 1 -55.5 -11t-19 -29.5t0 -35t-5.5 -30t-29 -11.5q-9 1 -18 12.5t-12 22.5q0 11 -0.5 28.5t12 39t30.5 39.5t55 29t85 9q17 0 49 -4l16 45
q63 171 21 240q0 2 17 7.5t46 10.5t56 5q116 0 116 -91q0 -27 -18 -92q-20 -66 -68 -164q161 -36 218 -8q6 3 12 -0.5t8 -9.5v-6q-2 -31 -40.5 -53t-94.5 -21q-75 3 -143 16q-24 -48 -79 -152.5t-81 -157t-59.5 -127.5t-47 -127.5t-12.5 -92.5q3 -59 76 -59q89 0 209 159
q2 2 3.5 4t3.5 5.5t3 5.5q37 49 78 114q1 1 2 3t2 2q4 7 23 39.5t28 48.5q11 20 21.5 22t27 -9l37.5 -25t62 -27.5t90 -16.5q118 -7 240.5 8.5t206 38.5t175.5 42.5t154 19.5q206 0 243 -209z" />
    <glyph glyph-name="u.ss09" unicode="u&#x2d;&#x2d;" horiz-adv-x="860" 
d="M2245 510q7 -37 -27 -50q-32 -12 -56 11q-18 17 -18 47q0 20 -8.5 41.5t-27.5 44t-56.5 37t-87.5 14.5q-75 0 -165.5 -26.5t-162.5 -58.5t-167.5 -58.5t-178.5 -26.5q-52 0 -98.5 13.5t-72 31t-50.5 33t-34 19.5t-23 -9l-15 -20q-48 -80 -97.5 -146.5t-107.5 -123.5
t-121 -89t-124 -32q-139 0 -139 131q0 15 4 43q-32 -37 -60 -62q-52 -47 -115 -79.5t-120 -32.5q-140 0 -140 131q0 62 32 146t70.5 152.5t70.5 143t32 119.5q0 21 -2 31h41q156 0 156 -88q0 -24 -35 -87t-77.5 -128t-77.5 -136t-35 -110q0 -51 63 -51q45 0 100 47
q95 84 196 259.5t101 266.5q0 11 -4 27h43q156 0 156 -88q0 -24 -35 -87t-77.5 -128t-77.5 -136t-35 -110q0 -35 27 -46t65 1.5t71 40.5q90 81 187 241q5 9 8 11q7 12 23 39.5t24 42.5q11 20 21.5 22t27 -9l37.5 -25t62 -27.5t90 -16.5q118 -7 240.5 8.5t206 38.5
t175.5 42.5t154 19.5q207 0 244 -209z" />
    <glyph glyph-name="v.ss09" unicode="v&#x2d;&#x2d;" horiz-adv-x="696" 
d="M2009 510q7 -37 -27 -50q-32 -12 -56 12q-17 18 -17 46q0 20 -8.5 41.5t-27.5 44t-56.5 37t-87.5 14.5q-75 0 -165.5 -26.5t-162.5 -58.5t-167.5 -58.5t-178.5 -26.5q-145 0 -228.5 47t-134.5 140q-48 -113 -134 -233.5t-187 -196.5q-136 -101 -244 -101h-14
q-104 3 -131 80q-19 59 8 152t70 174.5t81.5 170.5t38.5 136q0 11 -4 31h41q13 0 19 -2q135 0 135 -86q0 13 -24 -24q-63 -97 -128 -254q-99 -238 -37 -264q6 -3 15 -3q62 0 151.5 113t154 256t64.5 227q0 11 -4 35q29 0 43 -2q42 -4 64 -11q28 -8 43.5 -25.5t21 -39.5
t10.5 -47t17 -49.5t35 -45t72 -35t120 -18.5q118 -7 240.5 8.5t206 38.5t175.5 42.5t154 19.5q207 0 244 -209z" />
    <glyph glyph-name="w.ss09" unicode="w&#x2d;&#x2d;" horiz-adv-x="1128" 
d="M2441 510q7 -37 -27 -50q-32 -12 -56 12q-17 17 -17 46q0 20 -8.5 41.5t-27.5 44t-56.5 37t-87.5 14.5q-75 0 -165.5 -26.5t-162.5 -58.5t-167.5 -58.5t-178.5 -26.5q-145 0 -228.5 47t-134.5 140q-36 -82 -96.5 -171.5t-135.5 -171.5t-164.5 -135t-168.5 -53
q-84 0 -124 43.5t-27 130.5q-64 -72 -143 -123t-152 -51q-140 0 -140 131q0 62 32.5 149t71 159.5t71 150.5t32.5 123q0 21 -2 31h41q156 0 156 -88q0 -30 -59 -130.5t-118 -209.5t-59 -158q0 -31 9.5 -42t29.5 -11q53 0 158 119t189.5 267t84.5 222v10q0 15 -2 21h41
q13 0 19 -2q137 0 137 -86q0 -33 -84 -172q-104 -171 -130 -233q-57 -136 40 -136q38 0 101 61t122 148.5t102 194.5t43 188q0 23 -4 35q95 0 131 -21q22 -13 33.5 -37t13.5 -49.5t14.5 -54t33 -51t71.5 -39.5t129 -21q118 -7 240.5 8.5t206 38.5t176 42.5t154.5 19.5
q206 0 243 -209z" />
    <glyph glyph-name="x.ss09" unicode="x&#x2d;&#x2d;" horiz-adv-x="743" 
d="M2126 510q7 -37 -27 -50q-32 -12 -56 11q-18 17 -18 47q0 20 -8.5 41.5t-27.5 44t-56.5 37t-87.5 14.5q-75 0 -165.5 -26.5t-162.5 -58.5t-167.5 -58.5t-178.5 -26.5q-52 0 -98.5 13.5t-72 31t-50.5 33t-34 19.5t-23 -9q-41 -71 -86 -133.5t-104.5 -128.5t-128.5 -106.5
t-136 -42.5q-68 -3 -113 32.5t-57 108.5q0 -26 -59 -83.5t-111 -57.5q-16 2 -26.5 13t-10.5 28q0 15 12 27t29 12q29 0 84.5 64.5t71.5 111.5q0 13 8 293q0 49 -20 49q-3 0 -15.5 -30.5t-45 -94t-74.5 -125.5l-41 59q50 82 83 165t46.5 117t31.5 34q33 0 48.5 -0.5t38.5 -3
t34 -8t25 -15t20.5 -25t12 -37t8.5 -51.5q2 -12 2 -43q51 82 83.5 130.5t74.5 102.5t77 79.5t66 25.5q11 0 27 -4q16 -5 27 -16t11 -25q0 -19 -10.5 -28t-25.5 -9q-5 0 -15 1.5t-14 1.5q-2 0 -6.5 -1.5t-7.5 -1.5q-23 -6 -44.5 -24.5t-47.5 -57.5t-49 -78t-65.5 -111
t-80.5 -132q0 -14 -1 -40q-3 -54 -2 -101.5t5.5 -83t19 -56t39.5 -20.5q63 0 146 81.5t153 184.5q4 5 88 146q11 20 21.5 22t27 -9l37.5 -25t62 -27.5t90 -16.5q118 -7 240.5 8.5t206 38.5t175.5 42.5t154 19.5q207 0 244 -209z" />
    <glyph glyph-name="y.ss09" unicode="y&#x2d;&#x2d;" horiz-adv-x="774" 
d="M2179 510q7 -37 -27 -50q-32 -12 -56 12q-17 17 -17 46q0 20 -8.5 41.5t-27.5 44t-57 37t-88 14.5q-75 0 -165.5 -26.5t-162.5 -58.5t-167 -58.5t-178 -26.5q-44 0 -84 10t-65 23.5t-49 28t-36 24.5t-26 12t-19 -10l-123 -178q-77 -105 -179 -215t-204 -192
q-53 -111 -99 -184t-99 -125.5t-113 -75.5t-135 -23q-76 0 -121 33q-2 0 -2 2q-43 30 -43 84v2q0 65 55 111l6 4q0 2 2 2q41 33 93 41h4q2 1 7 2t7 2q10 2 58.5 10t72 12.5t63.5 14.5t72 22q87 189 135 350v4q-73 -70 -173.5 -101.5t-176.5 -2t-76 120.5q0 62 32 146
t70.5 152.5t70.5 143t32 119.5q0 21 -2 31h41q156 0 156 -90q0 -7 -3 -17t-10 -25t-13 -26.5t-19 -33.5t-19.5 -33.5t-23.5 -38.5t-23 -37q-107 -174 -94 -269q7 -56 53 -56q64 -1 150 99q114 134 200 379q25 69 30 96t-3 52h15q48 0 72.5 -1.5t53.5 -13t41 -34.5
q9 -27 9 -43t-69 -175t-134 -302l-70 -154l-43 -96q74 76 140.5 159.5t118.5 157t61 84.5q29 41 125 199q11 20 21.5 22t27 -9t37 -25t61.5 -27.5t90 -16.5q118 -7 240.5 8.5t206 38.5t175.5 42.5t154 19.5q207 0 244 -209zM119 -311q56 48 119 174l6 12q-42 -15 -95 -26.5
t-87 -19.5t-48 -19q-32 -28 -41.5 -62t2.5 -57q16 -41 66 -41q36 0 78 39z" />
    <glyph glyph-name="z.ss09" unicode="z&#x2d;&#x2d;" horiz-adv-x="651" 
d="M2097 510q7 -37 -27 -50q-32 -12 -56 12q-17 18 -17 46q0 20 -8.5 41.5t-27.5 44t-56.5 37t-87.5 14.5q-75 0 -165.5 -26.5t-162.5 -58.5t-167.5 -58.5t-178.5 -26.5q-44 0 -84 10t-65 23.5t-49 28t-36 24.5t-26 12t-19 -10l-123 -178q-149 -208 -338 -368
q22 -191 -86.5 -309.5t-332.5 -118.5q-69 0 -116 29.5t-48 86.5q1 64 48 107.5t116 56.5q12 2 44.5 8.5t49 10t44 11t52.5 18t51 24.5q16 151 -16 266q-21 72 -23 96l443 469q-59 -32 -119.5 -50t-128.5 -17.5t-123 26.5q-100 -155 -127 -198q-19 -31 -52 -19q-22 7 -22 23
l2 6q1 2 36 59t79.5 133t73.5 132q8 14 22.5 17.5t26.5 -5.5q64 -50 120.5 -68t99.5 -9.5t78 24.5t73 32.5t67 16.5q17 0 22.5 -17.5t-3 -43.5t-29.5 -50q-13 -16 -101 -104t-181 -189.5t-138 -171.5q65 -116 90 -231q75 70 141.5 151t118 154t60.5 84q29 41 125 199
q11 20 21.5 22t27 -9t37 -25t61.5 -27.5t90 -16.5q118 -7 240.5 8.5t206 38.5t175.5 42.5t154 19.5q207 0 244 -209zM31 -332q72 0 119 63t67 163q-43 -20 -91 -30.5t-81 -19t-53 -26.5q-35 -38 -35 -78q0 -30 20.5 -51t53.5 -21z" />
    <glyph glyph-name="t_t" unicode="tt" horiz-adv-x="937" 
d="M1477 1266q1 -48 -16.5 -94.5t-51.5 -87.5t-93 -67t-134 -28q-104 -3 -240 39q-20 -37 -88.5 -163.5t-111 -212.5t-72.5 -163q-83 -204 43 -204q60 0 131.5 69.5t165.5 218.5q14 25 51 29q31 3 31 -15l-5 -14q-236 -411 -481 -411q-159 0 -123 215q-148 -181 -284 -211
q-18 -4 -62 -4t-76 23t-47 65q-9 25 -10 58.5t9 77t18 74.5t28.5 82.5t27.5 68.5t26 63l24 57q131 304 135 322l29 69l16 45q8 21 19 58q-99 15 -207 12q-86 -3 -128 -38t-42 -81q2 -27 16.5 -47t40.5 -27q6 -2 7 -8.5t-5 -11.5q-44 -28 -88 -24.5t-77.5 32t-34.5 64.5
q-2 70 90 124t285 60q65 3 155 -8q15 91 -10 135q0 2 17 7.5t46 10.5t56 5q116 0 116 -91q0 -27 -18 -92l-6 -18q51 -13 138.5 -40t111.5 -34q17 39 27 67t23 73t11.5 83.5t-18.5 65.5q0 3 24 10t59 10.5t69.5 0t58.5 -26t24 -62.5q0 -82 -90 -262q33 -4 92 -4q102 3 163 71
t58 169q0 11 -2 26.5t-2 20.5q-3 10 9 22q12 8 30 8q48 2 93.5 -39t48.5 -122zM582 674q0 -1 37.5 80.5t84 184.5t68.5 153q-172 66 -242 86q-19 -49 -84 -177q-23 -45 -79 -152t-80.5 -158t-59 -127t-47.5 -128t-12 -92v-2q3 -57 76 -57q60 0 131.5 69t163.5 217z" />
    <glyph glyph-name=".notdef" horiz-adv-x="1024" 
d="M840 1638v-2048h-650v2048h650zM682 1501h-338v-67h133v-76h-135v-68h340v68h-135v76h135v67zM547 1237h-205v-213h340v70h-135v143zM477 1167v-73h-67v73h67zM682 969h-340v-68h135v-76h-135v-67h205v143h135v68zM682 846h-68v-135h-272v-70h340v205zM682 596h-205v-115
h70v47h67v-96h-204v164h-68v-231h340v231zM682 242h-340v-232h340v232zM614 174v-96h-204v96h204zM682 -37h-340v-67h143l-143 -97v-67h340v67h-209l143 97h66v67z" />
    <glyph glyph-name=".null" 
 />
    <glyph glyph-name="nonmarkingreturn" horiz-adv-x="682" 
 />
    <glyph glyph-name="space" unicode=" " horiz-adv-x="1024" 
 />
    <glyph glyph-name="exclam" unicode="!" horiz-adv-x="434" 
d="M150 139q0 79 60.5 236.5t147 332.5t173.5 345.5t147.5 308t60.5 188.5q0 47 -27.5 73t-66 30t-78.5 0t-68 -12t-30 -11q23 -38 23 -84q0 -82 -48.5 -218.5t-117 -283t-137.5 -291t-117.5 -275t-48.5 -202.5q0 -68 26 -110.5t84 -42.5q8 0 12 6q5 5 5 10zM59 39
q-48 0 -76 -41t-11 -82t77 -41q39 0 58.5 41t6 82t-54.5 41z" />
    <glyph glyph-name="quotedbl" unicode="&#x22;" horiz-adv-x="501" 
d="M387 1280h-2q-19 -4 -29 13t2 32q85 108 125 217q0 1 1 2t1 2q4 15 23 19q28 4 59 4q16 0 30 -2.5t20 -4.5l6 -3q-49 -130 -236 -279zM588 1280h-2q-20 -4 -30 13t1 32q84 107 127 217v4q8 16 23 19q32 4 59 4q29 0 40 -10.5t1 -36.5q-15 -41 -69.5 -101.5t-101.5 -100.5
z" />
    <glyph glyph-name="numbersign" unicode="#" horiz-adv-x="970" 
d="M926 750q20 0 34.5 -14t14.5 -34q0 -21 -14 -35t-35 -14h-115q-7 -14 -57 -111t-74 -149h104q20 0 35 -14.5t15 -34.5t-15 -34.5t-35 -14.5h-149q-55 -137 -55 -213q0 -3 -5 -8q-4 -4 -10 -4q-42 0 -63 32.5t-21 81.5q0 37 19 111h-252q-58 -144 -58 -213q0 -6 -2 -8
q-4 -4 -10 -4q-43 0 -63.5 32t-20.5 82q0 49 19 111h-60q-20 0 -34.5 14.5t-14.5 34.5t14.5 34.5t34.5 14.5h97q18 42 58 129.5t58 130.5h-73q-21 0 -34.5 13.5t-13.5 35.5q0 20 14 34t34 14h110q25 88 25 143q0 39 -15 63q1 2 22 7.5t50.5 9t59 0.5t50.5 -22t21 -54
q0 -48 -47 -147h221q25 77 25 143q0 39 -15 63q1 2 22 7.5t50.5 9t59 0.5t50.5 -22t21 -54q0 -45 -45 -147h68zM537 393q18 42 59 129t59 131h-231q-17 -34 -63 -123t-70 -137h246z" />
    <glyph glyph-name="dollar" unicode="$" horiz-adv-x="919" 
d="M889 1374q153 -57 153 -295q0 -103 -54.5 -176.5t-151.5 -73.5q-32 0 -57 10.5t-25 34.5q0 17 14 31q118 77 142 199q18 92 -25 153q-30 43 -76 43q-67 0 -119.5 -41t-83 -109.5t-46 -149t-15.5 -166.5q0 -100 19.5 -193t39 -168.5t19.5 -132.5q0 -61 -29 -111
q-46 -88 -174 -116q-58 -154 -58 -244l-6 -12q-4 -7 -14 -7q-66 0 -98.5 51.5t-32.5 131.5q0 22 12 96q-79 28 -126.5 86.5t-47.5 146.5q0 24 4 60q11 53 59 158t48 159q0 9 -1 20.5t-1 14.5q0 25 28 25q57 0 105 -64q39 -51 39 -100q0 -35 -19 -77t-41.5 -75t-41.5 -77
t-19 -82q0 -62 51.5 -107t106.5 -45q112 0 112 164q0 95 -44 280.5t-44 214.5q0 110 22 202t60.5 156t85 107.5t100.5 67.5q21 93 21 158q0 54 -18 86q1 3 28.5 10.5t67.5 11.5t79.5 -0.5t67 -30.5t27.5 -73q0 -44 -43 -152z" />
    <glyph glyph-name="percent" unicode="%" horiz-adv-x="1288" 
d="M410 12q0 59 66 187t161 273.5t189.5 287.5t160.5 256t66 153q0 35 -20.5 54.5t-50 22t-59.5 -0.5t-50.5 -8.5t-22.5 -7.5q14 -22 14 -64q0 -61 -57 -174t-138 -236.5t-161.5 -246.5t-137.5 -230.5t-57 -162.5q0 -50 20.5 -82.5t63.5 -32.5q9 0 11 4q2 2 2 8zM381 649
q82 0 154 97q70 95 79 207q11 126 -71 176q-43 26 -107 26q-48 0 -105 -50.5t-96.5 -127.5t-39.5 -146q0 -45 21 -82t52 -57.5t60.5 -31.5t52.5 -11zM547 973q0 -88 -58 -169t-106 -81q-53 0 -43 91t63 181q46 77 86 78q26 0 42 -28t16 -72zM938 92q82 0 153 97
q70 95 79 207q11 126 -71 176q-42 26 -106 26q-49 0 -106 -50.5t-96 -127t-39 -144.5q0 -46 20.5 -83.5t51.5 -58t60.5 -31.5t53.5 -11zM1104 418q0 -60 -29 -120.5t-67.5 -96t-69.5 -35.5q-52 0 -42 90q10 91 63 181q47 79 88 79q25 0 41 -27.5t16 -70.5z" />
    <glyph glyph-name="ampersand" unicode="&#x26;" horiz-adv-x="1398" 
d="M1526 1212q16 -6 32.5 -22t12.5 -33q-32 -101 -74.5 -178.5t-92.5 -127.5t-98 -81t-106 -55q76 -111 76 -244q0 -95 -34.5 -187t-96 -166.5t-158.5 -120.5t-211 -46q-133 0 -241.5 39.5t-177.5 105t-107 151.5t-40.5 178.5t31.5 187.5t100 176.5t174.5 147t244.5 97.5
q2 0 2 2q-58 73 -69.5 158.5t21 161t91 138t143 99.5t174.5 37q107 0 174 -55.5t78 -135t-8 -159t-81.5 -135t-145.5 -55.5q-28 0 -44.5 18t-20 35t-3.5 35q0 10 1 11t6 -1q20 -8 44 -8q115 0 162 90t-7 180t-183 90q-75 0 -132 -31.5t-86.5 -80.5t-35.5 -110.5t13.5 -119.5
t69 -110t121.5 -80q15 -6 24 -22t9 -34q0 -47 -65 -47q-269 0 -432 -159q-122 -119 -144 -283q-21 -155 58 -267q90 -128 268 -133h12q111 0 207.5 55.5t152.5 147t56 193.5q0 71 -45 170q-9 25 -34.5 37t-53.5 4q-45 -13 -92 -34.5t-95.5 -57.5t-84.5 -79t-54.5 -101.5
t-9.5 -121.5q-6 -3 -44.5 -0.5t-76 54t-25.5 129.5q12 76 44.5 129.5t78.5 83.5t103.5 49t122.5 33t131 29t133 43t126 69t111.5 113t87.5 170q2 7 2 17.5t2 15t9 1.5z" />
    <glyph glyph-name="quotesingle" unicode="'" horiz-adv-x="303" 
d="M387 1280h-2q-19 -4 -29 13t2 32q85 108 125 217q0 1 1 2t1 2q4 15 23 19q28 4 59 4q29 0 40 -10.5t1 -36.5q-15 -41 -70 -101.5t-103 -100.5z" />
    <glyph glyph-name="parenleft" unicode="(" horiz-adv-x="700" 
d="M977 1579q26 44 -14 57q-10 4 -33 4q-90 0 -186 -50t-181.5 -134.5t-163 -195t-138.5 -234t-101 -248.5q-51 -160 -66.5 -313t6.5 -277t95.5 -200t191.5 -76q17 0 29 12q15 9 18 29q9 24 -2 35q-7 7 -10 8h-8q-32 3 -61.5 37t-50 101.5t-26 157.5t13.5 217.5t64 268.5
q66 205 158.5 372t214 283.5t250.5 145.5z" />
    <glyph glyph-name="parenright" unicode=")" horiz-adv-x="698" 
d="M502 1579q0 17 14.5 33.5t42.5 23.5q8 4 35 4q112 0 175 -76t73 -199.5t-18 -276t-91 -310.5q-64 -160 -160 -313t-209 -277t-242 -200t-247 -76q-15 0 -18 12q-4 11 2 29q10 26 28 35l15 8h10q34 3 88 37.5t123 102.5t139.5 157.5t143.5 217t129 267.5q61 153 93.5 286
t34 241.5t-39 180t-121.5 93.5z" />
    <glyph glyph-name="asterisk" unicode="*" horiz-adv-x="645" 
d="M864 1341q6 -15 -0.5 -30t-21.5 -19l-111 -43l72 -43q14 -9 17.5 -24t-5.5 -29q-9 -18 -33 -18q-8 0 -20 4l-78 47q-45 -108 -51 -144q0 -4 -17 -4q-31 0 -48 11t-19.5 32.5t2 45.5t16.5 59l-73 -29q-8 -4 -15 -4q-27 0 -37 27q-6 13 1 28t22 21l92 35l-72 43
q-14 9 -17.5 24t5.5 29q7 13 23.5 17.5t29.5 -3.5l86 -53q22 92 4 141q2 2 19.5 8t41.5 9.5t46 0.5t34.5 -22.5t6.5 -54.5q-4 -18 -19 -66l68 27q15 6 30 -1t21 -22z" />
    <glyph glyph-name="plus" unicode="+" horiz-adv-x="696" 
d="M666 823q25 0 41 -17t16 -42t-16 -42t-41 -17h-166q-2 -6 -18 -64.5t-25 -87.5q-19 -89 -68 -115q-24 -11 -39.5 -12t-23.5 11t-11 26.5t-1.5 34.5t4.5 35t6 28l36 144h-143q-25 0 -42 17t-17 42t17 42t42 17h176q1 2 2 8t2 9q4 20 15.5 58.5t15.5 57.5q0 3 -1 21.5
t2.5 30.5t14.5 16q20 8 35 8q43 -9 60 -18q6 0 12 -6q9 -8 13.5 -18t2.5 -26.5t-3.5 -23.5t-9 -29.5t-7.5 -23.5q-4 -22 -17 -64h136z" />
    <glyph glyph-name="comma" unicode="," horiz-adv-x="356" 
d="M47 49q-7 -2 -10.5 0.5t-4.5 12t5 28.5q2 5 8.5 23.5t11.5 32.5t12.5 36.5t9.5 36.5t3.5 32t-4.5 23q15 11 45 11q59 5 63 -47q4 -54 -48 -118q-40 -50 -91 -71z" />
    <glyph glyph-name="hyphen" unicode="-" horiz-adv-x="784" 
d="M154 535q-24 0 -42 17.5t-18 41.5t18 40.5t42 16.5h536q24 0 42 -16.5t18 -40.5t-18 -41.5t-42 -17.5h-536z" />
    <glyph glyph-name="period" unicode="." horiz-adv-x="364" 
d="M137 285q-43 0 -68 -37t-10.5 -74t68.5 -37q36 0 54 37t6 74t-50 37z" />
    <glyph glyph-name="slash" unicode="/" horiz-adv-x="512" 
d="M135 -80q-42 0 -70 26.5t-37.5 82.5t15.5 145q26 92 105 265t163 347.5t161 348t111.5 307.5t2.5 184q1 2 16 7.5t41.5 10.5t52.5 5q113 0 113 -88q0 -74 -68 -246t-165.5 -374t-195 -403t-165.5 -368.5t-68 -235.5q0 -14 -12 -14z" />
    <glyph glyph-name="zero" unicode="0" horiz-adv-x="983" 
d="M791 1405q46 0 87.5 -14t80.5 -48t65 -85t38 -131t3 -181q-4 -45 -18.5 -111t-42 -149t-65 -167.5t-90 -165t-113 -143t-138.5 -100.5t-162 -38q-78 0 -143 42t-105 109.5t-60.5 149t-16.5 162.5q9 180 59 330t121.5 248t160 165.5t174 97t165.5 29.5zM475 170
q133 0 264 193q120 179 184 429q63 250 24 396q-32 121 -130 121q-151 0 -289 -194q-123 -175 -184 -420q-59 -241 -18 -391q38 -134 149 -134z" />
    <glyph glyph-name="one" unicode="1" horiz-adv-x="538" 
d="M690 1409q27 0 46.5 -6.5t29 -20.5t14.5 -28.5t1 -38.5t-8 -43t-16 -49.5t-20 -49.5t-22 -51q-38 -84 -168 -339t-205.5 -432.5t-75.5 -264.5q0 -6 -4 -10t-10 -4q-51 0 -74.5 37t-23.5 96q0 68 51 201t115.5 262.5t132 282.5t92.5 245q2 10 -9 8q-2 0 -64 -26
q-70 -29 -122 -29q-55 0 -58 38q-3 33 30 59q20 16 43 16q46 0 113 34.5t127.5 71.5t84.5 41z" />
    <glyph glyph-name="two" unicode="2" horiz-adv-x="970" 
d="M721 461q45 0 90.5 -52t34.5 -122q-8 -45 -41 -93.5t-94 -86t-131 -37.5q-72 0 -128 12t-89.5 29.5t-60.5 35t-56 29.5t-60 12q-51 0 -124.5 -33.5t-86.5 -33.5q-34 0 -47 29q-9 16 -6 32q6 32 35 51q277 178 426 297q389 311 430 568q15 94 -19 159.5t-114 65.5
q-100 0 -191.5 -65t-150.5 -160q-39 -66 -53 -137q-12 -80 19.5 -134.5t80.5 -54.5q83 0 131.5 67.5t38.5 198.5q0 4 1 11t1 10l2 4q3 12 19 12q26 0 47 -35l4 -6q27 -48 18 -119q-15 -92 -91 -156.5t-161 -64.5q-57 0 -102.5 35t-67.5 107q-17 62 -8 133q17 99 85.5 196.5
t162.5 161.5q119 82 244 82q60 0 115 -22.5t96.5 -64t60.5 -107.5t6 -146q-42 -260 -415 -581q-109 -94 -279 -213l-4 -3q80 -96 168 -96q81 0 147.5 65t81.5 158q2 16 2 37q6 25 33 25z" />
    <glyph glyph-name="three" unicode="3" horiz-adv-x="827" 
d="M983 1069q-14 -78 -59 -160t-102 -144.5t-112.5 -109t-97.5 -67.5q2 -1 5 -2t12.5 -6.5t16.5 -13t16.5 -21t13 -30.5t6.5 -42t-4 -55q-15 -82 -60 -149.5t-105.5 -109.5t-127 -64.5t-129.5 -22.5q-126 0 -205.5 68.5t-58.5 185.5q16 95 80.5 170t148.5 75q55 0 45 -45
q-6 -42 -78 -77q-24 -11 -48 -51.5t-31 -88.5q-18 -98 56 -142q67 -41 161 -12q105 32 161 131q27 47 37 105q12 66 -9.5 105t-61.5 41q-16 0 -26 14t-7 35q5 23 14 35q2 2 30.5 18t63 37.5t79.5 62t83.5 88.5t71.5 119.5t47 151.5q18 94 -14 159.5t-113 65.5
q-100 0 -193 -65t-153 -160q-41 -65 -55 -137q-14 -80 16 -134.5t80 -54.5q64 0 110 41t60 121q4 21 5 49t0 46l-1 18q4 8 4 12v4q6 12 18 12q30 0 48 -35q4 -4 4 -6q27 -50 16 -119q-17 -92 -94 -156.5t-162 -64.5q-57 0 -101 35t-65 107q-18 65 -6 133q18 99 88 196.5
t166 161.5q119 82 244 82q61 0 115.5 -22.5t95 -64t58 -107.5t3.5 -146z" />
    <glyph glyph-name="four" unicode="4" horiz-adv-x="768" 
d="M1008 1319q1 -45 -50 -166t-124 -269.5t-146 -301t-124 -290t-50 -206.5q0 -6 -4 -10q-2 -2 -4 -2q-2 -2 -6 -2q-59 0 -82 51q-12 21 -15 47q-4 20 -4 35q-2 104 127 391q-27 9 -159 45q-53 9 -76 5t-49 -14.5t-41 -10.5q-52 0 -77.5 36.5t7.5 92.5q2 3 22 25.5t38 50.5
t66.5 125.5t113.5 248.5q15 35 24 66.5t11 52t1.5 37.5t-3 27t-3 16.5t2.5 9t12 2.5q51 0 90 -23.5t39 -66.5q1 -52 -23.5 -130.5t-60.5 -154t-72.5 -143.5t-62.5 -110l-25 -42q0 -4 107 -30.5t153 -36.5q11 23 43 93.5t46.5 103.5t42 96t41 102t29 88t22 87t6.5 69
q-3 44 -19 76q0 3 26.5 9.5t62.5 10.5t73 -2q74 -18 74 -88z" />
    <glyph glyph-name="five" unicode="5" horiz-adv-x="864" 
d="M1092 1282q6 -19 -2.5 -37.5t-28.5 -25.5q-25 -10 -37.5 -3.5t-17 22.5t-20 31t-47.5 21.5t-99 -6.5q-46 -8 -94.5 -6.5t-85.5 6.5l-37 6q-89 -253 -183 -422q45 23 92 23q143 0 202 -123q56 -115 18 -278q-41 -171 -161 -288q-128 -122 -300 -130h-21q-141 6 -213 81.5
t-67 180.5q3 77 51 147q56 90 147 90q27 0 40.5 -12t11.5 -33q0 -41 -68 -77q-21 -9 -42 -53.5t-24 -90.5q-3 -59 31 -97t117 -38q69 0 129 31.5t101 81.5t71 114t45.5 128t17.5 124q5 77 -21 124.5t-81 47.5t-129 -45q-51 -33 -88 -37.5t-53 8t-21 33.5q0 17 4 25
q83 155 127 256q75 167 78 252q3 46 -12 76q2 2 19.5 6.5t48.5 9.5t57 4q46 0 80.5 -13t62 -20t135.5 2q8 1 33 4.5t35 4.5t33 2.5t34.5 -0.5t31 -5.5t31 -12t26 -20t25 -29t18.5 -40.5z" />
    <glyph glyph-name="six" unicode="6" horiz-adv-x="813" 
d="M922 1350q-3 -18 -18 -28.5t-34 -8.5h-6q-54 7 -115 -17t-116 -69t-107.5 -104.5t-93 -122t-67.5 -121.5t-35 -103q5 27 85.5 68t159.5 41q89 0 143.5 -44t66.5 -114t-1 -156q-15 -86 -57.5 -174.5t-101 -161t-136 -118t-155.5 -45.5t-135 22t-89.5 61t-50.5 92.5
t-16.5 116.5t12.5 134q21 119 69.5 245t123 245.5t163.5 213.5t200 151.5t225 57.5q15 0 43 -4h6zM549 803q-127 0 -236 -135q-95 -117 -125 -265q-31 -150 29 -223q39 -47 111 -47q118 0 217 141q87 123 112 278q25 152 -31 217q-30 34 -77 34z" />
    <glyph glyph-name="seven" unicode="7" horiz-adv-x="843" 
d="M928 860q-39 -59 -96 -79t-138 -15q-87 -129 -137.5 -205.5t-114.5 -180t-98.5 -175.5t-42.5 -119q-3 -14 -18 -14q-49 0 -66.5 37t-7.5 96q4 26 15 57t33.5 74t39.5 75t54 91.5t55 87.5t64.5 100t61.5 96q-62 6 -101 -1.5t-64 -41.5q-15 -20 -37 -10q-24 11 -16 37
q3 9 10 18q28 34 69.5 49.5t85 14t92.5 -5.5q199 313 234 432q-72 -10 -119.5 -6.5t-106 12t-73.5 8.5q-35 0 -59.5 -11t-33.5 -24.5t-20 -26t-20.5 -16.5t-34.5 5q-12 6 -18.5 18.5t-4.5 26.5q3 12 15 31t34 42.5t59.5 39.5t80.5 16q35 0 90.5 -11.5t95.5 -11.5
q58 0 140 21.5t110 21.5q48 0 74.5 -24.5t17.5 -69.5q-8 -49 -81 -166t-214 -322q52 1 80.5 16.5t50.5 47.5q13 20 33 18t28 -18t-1 -35z" />
    <glyph glyph-name="eight" unicode="8" horiz-adv-x="817" 
d="M809 1153q0 -44 -10.5 -84.5t-25.5 -71t-39.5 -60t-45 -48.5t-49 -39t-44 -29t-38.5 -21.5t-25 -13.5q12 -19 49.5 -67.5t62.5 -85.5t47 -99.5t22 -127.5q0 -63 -20.5 -121t-59.5 -106.5t-105.5 -77.5t-150.5 -29q-56 0 -113 21t-108.5 62.5t-84 114t-32.5 164.5
q0 49 11 94t30.5 80.5t43 67t53 56.5t55.5 44t55 34.5t47.5 24.5t37 17t19.5 8q0 4 -14.5 38.5t-27.5 86.5t-13 102q0 72 29.5 145t90 125t136.5 52q99 0 158 -68.5t59 -187.5zM590 1339q-65 0 -114.5 -60.5t-57 -158.5t50.5 -223q19 8 54.5 38t74.5 73.5t66 101.5t24 109
t-28 85.5t-70 34.5zM596 444q-4 64 -40 141.5t-68.5 124t-38.5 46.5q-10 -4 -26 -12.5t-58.5 -38t-75.5 -63.5t-62.5 -89.5t-33.5 -116.5q-14 -182 77 -263q66 -59 154 -36q87 22 136 111q44 83 36 196z" />
    <glyph glyph-name="nine" unicode="9" horiz-adv-x="815" 
d="M649 1411q77 0 134 -22t89.5 -61t50.5 -92.5t16 -116.5t-13 -134q-21 -118 -68.5 -243.5t-120.5 -244t-161 -212.5t-198 -152.5t-222 -60.5h-9q-20 2 -33 16.5t-12 34.5q3 38 41 45h11q77 4 164.5 65.5t155.5 145.5t117 173.5t60 152.5q-5 -27 -85 -67t-160 -40
q-88 0 -141.5 44t-68 113t0.5 156q21 117 85 230.5t163.5 191.5t203.5 78zM432 680q127 0 237 135q94 117 125 265q31 150 -29 223q-39 47 -112 47q-118 0 -217 -141q-86 -123 -111 -278q-25 -152 30 -217q30 -34 77 -34z" />
    <glyph glyph-name="colon" unicode=":" horiz-adv-x="258" 
d="M260 874q-36 0 -57 -30.5t-8.5 -61t57.5 -30.5q29 0 44 30.5t5 61t-41 30.5zM104 500q-36 0 -57 -31t-8.5 -61.5t57.5 -30.5q29 0 44 30.5t5 61.5t-41 31z" />
    <glyph glyph-name="semicolon" unicode=";" horiz-adv-x="274" 
d="M276 874q-37 0 -58.5 -30.5t-9 -61t57.5 -30.5q30 0 44.5 30.5t5 61t-39.5 30.5zM49 313q73 30 107 91q30 55 0 82q-18 17 -58 14l-45 -11q20 -35 -14 -135q-6 -19 -5 -28.5t4.5 -12t10.5 -0.5z" />
    <glyph glyph-name="less" unicode="&#x3c;" horiz-adv-x="792" 
d="M74 541q0 22 86 85.5t190.5 131t197.5 143.5t105 119q40 45 107 45q52 0 98.5 -26t46.5 -48q0 -24 -104.5 -99.5t-230 -152.5t-230 -143t-104.5 -74q0 -12 59 -66.5t130 -112.5t129 -108.5t56 -56.5q-14 -36 -49 -51q-39 -16 -59 4q-28 25 -95.5 83t-116.5 101t-103 92.5
t-83.5 82.5t-29.5 45v6z" />
    <glyph glyph-name="equal" unicode="=" horiz-adv-x="620" 
d="M641 827q20 0 33.5 14.5t13.5 35.5q0 20 -13.5 34.5t-33.5 14.5h-395q-20 0 -34.5 -14.5t-14.5 -34.5t14.5 -35t34.5 -15h395zM541 555q20 0 34.5 14.5t14.5 34.5t-14.5 34.5t-34.5 14.5h-394q-20 0 -34.5 -14.5t-14.5 -34.5t14.5 -34.5t34.5 -14.5h394z" />
    <glyph glyph-name="greater" unicode="&#x3e;" horiz-adv-x="792" 
d="M778 645q0 -19 -56.5 -63t-138.5 -98.5t-165.5 -111.5t-146.5 -113.5t-72 -92.5q-42 -45 -107 -45q-53 0 -99 26.5t-46 49.5q0 24 104 99.5t229.5 152.5t229.5 143t104 74q0 12 -59 65.5t-129.5 112t-128 108.5t-55.5 56q14 36 49 51t59 -2q26 -24 158 -138.5t200 -181
t68 -86.5q2 -2 2 -6z" />
    <glyph glyph-name="question" unicode="?" horiz-adv-x="948" 
d="M815 1630q137 0 229.5 -101.5t92.5 -260.5q0 -73 -32.5 -159.5t-85 -170t-115.5 -171.5t-126 -174.5t-115.5 -167.5t-85 -162t-32.5 -148q0 -3 -1 -7l-1 -4q-6 -6 -15 -6q-59 0 -84.5 44.5t-25.5 109.5q0 53 28.5 113.5t74.5 120t101 126t110 144.5t101 161.5t74.5 189.5
t28.5 218q0 135 -93 181q-83 41 -193 -6q-117 -50 -185 -168q-62 -105 -62 -236q0 -84 31.5 -134.5t73.5 -50.5q22 0 38 8t26 25.5t16.5 36t9 48t3.5 52.5t1 58v41q4 19 23.5 28t33.5 9q55 0 75 -69q23 -79 -14 -173q-43 -110 -139 -147q-40 -15 -85 -15q-126 0 -176 116
q-48 114 -4 276q47 175 172 293q140 132 327 132zM403 14q41 0 52.5 -41t-10 -82t-60.5 -41q-37 0 -57 19t-19.5 43t6.5 45q11 25 38.5 41t49.5 16z" />
    <glyph glyph-name="at" unicode="@" horiz-adv-x="1173" 
d="M831 1073q83 0 115 -49q4 20 4 27q0 10 -4 22q4 0 15.5 1t19.5 1q98 0 98 -74q0 -23 -41.5 -93t-83 -147.5t-41.5 -117.5q0 -47 56 -47q46 0 100.5 75.5t92.5 193.5t38 227q0 198 -121 273q-105 65 -258 12q-163 -56 -293 -216q-179 -222 -207 -536q-4 -51 -4 -103
q0 -166 78.5 -267t241.5 -101q70 0 137.5 31t113 74.5t73.5 88.5t28 76q0 13 18 23t33 10q17 0 17 -25q0 -27 -17.5 -70t-54.5 -93.5t-85.5 -94.5t-120.5 -73t-150 -29q-130 0 -228.5 36.5t-156.5 102t-86.5 149.5t-28.5 185q0 103 29 215.5t79.5 218t123.5 201.5t157 167.5
t184 113.5t201 42q99 0 173 -32t117 -89t64 -127t21 -153q0 -140 -51.5 -279t-141 -231t-188.5 -92q-104 0 -111 92q-43 -41 -99 -66.5t-105 -25.5q-104 0 -123 96q-18 95 48 225q67 134 174 204q75 48 150 48zM797 672q7 27 20.5 60t24 55.5t31 63.5t28.5 56q-27 -2 -27 4
q35 29 30.5 66t-44.5 37q-95 0 -177 -113q-68 -95 -82 -197q-13 -95 37 -111q9 -3 19 -3q69 0 140 82z" />
    <glyph glyph-name="A" unicode="A" horiz-adv-x="989" 
d="M872 1624q120 0 195 -42.5t100 -118.5t13 -174t-60 -216q-60 -162 -185 -443.5t-200.5 -473.5t-75.5 -277q0 -14 -14 -14q-55 0 -103 45t-48 127q0 42 14 88q54 190 225 582q-35 7 -91.5 24t-98.5 28t-89 18.5t-86.5 -1.5t-68.5 -35q-28 -28 -43 -57q-158 -384 -167 -405
q-133 -303 -223 -381q-39 -33 -75 -33q-20 0 -33.5 13t-13.5 32q0 20 13.5 33.5t33.5 13.5q32 0 71 57t81.5 153.5t91.5 221.5t104.5 263t116 276.5t131.5 263.5t145 221.5t162 153.5t178 57zM328 858q49 12 89 12.5t93 -10t93 -22.5t88.5 -25t80.5 -18q105 236 158 381
t53 235q0 119 -111 119q-62 0 -124 -37t-114.5 -96t-108.5 -150t-101 -181.5t-96 -207.5z" />
    <glyph glyph-name="B" unicode="B" horiz-adv-x="989" 
d="M1217 1350q0 -91 -32 -186.5t-89 -179.5t-146 -145.5t-194 -80.5q51 -77 66 -176t-3 -196.5t-66.5 -192.5t-117.5 -167t-163.5 -116.5t-197.5 -44.5q-78 0 -151 33.5t-120.5 81t-76 97t-28.5 85.5q0 40 26 53q9 6 21 2q16 -4 16 -14q3 -22 25.5 -59.5t57.5 -76
t85.5 -66.5t101.5 -28q93 0 183.5 75.5t147 197.5t56.5 250q0 175 -106 301q-10 5 -10 26q0 17 10.5 30t30.5 13q96 0 181.5 36.5t145 95t103.5 130t65 141.5t21 130q0 61 -23 96t-67 35q-135 0 -289 -215q-102 -142 -229.5 -420t-207 -497.5t-79.5 -258.5q0 -14 -25 -14
q-19 0 -42 10t-46 29.5t-38 55t-15 79.5q0 41 60 197.5t134 330.5t141 364.5t77 287.5q4 24 4 43q0 52 -17 80h2q16 6 65.5 14t90.5 8q117 0 117 -92q0 -41 -23 -125q19 29 74 78q150 139 274 139q108 0 164 -76.5t56 -197.5z" />
    <glyph glyph-name="C" unicode="C" horiz-adv-x="1259" 
d="M997 113q19 19 46 33t49 14q28 0 28 -23q0 -13 -8 -26v-2q-8 -8 -14 -17q-178 -225 -426 -225q-104 0 -202.5 41.5t-174.5 113t-122 175.5t-46 221v22q0 138 44.5 285t119.5 276t175.5 245t209.5 199.5t224.5 132t217.5 48.5q89 0 156.5 -34t105.5 -90.5t57.5 -129
t18 -149t-19.5 -152.5q-26 -107 -84 -189.5t-119 -68.5q-38 9 -23 39q4 7 19.5 22.5t32.5 34t38.5 63.5t36.5 107q18 73 17.5 145t-19.5 135t-67 102.5t-119 39.5q-83 0 -176.5 -54.5t-178 -143.5t-162.5 -206.5t-134.5 -240t-90.5 -248t-34 -227.5v-12q0 -201 88 -311.5
t221 -110.5q75 0 153.5 38t147.5 111q6 9 14 17z" />
    <glyph glyph-name="D" unicode="D" horiz-adv-x="1427" 
d="M1042 1624q65 0 127 -20.5t116.5 -64t95.5 -105t65 -148.5t24 -190q0 -65 -12 -143t-37.5 -166.5t-62 -179.5t-89.5 -182t-116 -173t-144.5 -153t-172 -123t-202 -81.5t-231.5 -29.5q-108 0 -196.5 26t-141 63t-88.5 81.5t-49.5 78.5t-13.5 56q0 25 12.5 36t28.5 11
q23 0 33.5 -13t16.5 -38.5t9 -32.5q5 -12 13.5 -26t31 -39.5t51 -45t75.5 -34.5t102 -15q314 0 562 266q195 208 299 519q92 273 72 492q-19 202 -129 260q-38 20 -85 20q-115 0 -252 -166.5t-285 -486.5v-3q-4 -4 -72.5 -158.5t-139.5 -338.5t-71 -238q0 -14 -18 -14
q-81 22 -114.5 60t-33.5 114q0 41 40 154t97.5 256.5t115 293.5t98 292.5t41.5 226.5q0 25 -5.5 49.5t-9.5 30.5q3 1 13 3t22 4.5t23 4.5q72 10 123 10q114 0 114 -92q0 -46 -18 -117h2q188 209 366 209z" />
    <glyph glyph-name="E" unicode="E" horiz-adv-x="1150" 
d="M936 1612q89 0 162 -34t117 -90.5t72.5 -129t29.5 -149.5t-14 -152q-26 -107 -84 -189.5t-119 -68.5q-38 9 -23 39q4 7 19.5 22.5t32.5 34t38.5 63.5t36.5 107q11 45 11.5 93.5t-8.5 95.5t-30 88.5t-50.5 73.5t-73.5 50.5t-97 18.5q-95 0 -187.5 -57t-159.5 -147
t-108.5 -205t-41.5 -226q0 -216 174 -299q20 -8 31 -19q18 -16 14.5 -29.5t-23.5 -23.5q-19 -10 -41.5 -12.5t-64.5 0t-60 2.5q-93 0 -156 -76t-63 -174q0 -108 66.5 -185t191.5 -77q95 0 168.5 36.5t147.5 108.5q48 48 94 48q29 0 29 -23t-36.5 -71.5t-94.5 -90.5
q-143 -108 -355 -108q-78 0 -151.5 24.5t-132 69.5t-94 114.5t-35.5 153.5q0 71 30 136.5t75.5 110.5t96.5 74t97 35q-69 46 -110.5 120t-41.5 163q0 79 25 166.5t69.5 171t110.5 159t144 133t174.5 91t197.5 33.5z" />
    <glyph glyph-name="F" unicode="F" horiz-adv-x="987" 
d="M1229 1804q82 0 117 -76q35 -75 3 -167q-37 -102 -135 -144q-55 -24 -122 -24q-99 0 -355 41q-7 -34 -21.5 -79t-27.5 -82t-41 -104t-43 -102t-53 -122.5t-53 -121.5q-3 -13 0 -22q8 -13 18 -15q87 -22 154 -16q30 3 49.5 22.5t27 41.5t20.5 41.5t32 21.5q32 2 49 -53
q21 -68 2 -130q-23 -74 -89 -58l-22 8q-48 22 -101.5 36.5t-86.5 19t-92 11.5q-81 -186 -119 -275t-94 -228t-79.5 -221t-23.5 -128q0 -14 -14 -14q-44 0 -83 27t-60.5 84.5t4.5 148.5q28 98 113 299t165.5 383t147.5 375.5t71 296.5q-78 12 -104 12q-31 0 -52 35
q-21 36 0 56q13 11 38 11q51 0 126.5 -7.5t143 -17.5t146 -16.5t142.5 -7.5t124.5 12.5t100.5 40.5t61.5 79.5t15.5 127.5z" />
    <glyph glyph-name="G" unicode="G" horiz-adv-x="1370" 
d="M1217 1622q78 -7 140 -42t100.5 -89.5t58.5 -120.5t20 -139q0 -79 -22 -158t-55 -136t-73 -92.5t-75 -35.5q-15 0 -29 7.5t-14 19.5q0 6 4 14q3 6 28 32.5t53 75t46 119.5q22 78 19 152.5t-23.5 133t-68.5 96t-116 40.5q-98 0 -204 -54.5t-199 -143.5t-178 -206
t-145.5 -240.5t-96 -248.5t-35.5 -227v-12q0 -201 88.5 -311.5t221.5 -110.5q100 0 200 65t180 189q26 55 31 67q2 13 -1 23t-11 15.5t-17.5 9t-24 3.5t-26.5 -0.5t-28.5 -3.5t-26.5 -5l-25 -5l-20 -4q-39 -8 -81 21q-33 23 -19 35q2 2 6 3q27 10 122.5 18.5t182.5 8.5
q76 0 108 -43q17 -24 17 -55q0 -54 -44 -143t-88 -168.5t-44 -110.5q0 -24 16 -51.5t16 -49.5q0 -14 -9.5 -23t-26.5 -9q-59 0 -111 94q-18 30 -18 74q0 25 6 49q-130 -84 -275 -84q-104 0 -202.5 41.5t-174.5 113t-122 175.5t-46 221v22q0 129 44 269.5t119 270.5
t181 248.5t224.5 205.5t254.5 138.5t267 51.5h21z" />
    <glyph glyph-name="H" unicode="H" horiz-adv-x="1267" 
d="M1401 1624q117 0 117 -92q0 -74 -62 -249t-151 -380t-177.5 -409.5t-150.5 -375t-62 -239.5q0 -14 -14 -14q-44 0 -83 27t-60.5 84.5t4.5 148.5q11 38 27 83.5t43.5 114t43.5 108.5t57 136.5t54 128.5q-54 -3 -140 18.5t-155.5 43.5t-146.5 22.5t-125 -37.5l-10 -10
q-85 -196 -120 -277t-93 -225t-81.5 -225t-23.5 -127q0 -14 -14 -14q-43 0 -82 27t-61 84.5t4 148.5q30 104 128.5 350t183 455.5t135 409t11.5 262.5q1 1 28.5 6.5t72.5 10.5t82 5q114 0 114 -92q0 -138 -231 -672q55 14 125.5 8t130.5 -23t124.5 -32.5t106.5 -21t78 11.5
v2h2l2 2l2 2q40 95 70 172t61.5 162.5t50.5 153t32 129t11.5 106.5t-16.5 70q0 1 26.5 6.5t65.5 10.5t66 5z" />
    <glyph glyph-name="I" unicode="I" horiz-adv-x="423" 
d="M78 -135q-43 0 -82 27t-61 84.5t4 148.5q30 104 128.5 350t183 455.5t135 409t11.5 262.5q1 1 28.5 6t72.5 9.5t82 4.5q114 0 114 -90q0 -74 -62 -249t-150.5 -380t-177 -409.5t-150.5 -375t-62 -239.5q0 -14 -14 -14z" />
    <glyph glyph-name="J" unicode="J" horiz-adv-x="991" 
d="M1300 1538v-4q-1 -16 -19.5 -31.5t-41.5 -23.5q-13 -5 -19 -10t-10 -15t-9 -32.5t-12.5 -53.5t-24 -88t-39 -127t-62.5 -178.5t-90 -235.5q-28 -69 -50.5 -123t-56.5 -128.5t-64.5 -132t-71.5 -125t-80.5 -117.5t-88 -99t-97 -80t-105 -50t-115.5 -19q-120 0 -196.5 91.5
t-76.5 258.5q0 67 24 142t53 130t53 121.5t24 120.5q0 14 -3 30.5t-3 20.5q0 14 14 22.5t29 8.5q62 0 129 -71t67 -169q0 -40 -50.5 -148t-101 -224.5t-50.5 -175.5q0 -68 65 -68q57 0 136.5 88.5t160 228t161.5 315t145 346.5t107 324.5t50 247.5q-146 25 -207 25
q-126 0 -198 -60.5t-72 -158.5q0 -32 9 -69.5t9 -55.5q0 -53 -47 -53q-60 0 -98.5 52t-38.5 126q0 129 112.5 221t317.5 92q85 0 213 -22q29 -5 108 -22.5t121 -20.5q18 -3 37 -3h29q24 0 24 -18z" />
    <glyph glyph-name="K" unicode="K" horiz-adv-x="1021" 
d="M1225 1624q41 0 77.5 -10t36.5 -27q0 -10 -12 -20q-38 -31 -92.5 -111t-107.5 -172.5t-121.5 -195.5t-134.5 -185t-147 -136t-159 -54q5 -1 14.5 -2.5t34.5 -11.5t46 -24t43 -42t32.5 -64t7.5 -92t-26 -123q-47 -139 -63 -223t-3.5 -138.5t58.5 -82.5q13 -14 2 -29.5
t-39 -15.5q-44 0 -87 20t-77 58t-45 92.5t10 124.5q75 235 87 321q21 148 -65 175q-21 6 -49 6q-51 0 -100 -21q-92 -215 -139 -328t-92 -245.5t-45 -188.5q0 -14 -15 -14q-43 0 -82 27t-61 84.5t4 148.5q16 55 47 137.5t67.5 170t80.5 191t85 201.5t80.5 201t68.5 189.5
t48.5 166.5t20 132.5t-16.5 87.5q1 1 28 6.5t66 10.5t66 5q115 0 115 -92q0 -85 -68.5 -271t-193.5 -475q43 0 75.5 5t75.5 23.5t81 51.5t85 91t94 140t103.5 201.5t117.5 272.5q9 26 68.5 39.5t114.5 13.5z" />
    <glyph glyph-name="L" unicode="L" horiz-adv-x="868" 
d="M600 205q76 10 115 -57q40 -65 16 -150q-28 -100 -128 -146q-38 -17 -85 -24q-93 -12 -157 -2t-119.5 32t-93.5 44.5t-80.5 36.5t-79.5 8q-16 -2 -34.5 -6.5t-29.5 -6.5q-53 -7 -68 24q-13 29 22 56q20 15 50 23q17 51 158 417.5t235.5 657t94.5 412.5q0 50 -19 78
q2 2 23.5 7t60.5 10t74 5q50 0 83.5 -21t33.5 -71q0 -94 -90.5 -355t-251.5 -669.5t-201 -515.5q18 -9 39 -23q67 -44 146 -55t143 10t101.5 77.5t25.5 135.5q-1 10 -5 22.5t-4 14.5q-3 13 5 21q12 8 20 10z" />
    <glyph glyph-name="M" unicode="M" horiz-adv-x="1837" 
d="M1991 1296q0 -132 -58 -276q-24 -56 -68 -159q-224 -524 -286.5 -681t-62.5 -211q0 -28 24 -59q8 -11 8 -21q0 -24 -57 -24q-40 0 -71 14t-48 34t-27.5 46t-14 46.5t-3.5 39.5q0 52 49 186t130 323t93 220q51 127 82 209.5t63 180.5t41 157.5t7.5 113.5t-29 78.5
t-77.5 24.5q-67 0 -146.5 -75t-153.5 -195t-148 -266.5t-134.5 -293.5t-108 -272t-74 -205t-26.5 -90q0 -14 -27 -14q-45 0 -93 45.5t-48 128.5q0 15 2 23q3 36 62 183t127.5 308.5t125 333.5t56.5 254q0 135 -109 135q-52 0 -104.5 -30.5t-98 -79.5t-95 -127t-89.5 -154.5
t-88.5 -183.5t-84 -191.5t-84.5 -200t-83 -190.5q-1 -5 -29 -72.5t-57.5 -143t-54.5 -160t-25 -126.5q0 -14 -14 -14q-55 0 -103.5 45t-48.5 127q0 34 13 88q28 97 111 309t159 401.5t137.5 388.5t61.5 300q0 52 -17 78q1 1 28.5 6.5t74 10.5t86.5 5q63 0 88.5 -25t25.5 -71
q0 -29 -10 -74q87 97 167.5 133.5t176.5 36.5q74 0 137 -44.5t93 -115.5q28 -63 32 -155q37 50 83.5 100.5t104.5 101t122 82t118 31.5q129 0 198 -92.5t69 -235.5z" />
    <glyph glyph-name="N" unicode="N" horiz-adv-x="1189" 
d="M1040 1622q89 0 154 -36.5t98 -98t43.5 -140t-5 -166t-52.5 -173.5q-46 -108 -127 -297q-184 -429 -242.5 -593t-25.5 -208q8 -16 8 -21q0 -24 -49 -24q-76 0 -120 42t-50 107q0 71 37.5 186.5t90.5 236.5t138.5 331t153.5 406q21 59 32.5 117.5t11.5 116t-27 93
t-81 35.5q-218 0 -498 -522q-45 -108 -139.5 -327.5t-149 -348t-101 -265.5t-46.5 -194q0 -14 -14 -14q-57 0 -104.5 45t-47.5 127q0 70 76 276.5t167 423t167 446.5t76 341q0 52 -17 78q1 1 28.5 6.5t73 10.5t83.5 5q114 0 114 -92q0 -47 -26 -143q223 233 370 233z" />
    <glyph glyph-name="O" unicode="O" horiz-adv-x="1343" 
d="M1026 1624q227 0 317 -217q83 -203 29 -529q-51 -312 -201 -582q-150 -272 -335 -376q-97 -55 -195 -55q-305 0 -431 225q-108 194 -60 502q45 290 206 555q160 263 368 388q150 89 302 89zM651 -55q160 0 319 223q149 210 238 522q91 314 65 540q-25 225 -163 262
q-25 7 -53 7q-159 0 -331 -209q-162 -198 -267 -490q-110 -307 -92 -538q19 -243 181 -301q46 -16 103 -16z" />
    <glyph glyph-name="P" unicode="P" horiz-adv-x="1187" 
d="M80 -135q-57 0 -104.5 45t-47.5 127q0 70 76 276.5t167 423t167 446.5t76 341q0 52 -17 78q1 1 28.5 6.5t73 10.5t83.5 5q62 -1 88 -26t26 -72q0 -50 -28 -146q0 -8 4 -8q9 0 50.5 39.5t91 86.5t120 86.5t131.5 39.5q144 0 218.5 -92.5t74.5 -237.5q0 -111 -38 -224
t-107.5 -210t-159.5 -173.5t-202.5 -120.5t-227.5 -44q-96 0 -149.5 38.5t-53.5 88.5q0 27 20 27q15 0 56.5 -22.5t81.5 -22.5q80 0 167 52t160 136.5t132 184.5t92.5 203.5t33.5 185.5q0 145 -104 145q-86 0 -185.5 -85t-190.5 -221.5t-180.5 -305t-162 -340t-128.5 -321
t-87 -253.5t-31 -133v-4q-3 -10 -14 -10z" />
    <glyph glyph-name="Q" unicode="Q" horiz-adv-x="1351" 
d="M1026 1624q227 0 317 -217q83 -203 29 -529q-51 -312 -201 -582q-150 -272 -335 -376q-97 -55 -195 -55q-305 0 -431 225q-108 194 -60 502q45 290 206 555q160 263 368 388q150 89 302 89zM651 -55q160 0 319 223q149 210 238 522q91 314 65 540q-25 225 -163 262
q-25 7 -53 7q-159 0 -331 -209q-162 -198 -267 -490q-110 -307 -92 -538q19 -243 181 -301q46 -16 103 -16zM1057 -135q55 0 78 -70q27 -83 -8 -184q-43 -124 -154 -175q-62 -28 -137 -28q-63 0 -120.5 20t-101 51.5t-83.5 70.5t-74.5 77.5t-66.5 70t-66.5 51.5t-67.5 20
q-24 0 -54 -17.5t-55 -17.5q-23 0 -32 16.5t-6 36.5q3 31 42.5 51t98.5 12q52 -8 105.5 -41.5t99.5 -75t93.5 -82t105 -68t116.5 -27.5q111 0 168 61.5t57 173.5q0 27 17.5 50.5t44.5 23.5z" />
    <glyph glyph-name="R" unicode="R" horiz-adv-x="1132" 
d="M1268 1518q65 -86 65 -224q0 -14 -2 -22q-6 -197 -120.5 -380.5t-292.5 -283.5q-79 -43 -156 -63l-23 -6q10 -81 -24 -185q-50 -150 -67.5 -238t-5.5 -143t58 -84q13 -13 2.5 -29t-38.5 -16q-44 0 -87 20t-77 58t-45 92.5t10 124.5q34 109 47 151t30.5 116.5t18.5 117.5
q-30 3 -61 13q-52 17 -78.5 47t-26.5 65q0 27 21 27q16 0 53.5 -21.5t71.5 -23.5h12q57 0 121 28q43 17 90 54q103 75 192 202t138 261q45 121 45 217q0 145 -105 145q-82 0 -172 -74q-112 -89 -236.5 -281t-226 -412t-177.5 -414t-120 -339q-32 -100 -32 -139v-4
q-3 -10 -15 -10q-57 0 -104 45t-47 127q0 58 52.5 202.5t127.5 320.5t150 357t127.5 348.5t52.5 258.5q0 52 -17 78q1 1 28 6.5t66 10.5t66 5q44 0 72 -14q43 -22 43 -84q0 -46 -29 -146q0 -8 4 -8q8 0 38.5 30t82.5 78t98 79q97 65 174 65q153 0 228 -106z" />
    <glyph glyph-name="S" unicode="S" horiz-adv-x="905" 
d="M877 1554q-53 0 -93.5 -24.5t-66 -65.5t-41.5 -101.5t-22.5 -126.5t-6.5 -146q0 -129 26.5 -382.5t26.5 -383.5q0 -104 -28.5 -186t-77.5 -133.5t-112.5 -78t-135.5 -26.5q-70 0 -134 18t-116 53.5t-83 95.5t-31 136q0 67 46 196.5t46 192.5q0 14 -2 30.5t-2 20.5
q1 13 13.5 20t25.5 7q49 0 95 -52.5t46 -123.5q0 -40 -42 -168.5t-42 -202.5q0 -125 110 -125q65 0 109.5 41t65.5 108.5t30 158.5t5.5 186t-12 197.5t-19.5 186t-19 158t-8 107.5q0 244 107 381t296 137q89 0 155.5 -29.5t100 -75t50.5 -100.5t14 -107.5t-17 -94.5t-36 -62
q-43 -37 -89 -21q-28 10 -25 28l1 5q16 16 30 56.5t17 90.5t-7.5 96t-48.5 77.5t-99 31.5z" />
    <glyph glyph-name="T" unicode="T" horiz-adv-x="1269" 
d="M1489 1608q19 10 31 0q4 -4 11.5 -16.5t15 -32t9.5 -40.5t-5.5 -41.5t-30 -35t-63 -20.5t-105.5 1l-230 33q-20 -97 -89 -275t-152 -368.5t-164 -377.5t-135 -339.5t-54 -216.5q0 -14 -14 -14q-44 0 -83 27t-60.5 84.5t4.5 148.5q28 98 110 303.5t159.5 391t141.5 382
t68 299.5q-149 23 -188 23q-58 0 -100 -12t-63.5 -30.5t-34 -36.5t-19.5 -35.5t-11 -20.5q-10 -7 -20 -7q-37 -2 -57 38q-25 50 9 101q60 91 264 95h17q56 0 118 -5.5t139.5 -15.5t117.5 -14q189 -21 269 -17q117 5 194 44z" />
    <glyph glyph-name="U" unicode="U" horiz-adv-x="1198" 
d="M889 -90q8 -11 8 -21q0 -11 -13.5 -17.5t-29.5 -6.5h-6q-47 0 -57 6q-66 20 -96.5 83.5t-8.5 156.5q-234 -244 -381 -244q-143 0 -218 89t-75 239q0 70 17 141.5t37.5 120t54 124t51.5 124.5q106 252 174 475t68 344q0 52 -17 78l37 8q78 12 144 12q57 0 88.5 -20
t31.5 -70q0 -60 -44 -195t-95 -258.5t-100.5 -239.5t-52.5 -124q-2 -5 -36 -88t-45.5 -113t-39.5 -107t-39.5 -121t-23 -101.5t-11.5 -98.5q0 -133 106 -133q70 0 148.5 57t145.5 142t130 190.5t106 196.5t71 166q126 299 197 502t71 317q0 52 -17 78q1 1 33.5 6t77 9.5
t70.5 4.5q56 0 84 -23t28 -75q0 -100 -113 -381.5t-258 -613.5t-188 -468q-2 -6 -8 -24.5t-7.5 -25.5t-5.5 -22.5t-4.5 -23.5t-0.5 -19.5t3 -20t9 -15.5z" />
    <glyph glyph-name="V" unicode="V" horiz-adv-x="1206" 
d="M1563 1616q0 -60 -70 -60q-57 0 -117.5 -58t-118.5 -155.5t-120 -224.5t-127 -267.5t-133.5 -280.5t-145.5 -267t-156.5 -224.5t-173.5 -155.5t-190 -58q-67 0 -112 42.5t-62 110.5t-15.5 148t21.5 162q26 110 91.5 287.5t125.5 325.5t107 310t47 262q0 61 -17 89
q100 22 213 22q44 0 71.5 -24t27.5 -66q0 -74 -47.5 -215t-109.5 -282t-142.5 -333.5t-126.5 -326.5q-68 -200 -85 -281q-31 -147 19 -147q86 0 182 96t185 249t181.5 338.5t183.5 370.5t177 338t176 249t168 96q36 0 64.5 -18.5t28.5 -51.5z" />
    <glyph glyph-name="W" unicode="W" horiz-adv-x="2021" 
d="M2286 1686q36 0 64 -18.5t28 -51.5q0 -60 -70 -60q-58 0 -119 -57q-61 -58 -133 -182.5t-141 -271t-146 -312.5t-160.5 -318.5t-171.5 -276.5t-192.5 -198.5t-210.5 -74.5q-154 0 -230.5 89t-76.5 234q-237 -323 -408 -323q-146 0 -219 91t-73 237q0 66 36 189
t87.5 255.5t108.5 285.5t98 279.5t56 238.5t-16 161q27 9 73 16t103.5 8.5t98.5 -22t41 -72.5q0 -116 -142 -459q-27 -65 -85 -202q-165 -386 -215 -548q-100 -319 16 -363q19 -7 45 -7q83 0 181 100t183 251t165.5 328.5t135.5 333t85.5 264.5t23.5 124q-5 11 13 13
q39 4 91 -28q86 -52 86 -149q0 -64 -110 -329q-138 -333 -169 -416q-140 -378 -69 -463q23 -27 68 -27q77 0 157 59t152 159.5t145.5 230t143 273.5t138 287.5t137 273t133 230t133 159.5t131.5 59z" />
    <glyph glyph-name="X" unicode="X" horiz-adv-x="1210" 
d="M1489 1688q46 0 69 -33t2.5 -66t-79.5 -33q-37 0 -78.5 -15t-80.5 -38.5t-85.5 -64.5t-85.5 -80t-90 -99.5t-89 -108.5t-92 -120.5t-90 -122.5t-92.5 -128t-89.5 -124q-17 -93 -26 -150.5t-17.5 -141.5t-5.5 -136.5t16.5 -112.5t41.5 -93.5t76.5 -56.5t115.5 -23
q12 0 12 -15q0 -20 -36.5 -40.5t-94.5 -20.5q-76 0 -133.5 23t-94.5 63.5t-61 100t-34 126.5t-11 150q-267 -396 -461 -460q-88 -29 -134 15q-17 15 -17 29q0 16 12 29.5t31 13.5q50 0 87 11.5t76 39t87 83.5t108.5 135.5t152.5 202.5q43 59 67 91q7 100 27 255t32.5 266.5
t18.5 231t-11.5 203.5t-60.5 128q51 12 96.5 12.5t89.5 -14t75.5 -45t50.5 -86.5t19 -134q0 -166 -51 -440l1 1l1 1v1l1 1l1 1l1 1v1l1 1l1 1l1 1l1 1v1l1 1l1 1l1 1l1 1v1l1 1l1 1l1 1l1 2q262 335 389 473q275 297 432 298z" />
    <glyph glyph-name="Y" unicode="Y" horiz-adv-x="942" 
d="M713 246q-61 -118 -86 -157q-172 -265 -461 -265q-125 0 -199.5 93t-56.5 263q5 54 26 112.5t42.5 100.5t39 96t17.5 101q0 14 -3 31t-3 20q0 14 14 22.5t29 8.5q54 0 105.5 -59.5t51.5 -143.5q0 -49 -19.5 -111.5t-45.5 -115t-48 -108t-30 -96.5t12.5 -73t75.5 -45
q48 -9 111 33t123 133q35 57 70.5 137.5t94.5 230t93 230.5q-69 -27 -129 -27q-130 0 -197.5 72t-67.5 199q0 68 21.5 151t47.5 147.5t47.5 146.5t21.5 149q0 52 -19 80q1 1 20.5 6t51.5 9.5t59 4.5q56 0 95.5 -23t39.5 -69q0 -68 -74 -258q-79 -203 -97 -271
q-51 -189 40 -225q26 -10 60 -10q42 0 91 54t91 137.5t80.5 184t59.5 193.5t29 166t-11 101l12 2q11 2 29.5 5t40.5 6t47 5t45 2q78 0 99 -40t7 -128q-16 -93 -209 -560.5t-284 -647.5z" />
    <glyph glyph-name="Z" unicode="Z" horiz-adv-x="1191" 
d="M399 -55q86 -48 187.5 -63.5t192 4t154.5 88t71 176.5q5 67 -35 123.5t-101 56.5q-14 0 -22 -3.5t-10.5 -12.5t-2.5 -17t1.5 -23.5t1.5 -25.5q0 -72 -31 -131.5t-92 -89.5q-117 -58 -262 0q-32 13 -174 114q-39 29 -35 29q69 88 155.5 173.5t185.5 175t215.5 198.5
t286.5 289t357 401q25 34 6.5 70.5t-45.5 38.5q-50 5 -142.5 28t-207.5 41.5t-248 18.5q-110 0 -198 -19.5t-143 -50.5t-91.5 -72.5t-51 -83.5t-14.5 -86q0 -75 38.5 -127.5t98.5 -52.5q48 0 48 41q0 125 65 210t166 117t225 21t240 -67q-148 -144 -369.5 -370t-366 -374.5
t-294 -284t-230.5 -180.5q-12 -6 -20 -14q-31 -21 -31 -45v-2q0 -15 8 -23q5 -10 21 -18q19 -12 55 -12q15 0 39 2t43 2q35 0 78 -16t76 -34.5t96.5 -57.5t105.5 -62z" />
    <glyph glyph-name="bracketleft" unicode="[" horiz-adv-x="690" 
d="M942 1649q24 0 40.5 -16.5t16.5 -41.5q0 -23 -17 -41t-40 -18h-235q-12 -93 -100.5 -300.5t-192 -415.5t-209.5 -435t-142 -342h312q23 0 39 -17.5t16 -41.5q0 -25 -16 -42.5t-39 -17.5h-352q-13 0 -25 4q-31 11 -50.5 40.5t-24 82.5t17.5 127q26 92 104 265t162 347.5
t161 348t111.5 307.5t3.5 184q1 2 13 7t35 10t47 6h364z" />
    <glyph glyph-name="backslash" unicode="\" horiz-adv-x="1474" 
d="M1112 -66q0 68 -68 235.5t-165.5 368.5t-194.5 403t-165 374t-68 246q0 88 112 88q26 0 53 -5t42 -10.5t16 -7.5q-32 -50 2.5 -184t111.5 -307.5t161 -348t163 -347.5t105 -265q25 -89 15.5 -145t-37.5 -82.5t-69 -26.5q-5 0 -9.5 4t-4.5 10z" />
    <glyph glyph-name="bracketright" unicode="]" horiz-adv-x="702" 
d="M899 1649q44 -2 72 -23t28 -65q0 -74 -68 -246t-165.5 -374t-194.5 -403t-165 -368.5t-68 -235.5q0 -14 -12 -14q-19 0 -25 2q-4 0 -10 -1t-10 -1h-351q-24 0 -41.5 18t-17.5 42q0 23 18 41t41 18h285q-3 55 21 135q28 99 118.5 298.5t181 384t168 379t87.5 296.5h-254
q-25 0 -43.5 18t-18.5 41q0 24 18.5 41t43.5 17h362z" />
    <glyph glyph-name="asciicircum" unicode="^" horiz-adv-x="583" 
d="M715 1124q-12 12 -17.5 48.5t-5 81.5t-0.5 97.5t-5 97.5t-18.5 81t-40.5 47.5t-71 -2.5q-19 -4 -16 -21q2 -19 -105 -214.5t-139 -213.5q-34 -18 -21 -58q11 -36 45 -47q54 -18 101 57q8 14 16 30q127 250 144 276q43 84 45 84q5 -8 -0.5 -154t-8.5 -159q-13 -70 36 -91
q35 -14 64 4q29 19 4 48q-3 4 -7 8z" />
    <glyph glyph-name="underscore" unicode="_" horiz-adv-x="800" 
d="M526 23q20 0 34.5 14.5t14.5 34.5t-14.5 34.5t-34.5 14.5h-573q-20 0 -34.5 -14.5t-14.5 -34.5t14.5 -34.5t34.5 -14.5h573z" />
    <glyph glyph-name="grave" unicode="`" horiz-adv-x="473" 
d="M664 1280h2q19 -4 28.5 13t-2.5 32q-85 108 -125 217v4q-8 16 -24 19q-28 4 -60 4q-29 0 -40 -10.5t-1 -36.5q15 -41 70.5 -101.5t103.5 -100.5z" />
    <glyph glyph-name="a" unicode="a" horiz-adv-x="899" 
d="M1047 573q-48 -83 -100 -152.5t-111.5 -129.5t-124.5 -94.5t-127 -34.5q-71 0 -107 36t-33 105q-56 -62 -134 -101.5t-148 -39.5q-124 0 -151 112q-26 109 44 265q72 159 195 258q111 88 225 88q57 0 103 -25t59 -72q19 58 8 95q5 0 20 1t23 1q123 0 123 -92
q0 -31 -77 -161q-94 -161 -117 -222q-45 -125 55 -125q31 0 64 17.5t61.5 43.5t61 67t56.5 76.5t54 83.5q20 34 56 39q28 3 29 -17q1 -9 -7 -22zM258 274q42 0 81 21.5t66.5 50.5t58 78.5t48 85.5t43.5 91.5t37 78.5q-35 -13 -59 -5q-5 3 -3 5q29 23 37 53.5t-7 53t-48 22.5
q-114 0 -213 -132q-82 -109 -107 -236q-24 -119 26 -155q16 -12 40 -12z" />
    <glyph glyph-name="b" unicode="b" horiz-adv-x="864" 
d="M88 162q-13 0 -29 4q-69 19 -69 129q0 64 42 178t102.5 240t120.5 253.5t102 246.5t42 190q0 44 -16 76q0 1 16.5 6.5t46 10.5t56.5 5q50 0 83 -21t33 -71q0 -26 -16 -74t-50.5 -122t-65.5 -137t-84 -167t-83 -166q134 142 259 142q84 0 129 -45t51 -131
q9 -88 -35 -206.5t-105 -195.5q84 25 169.5 94.5t152.5 178.5q19 30 54 31q27 0 27 -17q0 -7 -5 -16q-49 -83 -114 -154t-148 -131.5t-188 -95.5t-218 -35q-89 0 -149 30t-62 70v2q0 13 6 19l2 2l2 2q3 0 3 2h2l2 2q9 6 22 6q12 0 44 -18.5t56 -18.5q64 0 139 89t123 199.5
t48 180.5q0 35 -13 52.5t-30 17.5q-110 0 -244 -187q-70 -108 -149 -272q0 -1 -10.5 -22t-14 -31t-10.5 -30.5t-10 -40t-3 -40.5q0 -14 -14 -14z" />
    <glyph glyph-name="c" unicode="c" horiz-adv-x="667" 
d="M819 578q-45 -75 -85.5 -133t-94.5 -117t-109 -98t-123.5 -63t-142.5 -24q-181 0 -230 131q-42 114 25 275q63 153 185 255q120 99 245 99q84 0 124 -37.5t40 -97.5q0 -86 -66.5 -165t-152.5 -79q-22 0 -22 27t22 27q48 0 89.5 62t41.5 120q0 61 -57 61q-89 0 -183 -117
q-87 -109 -118 -238q-34 -139 31 -190q30 -24 79 -24q47 0 96 17t105 54.5t116.5 106.5t117.5 164q22 36 52 30q23 -4 22 -26q-1 -10 -7 -20z" />
    <glyph glyph-name="d" unicode="d" horiz-adv-x="927" 
d="M1077 573q-89 -152 -130 -207q-141 -188 -313 -203q-16 -1 -32 -1q-68 0 -103.5 42.5t-35.5 106.5v4q-56 -67 -138 -110t-155 -43q-134 0 -162 114q-26 109 48 265.5t198 254.5q114 89 229 89q47 0 89 -18.5t63 -53.5q12 25 45 95.5t46.5 101t40 89.5t38.5 92t26.5 77
t20.5 77t6 60q0 50 -16 74q1 2 18 7.5t46 10t55 4.5q116 0 116 -90q0 -57 -46 -167.5t-112 -235t-132 -250t-112 -237.5t-46 -171q0 -29 2.5 -45t16 -30.5t40.5 -14.5q121 0 316 320q21 36 54 36q25 0 26 -20q0 -10 -7 -23zM266 274q40 0 78 23t64 52.5t55 81.5t43 84.5
t37 89t28 69.5q-32 -1 -32 6q29 23 37 53.5t-7.5 53t-48.5 22.5q-114 0 -213 -133q-81 -110 -105 -237q-23 -118 26 -153q16 -12 38 -12z" />
    <glyph glyph-name="e" unicode="e" horiz-adv-x="671" 
d="M821 573q-53 -91 -107 -162.5t-122.5 -135t-151 -98t-172.5 -34.5q-80 0 -131.5 37t-64 91t10.5 118t79 115q11 9 9.5 24t-13.5 21t-17 6q-4 0 -8 -1t-6.5 -2.5t-7.5 -5t-10 -5.5q-13 -8 -28 -4t-15 18q0 9 6 18q54 90 115.5 160.5t131 118t138 56.5t135.5 -25
q80 -44 48 -155q-22 -77 -77 -131q-46 -46 -66 -23q-6 8 -8 24q44 40 65.5 93t11.5 91.5t-50 38.5q-72 0 -130 -63.5t-58 -136.5q0 -72 100 -103q-7 -28 -14.5 -39.5t-24.5 -11.5q-77 0 -129 -63q-44 -53 -33 -101q12 -51 84 -51q242 0 437 328q25 42 58 42q21 -1 23 -21
q1 -13 -8 -28z" />
    <glyph glyph-name="f" unicode="f" horiz-adv-x="473" 
d="M623 573q-35 -59 -75 -93.5t-75 -42.5t-69.5 -1t-59.5 23.5t-43 38.5q30 -613 -297 -613q-53 0 -84 43.5t-31 106.5q0 74 44.5 202.5t107.5 268.5t126 278t107.5 261.5t44.5 189.5q0 47 -18 74q1 2 18 7.5t46.5 10t56.5 4.5q115 0 115 -92q0 -36 -17.5 -92t-60 -149.5
t-69.5 -149t-91 -182.5q0 -49 25 -92t61 -65t80.5 -7.5t79.5 71.5q27 46 62 48q23 1 25 -19q0 -13 -9 -29zM92 -16q42 0 72 66.5t43.5 167t18.5 177.5t5 137q-176 -354 -176 -458q0 -90 37 -90z" />
    <glyph glyph-name="g" unicode="g" horiz-adv-x="794" 
d="M647 885q25 0 40.5 -0.5t37.5 -3t35 -8.5t26 -16t19 -26t6 -38q0 -16 -8 -34.5t-34 -72t-52 -113.5q-28 -65 -80 -185q-47 -110 -69.5 -161.5t-61.5 -138.5t-59 -125.5t-54 -102t-56 -90t-54.5 -67.5t-59.5 -57t-62 -35t-71 -25t-78 -6q-115 0 -153 70q-31 57 6 120
q42 72 139 90q25 5 53 5q6 0 11.5 -5.5t5.5 -11.5t-8 -14q-49 -29 -68.5 -73.5t-2 -77.5t63.5 -33q48 0 102.5 64.5t99 155.5t82 184.5t58.5 156t21 65.5q-55 -50 -124 -82t-128 -32q-131 0 -159 114q-27 109 45 266t195 254q112 89 228 89q57 0 101.5 -24.5t58.5 -74.5
q18 64 8 99zM262 274q23 -1 47 6.5t43.5 19.5t41.5 35.5t37.5 42t35.5 51.5t31.5 53t29.5 57t24.5 51.5t22 49.5t17.5 40q-38 -13 -58 -4q-5 2 -2 4q28 23 35.5 54t-6.5 53t-43 22q-100 0 -203 -125q-88 -108 -121 -232q-33 -125 23 -164q18 -13 45 -14z" />
    <glyph glyph-name="h" unicode="h" horiz-adv-x="890" 
d="M1040 573q-67 -115 -136.5 -202t-156 -148t-167.5 -61q-66 0 -100 41.5t-34 107.5q0 60 39 163t78 192t39 114q0 15 -12 15q-64 0 -184 -133t-212 -283t-92 -203q0 -6 -4 -10q-2 -2 -4 -2q-2 -2 -6 -2q-51 0 -74.5 37t-23.5 96q0 77 64 234.5t140.5 309.5t140.5 315
t64 249q0 44 -16 76q0 1 16.5 6.5t46 10.5t56.5 5q50 0 83 -21t33 -71q0 -52 -64 -191.5t-175.5 -358t-165.5 -337.5q265 363 424 363q117 0 117 -99q0 -55 -36 -145.5t-72 -173.5t-36 -119q0 -67 64 -67q106 0 289 292q24 38 59 40q24 1 25 -18q0 -10 -7 -22z" />
    <glyph glyph-name="i" unicode="i" horiz-adv-x="430" 
d="M270 999q6 0 30 58.5t47.5 156t23.5 179.5q0 18 -2 28q61 11 112 11q43 0 65.5 -16t22.5 -56q0 -71 -69 -185t-133 -178q-32 -2 -53.5 -1.5t-32.5 2.5zM117 162q-140 0 -140 131q0 62 32 146t70.5 152.5t70.5 143t32 119.5q0 21 -4 29q4 2 43 2q156 0 156 -88
q0 -24 -35 -87t-77.5 -128t-77.5 -136t-35 -110q0 -51 63 -51q34 0 74 27t79.5 73.5t71 91t62.5 96.5q24 40 59 41q24 1 26 -18q0 -11 -7 -23q-66 -113 -135.5 -200.5t-157.5 -149t-170 -61.5z" />
    <glyph glyph-name="j" unicode="j" horiz-adv-x="335" 
d="M348 997l-57 -4q-29 0 -41 6h2q6 0 29 58.5t46 156t23 179.5v28q62 11 111 11q44 0 67 -16t23 -56q0 -71 -69.5 -185t-133.5 -178zM160 885h15q36 0 54 -0.5t45.5 -5t41 -14t24 -27.5t10.5 -45q0 -16 -8 -34.5t-34 -72t-52 -113.5q-82 -189 -128 -293t-103.5 -225.5
t-88.5 -178t-74.5 -122.5t-71.5 -90t-69.5 -49t-79.5 -30t-90 -5q-116 0 -153 69q-31 57 8 122q43 72 139 89q24 5 49 5h3q12 -1 14.5 -13t-6.5 -18q-54 -32 -71 -77.5t4.5 -76.5t66.5 -28q49 4 100.5 64t98 160.5t76 175.5t61.5 167q8 24 12 35q170 451 180 483
q25 69 30 96t-3 52zM-47 254l-18 -47q7 18 24 65z" />
    <glyph glyph-name="k" unicode="k" horiz-adv-x="827" 
d="M975 573q-35 -60 -81 -124t-104.5 -132t-120.5 -111.5t-112 -43.5q-64 0 -105 22t-56 56t-22.5 76t-8 79t-10 68.5t-29.5 42.5q0 26 15.5 38.5t31.5 12.5q22 0 43 6q87 20 138.5 83t51.5 114q0 68 -86 7q-11 -8 -24 -19q-108 -86 -253 -287t-145 -285q0 -14 -16 -14
q-49 0 -72.5 37.5t-23.5 95.5q0 77 64 234.5t140.5 309.5t140.5 315t64 249q0 44 -16 76q0 1 16.5 6.5t46 10.5t56.5 5q116 0 116 -92q0 -52 -61.5 -186t-170.5 -346t-163 -332q248 340 420 340q87 0 107 -66t-37 -150q-71 -104 -209 -150q-37 -12 -76 -19q30 -30 45 -66.5
t17.5 -61.5t16.5 -50t44 -39q42 -19 114 30.5t134.5 121.5t101.5 138q25 43 60 43q23 1 25 -19q1 -11 -7 -24z" />
    <glyph glyph-name="l" unicode="l" horiz-adv-x="464" 
d="M614 573q-33 -57 -68 -109.5t-84.5 -111t-98 -100t-107.5 -67.5t-115 -23q-56 -3 -95.5 32t-45.5 97q-10 127 133 440q23 49 70 149t73.5 158.5t58 135t46 133t14.5 98.5q0 50 -16 74q1 2 18 7.5t46 10t55 4.5q116 0 116 -90q0 -57 -47 -169.5t-114 -238.5t-133.5 -252
t-111.5 -238.5t-42 -170.5q0 -57 74 -57q45 0 104 49.5t106 110.5t87 128q25 41 60 41q23 1 24 -18q0 -11 -7 -23z" />
    <glyph glyph-name="m" unicode="m" horiz-adv-x="1361" 
d="M119 162q-71 0 -106.5 34t-35.5 97q0 62 32 146t70.5 152.5t70.5 143t32 119.5q0 21 -2 29q4 0 18 1t23 1q156 0 156 -92q0 -25 -37 -88.5t-89 -147.5t-75 -137q49 75 104 147.5t123.5 148.5t138.5 122.5t126 46.5q108 0 108 -84q0 -45 -30.5 -115t-73 -150.5
t-56.5 -119.5q329 469 508 469q119 0 119 -94q0 -54 -39.5 -145.5t-79 -176t-39.5 -121.5q0 -67 64 -67q59 0 135 83t152 209q25 41 60 41q23 1 24 -18q0 -11 -7 -23q-67 -115 -136.5 -202t-156 -148t-167.5 -61q-140 0 -140 119q0 69 45.5 178t90.5 200.5t45 118.5
q0 17 -15 17q-50 0 -139 -85t-172.5 -195.5t-142.5 -211.5q-47 -85 -54 -139q0 -2 -6 -2q-61 0 -95 45.5t-34 114.5q0 60 49 163t97.5 190.5t48.5 108.5q0 11 -10 11q-59 0 -166 -112.5t-198.5 -253t-121.5 -228.5q-8 -24 -8 -33q-3 -6 -8 -6z" />
    <glyph glyph-name="n" unicode="n" horiz-adv-x="919" 
d="M1069 573q-105 -179 -224 -295t-237 -116q-139 0 -139 119q0 69 45 178t90 200.5t45 118.5q0 17 -14 17q-50 0 -139.5 -85t-173 -195.5t-142.5 -211.5q-10 -18 -26.5 -53.5t-27.5 -61.5l-11 -26q-72 0 -105 36t-33 95q0 62 32 146t70.5 152.5t70.5 143t32 119.5
q0 21 -2 29q4 0 18 1t23 1q156 0 156 -92q0 -25 -38 -90t-90.5 -150t-74.5 -137q41 60 81.5 113.5t99 122t111 117t110.5 82.5t104 34q119 0 119 -94q0 -54 -39.5 -145.5t-79 -176t-39.5 -121.5q0 -67 64 -67q58 0 134 82.5t152 209.5q24 40 59 41q24 1 26 -18q0 -11 -7 -23
z" />
    <glyph glyph-name="o" unicode="o" horiz-adv-x="714" 
d="M868 580q-83 -144 -160 -206.5t-182 -66.5l-6 -8q-118 -156 -280 -156q-94 0 -159 57t-65 148q0 61 19.5 130t43 117t43 92.5t19.5 62.5q0 8 -4 28h74q23 55 79 90t116 35q83 0 139 -40t77.5 -105t16 -147.5t-38.5 -168.5q-8 -16 -10 -24q92 -17 209 176q28 46 57 37
q21 -6 18 -31q0 -10 -6 -20zM281 201q94 0 170 129q-27 19 -28 53.5t23.5 57.5t59.5 14q24 105 24.5 187.5t-36 133.5t-107.5 51q-42 0 -66 -30t-21 -67t32 -56q15 -9 30 -15q7 -1 9.5 -7.5t-2.5 -10.5q-27 -15 -56 -18q-85 -180 -106 -247q-51 -167 62 -175h12z" />
    <glyph glyph-name="p" unicode="p" horiz-adv-x="804" 
d="M956 578q-114 -209 -273 -312.5t-353 -103.5q-90 0 -150.5 31t-60.5 71q0 14 10.5 23.5t28.5 9.5q12 0 44 -18.5t56 -18.5q79 0 174 135q86 122 122 255q35 125 -13 146l-17 3q-160 0 -354 -371q-65 -125 -127 -254t-132.5 -313t-70.5 -267q0 -6 -4 -10t-10 -4
q-51 0 -82 41.5t-31 97.5q0 65 50.5 197.5t120 278t138.5 287.5t111.5 252.5t32.5 146.5h43q141 0 145 -82q103 86 211 86q85 0 134 -52.5t49 -156.5q0 -69 -43 -178.5t-105 -190.5q41 23 61 35t53.5 37t56 49t52 63t58.5 89q23 39 56 41q25 2 26 -19q0 -11 -7 -24z" />
    <glyph glyph-name="q" unicode="q" horiz-adv-x="790" 
d="M696 885q115 -5 115 -92q0 2 -49.5 -97t-119.5 -250.5t-140.5 -314.5t-120 -313.5t-49.5 -223.5q0 -14 -15 -14q-51 0 -81.5 41.5t-30.5 97.5q0 74 50.5 200.5t152.5 340.5q-65 -54 -140.5 -79t-138 -17.5t-98.5 63.5t-23 154q15 111 81 226.5t170.5 196.5t211.5 81
q59 0 107 -26t59 -71q18 66 8 97h51zM549 590l43 90q-35 -13 -59 -5q-5 3 -3 5l5 4q5 3 10 8q33 37 23 77t-54 40q-115 0 -215 -132q-82 -108 -107 -234q-24 -120 26 -157q17 -12 42 -12q34 0 65.5 13t58 38.5t48 50.5t42 61.5t32 59t26 55.5t17.5 38z" />
    <glyph glyph-name="r" unicode="r" horiz-adv-x="692" 
d="M842 573q-49 -85 -100.5 -154.5t-110.5 -130t-123.5 -94.5t-126.5 -34q-66 0 -102.5 45t-36.5 112q0 45 44 158t88 211.5t44 110.5q0 34 -45 34q-18 0 -80 -12l-143 -246q-23 -39 -59 -40q-24 -1 -26 19q0 9 7 21l137 230q-20 -4 -33 -4q-49 0 -53 36q-5 36 36 69
q42 34 101 34q29 0 44 -12.5t15 -32.5q0 -4 -4 -16q101 26 162 26q113 0 113 -84q0 -46 -44 -138.5t-88 -188.5t-44 -150q0 -61 63 -61q59 0 135.5 83t151.5 209q24 40 59 41q24 1 26 -18q0 -11 -7 -23z" />
    <glyph glyph-name="s" unicode="s" horiz-adv-x="571" 
d="M152 135q-139 0 -200 97q-44 70 -26 146q16 66 67 81l25 4q5 0 12 -2t11 -4l4 -2q-33 -30 -38.5 -82t23 -93.5t79.5 -41.5q33 0 58.5 15t41 38t25.5 60.5t14.5 72t6 82.5t0.5 82.5t-2 82t-1 72.5q-24 -41 -102 -170q-9 -16 -27.5 -27t-34.5 -11q-22 0 -22 18q0 12 6 20
q9 14 32 52t34.5 56t34 53.5t37.5 54t37.5 46.5t41 43t41 30.5t44.5 22.5t44 7q31 0 56.5 -10t25.5 -33t-21 -23q-4 0 -9.5 1t-8.5 1q-27 0 -34.5 -44t-3 -115t8.5 -147.5t-6.5 -156t-42.5 -126.5q41 7 103.5 74.5t101 125t55.5 88.5q22 37 58 39q26 2 27 -18q0 -9 -7 -21
q-45 -73 -82 -126t-93 -116t-111.5 -102.5t-129 -66.5t-153.5 -27z" />
    <glyph glyph-name="t" unicode="t" horiz-adv-x="471" 
d="M727 1065v-6q-2 -31 -40.5 -53t-94.5 -21q-75 3 -143 16q-24 -48 -79 -152.5t-81 -157t-59.5 -127.5t-47 -127.5t-12.5 -92.5q3 -59 76 -59q60 0 131.5 69.5t165.5 218.5q21 34 57 40q27 4 29 -15q0 -11 -8 -25q-36 -64 -78.5 -124t-97 -122t-118.5 -105.5t-126 -55.5
q-18 -4 -62 -4t-76.5 23.5t-46.5 64.5q-40 110 99 424l24 57q131 304 135 322q-37 7 -63 10q-38 1 -55.5 -11t-19 -29.5t0 -35t-5.5 -30t-29 -11.5q-9 1 -18 12.5t-12 22.5q0 11 -0.5 28.5t12 39t30.5 39.5t55 29t85 9q17 0 49 -4l16 45q63 171 21 240q0 2 17 7.5t46 10.5
t56 5q116 0 116 -91q0 -27 -18 -92q-20 -66 -68 -164q161 -36 218 -8q6 3 12 -0.5t8 -9.5z" />
    <glyph glyph-name="u" unicode="u" horiz-adv-x="860" 
d="M1010 573q-49 -84 -99.5 -153t-110 -129.5t-125 -94.5t-128.5 -34q-139 0 -139 131q0 15 4 43q-32 -37 -60 -62q-52 -47 -115 -79.5t-120 -32.5q-140 0 -140 131q0 62 32 146t70.5 152.5t70.5 143t32 119.5q0 21 -2 31h41q156 0 156 -88q0 -24 -35 -87t-77.5 -128
t-77.5 -136t-35 -110q0 -51 63 -51q45 0 100 47q95 84 196 259.5t101 266.5q0 11 -4 27h43q156 0 156 -88q0 -24 -35 -87t-77.5 -128t-77.5 -136t-35 -110q0 -35 27 -46t65 1.5t71 40.5q90 81 187 241q23 38 59 40q24 1 26 -18q0 -10 -7 -22z" />
    <glyph glyph-name="v" unicode="v" horiz-adv-x="696" 
d="M113 141q-104 3 -131 80q-19 59 8 152t70 174.5t81.5 170.5t38.5 136q0 11 -4 31h41q13 0 19 -2q135 0 135 -86q0 13 -24 -24q-63 -97 -128 -254q-99 -238 -37 -264q6 -3 15 -3q62 0 151.5 113t154 256t64.5 227q0 11 -4 35q29 0 43 -2q58 -3 88.5 -20.5t30.5 -61.5
q0 -91 -107 -271t-247 -286q-136 -101 -244 -101h-14z" />
    <glyph glyph-name="w" unicode="w" horiz-adv-x="1130" 
d="M995 883q37 0 62.5 -2.5t51 -10.5t38 -26t12.5 -45q0 -38 -25.5 -102t-68 -137t-102.5 -147.5t-124.5 -135t-138.5 -98.5t-141 -38q-84 0 -124 43.5t-27 130.5q-64 -72 -143 -123t-152 -51q-140 0 -140 131q0 62 32.5 149t71 159.5t71 150.5t32.5 123q0 21 -2 31h41
q156 0 156 -88q0 -30 -59 -130.5t-118 -209.5t-59 -158q0 -31 9.5 -42t29.5 -11q53 0 158 119t189.5 267t84.5 222v10q0 15 -2 21h41q13 0 19 -2q137 0 137 -86q0 -33 -84 -172q-104 -171 -130 -233q-57 -136 40 -136q38 0 101 61t122 148.5t102 194.5t43 188q0 23 -4 35z
" />
    <glyph glyph-name="x" unicode="x" horiz-adv-x="743" 
d="M815 573q24 40 59 41q24 1 26 -18q0 -11 -7 -23q-41 -71 -86 -133.5t-104.5 -128.5t-128.5 -106.5t-136 -42.5q-68 -3 -113 32.5t-57 108.5q0 -26 -59 -83.5t-111 -57.5q-16 2 -26.5 13t-10.5 28q0 15 12 27t29 12q29 0 84.5 64.5t71.5 111.5q0 13 8 293q0 49 -20 49
q-3 0 -15.5 -30.5t-45 -94t-74.5 -125.5l-41 59q50 82 83 165t46.5 117t31.5 34q33 0 48.5 -0.5t38.5 -3t34 -8t25 -15t20.5 -25t12 -37t8.5 -51.5q2 -12 2 -43q51 82 83.5 130.5t74.5 102.5t77 79.5t66 25.5q11 0 27 -4q16 -5 27 -16t11 -25q0 -19 -10.5 -28t-25.5 -9
q-5 0 -15 1.5t-14 1.5q-2 0 -6.5 -1.5t-7.5 -1.5q-23 -6 -44.5 -24.5t-47.5 -57.5t-49 -78t-65.5 -111t-80.5 -132q0 -14 -1 -40q-3 -54 -2 -101.5t5.5 -83t19 -56t39.5 -20.5q39 0 89.5 35t97.5 88t83.5 103t63.5 93z" />
    <glyph glyph-name="y" unicode="y" horiz-adv-x="774" 
d="M784 836q9 -27 9 -43t-69 -175t-134 -302l-70 -154q-58 -132 -101 -217.5t-92 -161.5t-97 -116.5t-106.5 -63.5t-129.5 -23q-76 0 -121 33q-2 0 -2 2q-43 30 -43 84v2q0 65 55 111l6 4q0 2 2 2q40 32 95 41q24 6 53 6q4 0 4 -2h2q8 -3 8.5 -13t-6.5 -16q-51 -29 -69 -70
t-3 -73q16 -41 66 -41q36 0 78 39q56 48 119 174q86 164 165 409v4q-73 -70 -173.5 -101.5t-176.5 -2t-76 120.5q0 62 32 146t70.5 152.5t70.5 143t32 119.5q0 21 -2 31h41q156 0 156 -90q0 -7 -3 -17t-10 -25t-13 -26.5t-19 -33.5t-19.5 -33.5t-23.5 -38.5t-23 -37
q-107 -174 -94 -269q7 -56 53 -56q64 -1 150 99q114 134 200 379q25 69 30 96t-3 52h15q48 0 72.5 -1.5t53.5 -13t41 -34.5z" />
    <glyph glyph-name="z" unicode="z" horiz-adv-x="651" 
d="M735 885q17 0 22.5 -17.5t-3 -43.5t-29.5 -50q-13 -16 -101 -104t-181 -189.5t-138 -171.5q77 -138 95.5 -267t-20 -227t-141 -157t-255.5 -59q-69 0 -116 29.5t-48 86.5q1 75 65.5 122.5t149.5 45.5q12 -4 12 -16q0 -2 -4 -10q-42 -24 -64 -55t-22 -62q0 -30 20.5 -51
t53.5 -21q68 0 116 59.5t66 146t17 179.5t-21 164q-21 72 -23 96l443 469q-59 -32 -119.5 -50t-128.5 -17.5t-123 26.5q-100 -155 -127 -198q-19 -31 -52 -19q-22 7 -22 23l2 6q1 2 36 59t79.5 133t73.5 132q8 14 22.5 17.5t26.5 -5.5q64 -50 120.5 -68t99.5 -9.5t78 24.5
t73 32.5t67 16.5z" />
    <glyph glyph-name="braceleft" unicode="{" horiz-adv-x="702" 
d="M188 -80q78 0 106 40q17 25 -1 39q-5 4 -14 5h-9q-121 5 -114 121q4 48 25.5 105t48.5 105t53.5 104t42.5 105.5t13 107t-32 110.5q76 32 131 93t89.5 136.5t63.5 152t69.5 160t89.5 140.5q90 115 225 123h12q36 6 53 41q7 19 1 30t-23 11q-138 0 -248 -46t-180 -126
q-44 -52 -75.5 -119.5t-53 -131.5t-50 -131t-82 -138.5t-132.5 -133.5q-23 -15 -35 -39q-8 -17 -2 -36q20 -74 10.5 -136t-41 -136.5t-65.5 -134t-63.5 -128.5t-33.5 -121q-5 -85 41.5 -128.5t179.5 -43.5z" />
    <glyph glyph-name="bar" unicode="|" horiz-adv-x="409" 
d="M45 -66q0 68 68 235.5t165.5 368.5t195 403t165.5 374t68 246q0 88 -113 88q-26 0 -53 -5t-42 -10.5t-16 -7.5q32 -50 -2.5 -184t-111.5 -307.5t-161 -348t-162.5 -347.5t-104.5 -265q-25 -89 -15.5 -145t37.5 -82.5t70 -26.5q12 0 12 14z" />
    <glyph glyph-name="braceright" unicode="}" horiz-adv-x="724" 
d="M688 1649q-34 0 -56 -33q-19 -30 -1 -44q5 -4 14 -5h8q66 -4 92 -35.5t23 -87.5q-4 -49 -27 -114t-52.5 -124t-57.5 -123t-45 -114.5t-12.5 -93.5t36.5 -66q-63 -10 -115.5 -63t-91.5 -133t-74 -164t-81 -175.5t-94 -148.5q-100 -116 -230 -121h-12q-35 -12 -51 -43
q-9 -17 -3 -29t25 -12q138 0 248.5 47.5t179.5 128.5q43 50 77 117t59 130.5t57 130.5t88 139t135 135q25 17 35 36q8 16 4 39q-21 73 -12 135t40 136t64.5 133.5t62 128.5t31.5 121q4 41 -5.5 70.5t-38 53.5t-83.5 36t-137 12z" />
    <glyph glyph-name="asciitilde" unicode="~" horiz-adv-x="692" 
d="M608 723q27 0 45.5 -19.5t18.5 -54.5q0 -58 -44 -103.5t-116 -45.5q-33 0 -61 15t-48 37t-39 43.5t-42 36.5t-48 15q-30 0 -41.5 -22.5t-1.5 -49.5q10 -28 -14.5 -48.5t-58.5 -20.5q-25 0 -44.5 19.5t-19.5 52.5q0 59 44 105t118 46q32 0 59.5 -15t48 -36.5t39.5 -43.5
t41.5 -37t47.5 -15q29 0 40.5 20.5t2.5 50.5q-9 28 15 49t58 21z" />
    <glyph glyph-name="exclamdown" unicode="&#xa1;" horiz-adv-x="356" 
d="M481 1376q37 0 58.5 31t9.5 61.5t-57 30.5q-30 0 -45 -30.5t-5.5 -61.5t39.5 -31zM416 1300q0 -72 -69.5 -236t-153 -321.5t-153 -306.5t-69.5 -196q0 -35 21 -54.5t50.5 -22t59 0.5t50.5 8.5t22 7.5q-14 22 -14 64q0 61 36.5 164t88 212.5t103 218t88 206.5t36.5 153
q0 50 -20.5 82.5t-63.5 32.5q-8 0 -10 -4q-2 -2 -2 -9z" />
    <glyph glyph-name="cent" unicode="&#xa2;" horiz-adv-x="874" 
d="M856 1296q64 -34 98.5 -101t34.5 -142q0 -94 -48 -159t-136 -65q-32 0 -53 13q-5 0 -9 4t-4 8q-6 12 -6 14q0 17 12 25q37 26 56 45q73 76 73 164q0 58 -33.5 97.5t-86.5 39.5q-83 0 -171 -77t-153 -189.5t-107 -241.5t-42 -231v-33q10 -97 50 -150t101 -53q41 0 94 21
t106 71t73 115q2 10 18 21q4 2 8 2q31 0 31 -31q0 -88 -91.5 -179.5t-232.5 -113.5q-53 -154 -53 -223q0 -9 -6 -13q-6 -6 -12 -6q-59 0 -89 46t-30 116q0 31 14 96q-3 1 -8 3.5t-20.5 13t-29 25.5t-30 43.5t-29 63.5t-20.5 88t-8 116q0 125 48 256t123.5 235t172 181
t190.5 102q23 73 23 135q0 47 -17 80q2 2 27 8.5t61.5 10t72 0t60.5 -27t25 -65.5q0 -45 -47 -158z" />
    <glyph glyph-name="sterling" unicode="&#xa3;" horiz-adv-x="1024" 
d="M911 1393q113 0 171 -48.5t56 -117.5t-29.5 -137.5t-79 -117t-99.5 -48.5q-18 0 -26 14.5t-5 34.5q5 16 23 37q147 132 137 229q-7 64 -80 86q-90 27 -208 -27q-154 -71 -250 -242q-59 -105 -87 -237q0 -3 -2 -8t-2 -6h285q15 0 26 -12t11 -29t-11 -28t-26 -11h-301
q-38 -188 -63 -248t-124 -192q22 -12 46 -33.5t41.5 -40.5t41 -39.5t45.5 -31t55.5 -14t69.5 10.5q69 21 119 82.5t64 132.5q3 9 3.5 22t2.5 17q3 12 10 17q12 8 23 8q86 0 111 -75q25 -73 -21 -163q-50 -99 -148 -138q-139 -57 -309 42q-30 15 -61 39t-51.5 42t-52 33
t-69.5 17q-6 3 -52.5 -1.5t-63.5 7.5q-20 8 -16.5 30t34.5 40q165 102 230 409q1 3 3.5 12.5t2.5 14.5h-88q-17 0 -29 11t-12 28t12 29t29 12h108q36 129 88.5 230.5t112 167.5t129 109.5t137.5 62t139 18.5z" />
    <glyph glyph-name="currency" unicode="&#xa4;" horiz-adv-x="815" 
d="M932 1126q62 -25 -4 -94q-38 -40 -178 -145q-4 -64 -33.5 -143.5t-67.5 -147.5q26 -43 41 -72t24 -56.5t5.5 -46t-19 -33t-45.5 -23.5q-15 -4 -30 -7t-23 -4h-8q21 39 -21 135q-58 -62 -123.5 -82t-119.5 10.5t-78 108.5q-166 -122 -199 -168q-2 -4 -12 -4
q-18 7 -20.5 25.5t16.5 50.5t61 70q11 12 28.5 26.5t31 25t41.5 31.5t41 31q0 60 22.5 142t61.5 143q-29 44 -48 92q-19 63 -3.5 98.5t53.5 47.5q3 2 6.5 0.5t3.5 -4.5q0 -45 59 -142q40 40 92.5 66.5t104 34t93 -18t56.5 -84.5q130 101 138 148q3 1 9.5 1t19.5 -3.5
t24 -8.5zM555 582q52 80 88.5 168.5t44.5 161t-31 98.5q-42 28 -110 -6t-127 -144q-34 -63 -55.5 -130.5t-26 -124.5t15.5 -93.5t64 -36.5q45 0 76 28t61 79z" />
    <glyph glyph-name="yen" unicode="&#xa5;" horiz-adv-x="999" 
d="M1237 1362q6 -32 -14 -55q-32 -23 -58 -23q-92 0 -187.5 -147t-248.5 -508h154q15 0 26 -11t11 -28t-11 -29t-26 -12h-183q-6 -14 -25 -56.5t-28 -66.5h162q15 0 26 -11t11 -28q0 -15 -11 -26t-26 -11h-195l-77 -198q-4 -10 -19 -47t-21 -55t-16 -48.5t-14 -56.5t-4 -51
q0 -6 -5.5 -11.5t-11.5 -5.5q-16 0 -40 8q-17 9 -23 13q-47 32 -53 106v21q0 67 18 135q18 57 70 190h-129q-17 0 -28 11t-11 26q0 17 11 28t28 11h162q8 17 23.5 50t23.5 50q6 22 6 23h-142q-17 0 -27.5 11.5t-10.5 29.5q0 17 10.5 28t27.5 11h150q2 66 -12.5 188.5
t-16.5 167.5q-7 138 -26 229q-6 35 -10 53.5t-17.5 48t-32.5 42.5l-6 6q-16 16 -10 27q11 22 27 22q99 4 144.5 -31t61.5 -116q2 -9 11.5 -91t22.5 -210.5t20 -231.5q58 137 101.5 230.5t100 194.5t104.5 157t104 85t110 11l18 -8q8 -6 16.5 -16.5t12.5 -17.5t2 -7z" />
    <glyph glyph-name="brokenbar" unicode="&#xa6;" horiz-adv-x="360" 
d="M518 1499q94 0 94 -74q0 -114 -227 -583q-15 -31 -43.5 -49.5t-62.5 -18.5q-28 0 -46 25q-16 23 -2 51q31 65 54.5 117.5t49.5 113t44 108t33 95.5t22 84t6 66t-12 47q2 2 13.5 6t33.5 8t43 4zM248 649q15 0 24 -12q6 -13 0 -29q-206 -429 -206 -526q0 -12 -11 -12
q-55 0 -78 50.5t3 160.5q29 95 124 301q13 31 42.5 49t64.5 18h37z" />
    <glyph glyph-name="section" unicode="&#xa7;" horiz-adv-x="1226" 
d="M1085 1638q112 0 189.5 -43t108 -112t37 -152.5t-22.5 -167t-72.5 -152.5t-110.5 -112t-139 -43q-66 0 -106.5 40.5t-40.5 111.5q0 46 27 106.5t54 117t27 91.5q0 9 -1 19.5t-1 13.5q0 20 21 20q37 0 80 -42t43 -105q0 -31 -33 -81.5t-65.5 -103.5t-32.5 -88
q0 -41 45 -41q24 0 55 16t64 49t60.5 78.5t45.5 112t18 140.5q0 165 -110 223q-93 48 -219 1t-205 -162q-76 -110 -76 -243q0 -48 13.5 -100.5t30 -93t50 -97.5t54 -87t63.5 -90.5t57 -81.5q38 -56 49 -80q52 -84 52 -150q0 -26 -8 -56.5t-27 -63.5t-47 -59.5t-72 -44
t-98 -17.5q-2 -2 -4.5 -25t-10.5 -55.5t-24.5 -72.5t-54.5 -79t-92 -71t-145 -52t-206 -20q-100 0 -178 27t-123 72t-67.5 99t-22.5 113q0 108 68.5 188t179.5 80q29 0 45 -13t16 -32l-10 -4q-10 -5 -26 -14t-35 -21.5t-38 -31.5t-35 -41t-26 -52t-10 -63q0 -103 74 -160
t180 -57q116 0 208.5 76t92.5 170q0 37 -31.5 86t-78.5 96.5t-102 107.5t-102 118t-78.5 131t-31.5 143q0 80 31.5 157.5t80 132.5t107 89t111.5 34q36 0 61 -10l4 -2q7 113 56.5 207.5t123.5 153.5t161 91.5t175 32.5zM821 590q-14 20 -47 65.5t-51 71.5q-60 86 -88 145
q-49 103 -49 185q0 33 -33 33q-24 0 -57 -20.5t-65 -55.5t-54.5 -92.5t-22.5 -122.5q0 -45 15.5 -90t38 -82t64.5 -86t77.5 -85t95.5 -96.5t100 -103.5q42 -45 86 -45q43 0 74 39t31 115q0 42 -37 108q-20 35 -78 117z" />
    <glyph glyph-name="dieresis" unicode="&#xa8;" horiz-adv-x="473" 
d="M483 1499q31 0 49 -21.5t13 -52.5q-6 -32 -32 -53.5t-58 -21.5q-31 0 -48.5 21.5t-11.5 53.5q4 30 30.5 52t57.5 22zM682 1499q31 0 49 -21.5t12 -52.5q-6 -32 -31.5 -53.5t-56.5 -21.5t-49 21.5t-12 53.5q6 31 31.5 52.5t56.5 21.5z" />
    <glyph glyph-name="copyright" unicode="&#xa9;" horiz-adv-x="1210" 
d="M903 1503q99 0 173 -32t117 -89t64 -127t21 -153q0 -178 -43 -341t-115.5 -285.5t-165 -214t-194 -138.5t-199.5 -47q-88 0 -166 31t-137.5 88.5t-94 148t-34.5 201.5q0 103 29 215.5t79.5 218t123.5 201.5t157 167.5t184 113.5t201 42zM317 522q0 -237 126 -323
q105 -71 256 -13q157 59 286 226q175 229 208 546q7 66 7 134q0 198 -121 273q-105 65 -258 12q-163 -56 -293 -216q-179 -222 -207 -536q-4 -51 -4 -103zM870 1190q129 0 159 -84q24 -67 -24.5 -148t-131.5 -107q-29 -9 -58 -9q-20 1 -20 6q51 21 107 105q60 87 53 135
q-3 28 -33 28q-68 -4 -138.5 -94.5t-113.5 -211.5t-43 -216v-14q7 -87 51 -111q13 -8 39 -8q54 0 110 49q23 20 46 45.5t35 40.5l12 16q8 0 16.5 -9t11.5 -21l2 -9q0 -15 -22.5 -44.5t-57 -61t-86 -55t-100.5 -23.5q-45 0 -94.5 27t-87.5 73q-66 83 -66 191q0 59 20.5 127.5
t60.5 135.5t92 122.5t120.5 89.5t140.5 35z" />
    <glyph glyph-name="guillemotleft" unicode="&#xab;" horiz-adv-x="657" 
d="M422 854q0 -36 -30 -79t-63.5 -72t-79 -65t-54.5 -44q195 -123 155 -174q-15 -18 -45 -19q-18 0 -39 35q-16 26 -47 52t-58 42t-48 32t-21 26q0 22 25.5 46.5t62 49t73 53t62 68t25.5 82.5q0 24 37 24q19 0 32 -17t13 -40zM633 854q0 -36 -30 -79t-63.5 -72.5
t-77.5 -64.5t-54 -44q194 -123 154 -174q-15 -18 -44 -19q-20 0 -41 35q-16 26 -47 52t-58 42t-48 32t-21 26q0 22 25.5 46.5t62 49t73 53t62 68t25.5 82.5q0 24 37 24q20 0 32.5 -16.5t12.5 -40.5z" />
    <glyph glyph-name="logicalnot" unicode="&#xac;" horiz-adv-x="985" 
d="M178 682q572 -2 610 -6q23 -6 23 -14t-39 -81.5t-39 -95.5q0 -33 28.5 -55t59.5 -22q30 0 33 22q9 38 47 115.5t71 135.5l34 58q0 31 -43 36.5t-277 3.5q-197 -1 -336 -1q-142 0 -169 -7q-36 -8 -39 -41q-1 -5 -1 -11q0 -15 9 -26t28 -11z" />
    <glyph glyph-name="registered" unicode="&#xae;" horiz-adv-x="1210" 
d="M903 1503q99 0 173 -32t117 -89t64 -127t21 -153q0 -178 -43 -341t-115.5 -285.5t-165 -214t-194 -138.5t-199.5 -47q-88 0 -166 31t-137.5 88.5t-94 148t-34.5 201.5q0 103 29 215.5t79.5 218t123.5 201.5t157 167.5t184 113.5t201 42zM317 522q0 -237 126 -323
q105 -71 256 -13q157 59 286 226q175 229 208 546q7 66 7 134q0 198 -121 273q-105 65 -258 12q-163 -56 -293 -216q-179 -222 -207 -536q-4 -51 -4 -103zM1059 1092q8 -32 8 -54q2 -86 -50.5 -176t-142.5 -135l-32 -16q22 -42 22 -93q0 -41 -10.5 -81.5t-9.5 -63t24 -51.5
q6 -9 1 -14t-15 -5q-54 0 -76.5 26.5t-13.5 76.5q2 12 10 42.5t12.5 50.5t8.5 52t-2 47q-4 -2 -15 -2q-6 -2 -18 -2q-8 -2 -27 -2q-36 0 -57 19t-21 37q0 12 9 12l14 -4q8 -4 10 -6h2q11 -11 27 -11h10l25 6h6l16 7q8 4 10 4l11 6q8 4 20 12l2 2q24 18 47 41q50 53 84 129
q12 28 17 43q21 65 12 109q0 10 -8 22q-14 17 -37 17q-25 0 -52 -14t-53 -42.5t-49 -58.5t-47.5 -75t-42.5 -78.5t-39.5 -83t-31.5 -73t-26.5 -64.5t-17.5 -44q-61 -153 -61 -194v-2q-5 -5 -6 -5q-32 0 -55 29.5t-7 83.5q9 41 50 131v4q93 223 112 275q76 195 49 239
q0 1 11.5 3.5t29 5t29.5 2.5q43 0 49 -30.5t-10 -76.5q0 -10 24 15t68.5 58.5t81.5 33.5q26 0 55 -11l13 -6q15 -8 30 -26q7 -7 15 -23q1 -3 4 -9t4 -9z" />
    <glyph glyph-name="macron" unicode="&#xaf;" horiz-adv-x="499" 
d="M702 1368q20 0 40 14.5t26 34.5q7 20 -2 33.5t-29 13.5h-280q-21 0 -40.5 -13.5t-25.5 -33.5q-7 -20 2 -34.5t29 -14.5h280z" />
    <glyph glyph-name="degree" unicode="&#xb0;" horiz-adv-x="372" 
d="M502 1268q61 0 109.5 78.5t33.5 156.5t-108 78q-46 0 -98 -68t-52 -133q0 -53 40 -82.5t75 -29.5zM604 1468q0 -55 -35 -105t-65 -50q-37 0 -25 70q12 69 51 119q21 27 39 28q15 0 25 -17.5t10 -44.5z" />
    <glyph glyph-name="plusminus" unicode="&#xb1;" horiz-adv-x="731" 
d="M203 709q-20 0 -34.5 14.5t-14.5 34.5t14.5 34.5t34.5 14.5h145q1 2 2 6.5t2 7.5q3 15 12.5 47.5t12.5 49.5q1 8 0 18.5t2 21.5t12 15q12 6 29 6q28 -3 49 -14q3 0 10 -7q6 -4 9 -10t3.5 -13.5t0.5 -13.5t-2.5 -16t-4.5 -15.5t-5.5 -15.5t-4.5 -14q-9 -38 -14 -53h112
q20 0 34 -14.5t14 -34.5t-14 -34.5t-34 -14.5h-137q-6 -21 -17.5 -63t-17.5 -62q-20 -77 -57 -95q-29 -13 -43.5 -8t-17 28.5t0 43.5t7.5 37l31 119h-119zM573 424q19 0 32 -13t13 -32q0 -20 -13 -33.5t-32 -13.5h-479q-19 0 -32 13.5t-13 33.5q0 19 13 32t32 13h479z" />
    <glyph glyph-name="acute" unicode="&#xb4;" horiz-adv-x="303" 
d="M387 1280h-2q-19 -4 -29 13t2 32q85 108 125 217q0 1 1 2t1 2q4 15 23 19q28 4 59 4q29 0 40 -10.5t1 -36.5q-15 -41 -70 -101.5t-103 -100.5z" />
    <glyph glyph-name="paragraph" unicode="&#xb6;" horiz-adv-x="1112" 
d="M1163 1649q17 0 49 1t50 1t44.5 -1.5t42 -7t31 -15.5t22.5 -26.5t7 -39.5q0 -74 -68.5 -246t-166 -374t-195 -403t-166 -368.5t-68.5 -235.5q0 -14 -12 -14q-42 0 -70 26.5t-37 82.5t17 145q27 98 115 292t177 375t167.5 375t93.5 300h-231q-21 -104 -136 -373
q-54 -125 -199.5 -421.5t-235 -502.5t-89.5 -285q0 -14 -12 -14q-53 0 -82 39q-44 58 -16 176l8 39q9 32 39.5 105t77.5 174.5t86.5 185t91 191t65.5 137.5q-109 0 -168 102q-58 100 -37 234q24 154 137 249q114 95 289 97h379z" />
    <glyph glyph-name="periodcentered" unicode="&#xb7;" horiz-adv-x="325" 
d="M299 641q0 64 -52 82q-48 17 -94 -15q-47 -32 -47 -94q0 -48 48 -76.5t96.5 -4t48.5 107.5z" />
    <glyph glyph-name="cedilla" unicode="&#xb8;" horiz-adv-x="303" 
d="M16 92q19 -19 26 -57t-1 -76t-41 -66t-86 -28q-27 0 -43 13.5t-17.5 32.5t4 38.5t19 33t29.5 13.5q4 0 4 -6q0 -3 -1.5 -5t-4 -4t-6.5 -8t-7 -14q-7 -12 -1.5 -30.5t24.5 -18.5q34 0 52.5 28t15.5 63.5t-23 55.5q-14 14 -14 27q0 8 2 10l15 21q15 21 15 43q6 4 33 4
q29 0 29 -29q0 -5 -10 -19.5t-13 -21.5z" />
    <glyph glyph-name="guillemotright" unicode="&#xbb;" horiz-adv-x="626" 
d="M190 854q-14 -35 -14.5 -62.5t15.5 -61t31 -55.5t33.5 -46.5t23.5 -34.5q-254 -120 -247 -172q5 -19 34 -21q16 0 59 35q37 33 98.5 65t105.5 53.5t50 33.5q12 22 -0.5 47t-35.5 48t-43.5 54.5t-25.5 66t19 83.5q7 13 -2.5 18.5t-22.5 5.5q-19 0 -41.5 -17t-36.5 -40z
M403 854q-13 -25 -14 -52.5t6.5 -51t21.5 -48.5t27.5 -43.5t26.5 -37t18 -27.5q-254 -120 -247 -172q5 -19 34 -21q20 0 60 35q38 33 99.5 65t105.5 53.5t51 33.5q11 22 -1.5 47t-36 48t-44 54.5t-25.5 66t19 83.5q7 13 -2.5 18.5t-22.5 5.5q-19 0 -41.5 -17t-34.5 -40z" />
    <glyph glyph-name="questiondown" unicode="&#xbf;" horiz-adv-x="745" 
d="M604 1376q-31 0 -39.5 31t8 61.5t45.5 30.5q27 0 42 -14.5t15 -32t-5 -33.5q-8 -20 -29 -31.5t-37 -11.5zM295 162q-103 0 -172.5 76t-69.5 196q0 75 46 169t111 183.5t130.5 178t111.5 178t46 157.5q0 2 1 5t1 4q4 4 10 4q45 0 64.5 -33t19.5 -82q0 -46 -29 -101
t-72 -105.5t-93.5 -117.5t-93.5 -134.5t-72 -159.5t-29 -189q0 -108 78 -140q70 -29 157 19q97 52 139 159q25 63 25 134q0 63 -23.5 101t-54.5 38q-83 0 -71 -172v-30q-3 -13 -17.5 -20t-25.5 -7q-44 0 -58 57q-17 67 19 141q45 92 138 103q11 2 24 2q101 0 136 -98
q35 -97 -10 -228q-50 -144 -162 -223q-92 -65 -204 -65z" />
    <glyph glyph-name="Agrave" unicode="&#xc0;" horiz-adv-x="989" 
d="M1567 1903h2q19 -4 28.5 13t-2.5 32q-85 108 -125 217v4q-8 15 -24 18q-28 4 -60 4q-28 0 -39 -10.5t-1 -36.5q15 -41 70 -101t103 -100zM872 1624q120 0 195 -42.5t100 -118.5t13 -174t-60 -216q-60 -162 -185 -443.5t-200.5 -473.5t-75.5 -277q0 -14 -14 -14
q-55 0 -103 45t-48 127q0 42 14 88q54 190 225 582q-35 7 -91.5 24t-98.5 28t-89 18.5t-86.5 -1.5t-68.5 -35q-28 -28 -43 -57q-158 -384 -167 -405q-133 -303 -223 -381q-39 -33 -75 -33q-20 0 -33.5 13t-13.5 32q0 20 13.5 33.5t33.5 13.5q32 0 71 57t81.5 153.5
t91.5 221.5t104.5 263t116 276.5t131.5 263.5t145 221.5t162 153.5t178 57zM328 858q49 12 89 12.5t93 -10t93 -22.5t88.5 -25t80.5 -18q105 236 158 381t53 235q0 119 -111 119q-62 0 -124 -37t-114.5 -96t-108.5 -150t-101 -181.5t-96 -207.5z" />
    <glyph glyph-name="Aacute" unicode="&#xc1;" horiz-adv-x="989" 
d="M1288 1903h-2q-19 -4 -28.5 13t2.5 32q83 106 124 217q0 1 1 2t1 2q4 14 23 18q28 4 59 4q29 0 40 -10.5t1 -36.5q-15 -41 -70 -101t-103 -100zM872 1624q120 0 195 -42.5t100 -118.5t13 -174t-60 -216q-60 -162 -185 -443.5t-200.5 -473.5t-75.5 -277q0 -14 -14 -14
q-55 0 -103 45t-48 127q0 42 14 88q54 190 225 582q-35 7 -91.5 24t-98.5 28t-89 18.5t-86.5 -1.5t-68.5 -35q-28 -28 -43 -57q-158 -384 -167 -405q-133 -303 -223 -381q-39 -33 -75 -33q-20 0 -33.5 13t-13.5 32q0 20 13.5 33.5t33.5 13.5q32 0 71 57t81.5 153.5
t91.5 221.5t104.5 263t116 276.5t131.5 263.5t145 221.5t162 153.5t178 57zM328 858q49 12 89 12.5t93 -10t93 -22.5t88.5 -25t80.5 -18q105 236 158 381t53 235q0 119 -111 119q-62 0 -124 -37t-114.5 -96t-108.5 -150t-101 -181.5t-96 -207.5z" />
    <glyph glyph-name="Acircumflex" unicode="&#xc2;" horiz-adv-x="989" 
d="M1536 1915q3 10 -4 20q-14 12 -17.5 55.5t-2 87t-14 78.5t-50.5 35q-16 0 -47 -38.5t-60 -85t-57 -85t-39 -38.5t-12 -16q3 -21 24 -23q17 0 47 42.5t67.5 101t60.5 81.5q0 -149 10.5 -188t58.5 -39q31 0 35 12zM872 1624q120 0 195 -42.5t100 -118.5t13 -174t-60 -216
q-60 -162 -185 -443.5t-200.5 -473.5t-75.5 -277q0 -14 -14 -14q-55 0 -103 45t-48 127q0 42 14 88q54 190 225 582q-35 7 -91.5 24t-98.5 28t-89 18.5t-86.5 -1.5t-68.5 -35q-28 -28 -43 -57q-158 -384 -167 -405q-133 -303 -223 -381q-39 -33 -75 -33q-20 0 -33.5 13
t-13.5 32q0 20 13.5 33.5t33.5 13.5q32 0 71 57t81.5 153.5t91.5 221.5t104.5 263t116 276.5t131.5 263.5t145 221.5t162 153.5t178 57zM328 858q49 12 89 12.5t93 -10t93 -22.5t88.5 -25t80.5 -18q105 236 158 381t53 235q0 119 -111 119q-62 0 -124 -37t-114.5 -96
t-108.5 -150t-101 -181.5t-96 -207.5z" />
    <glyph glyph-name="Atilde" unicode="&#xc3;" horiz-adv-x="989" 
d="M1606 2132q20 0 31.5 -15.5t7.5 -41.5q-8 -45 -48.5 -81t-97.5 -36q-25 0 -45 12t-32.5 29t-24 33.5t-27 28.5t-35.5 12q-23 0 -34.5 -17.5t-8.5 -38.5q4 -22 -17.5 -38.5t-47.5 -16.5q-20 0 -32.5 15.5t-6.5 41.5q7 45 46.5 81t96.5 36q30 0 53.5 -18t36 -39.5t32 -39.5
t42.5 -18t34.5 16t8.5 40q-3 22 18.5 38.5t49.5 16.5zM872 1624q120 0 195 -42.5t100 -118.5t13 -174t-60 -216q-60 -162 -185 -443.5t-200.5 -473.5t-75.5 -277q0 -14 -14 -14q-55 0 -103 45t-48 127q0 42 14 88q54 190 225 582q-35 7 -91.5 24t-98.5 28t-89 18.5
t-86.5 -1.5t-68.5 -35q-28 -28 -43 -57q-158 -384 -167 -405q-133 -303 -223 -381q-39 -33 -75 -33q-20 0 -33.5 13t-13.5 32q0 20 13.5 33.5t33.5 13.5q32 0 71 57t81.5 153.5t91.5 221.5t104.5 263t116 276.5t131.5 263.5t145 221.5t162 153.5t178 57zM328 858
q49 12 89 12.5t93 -10t93 -22.5t88.5 -25t80.5 -18q105 236 158 381t53 235q0 119 -111 119q-62 0 -124 -37t-114.5 -96t-108.5 -150t-101 -181.5t-96 -207.5z" />
    <glyph glyph-name="Adieresis" unicode="&#xc4;" horiz-adv-x="989" 
d="M1339 2122q31 0 49 -21.5t13 -52.5q-6 -32 -32 -54t-58 -22q-31 0 -48.5 22t-11.5 54q4 30 30.5 52t57.5 22zM1538 2122q31 0 49 -21.5t12 -52.5q-6 -32 -31.5 -54t-56.5 -22t-49 22t-12 54q6 31 31.5 52.5t56.5 21.5zM872 1624q120 0 195 -42.5t100 -118.5t13 -174
t-60 -216q-60 -162 -185 -443.5t-200.5 -473.5t-75.5 -277q0 -14 -14 -14q-55 0 -103 45t-48 127q0 42 14 88q54 190 225 582q-35 7 -91.5 24t-98.5 28t-89 18.5t-86.5 -1.5t-68.5 -35q-28 -28 -43 -57q-158 -384 -167 -405q-133 -303 -223 -381q-39 -33 -75 -33
q-20 0 -33.5 13t-13.5 32q0 20 13.5 33.5t33.5 13.5q32 0 71 57t81.5 153.5t91.5 221.5t104.5 263t116 276.5t131.5 263.5t145 221.5t162 153.5t178 57zM328 858q49 12 89 12.5t93 -10t93 -22.5t88.5 -25t80.5 -18q105 236 158 381t53 235q0 119 -111 119q-62 0 -124 -37
t-114.5 -96t-108.5 -150t-101 -181.5t-96 -207.5z" />
    <glyph glyph-name="Aring" unicode="&#xc5;" horiz-adv-x="989" 
d="M1409 1905q55 0 99 71t30 142t-98 71q-56 0 -101.5 -71t-32 -142t102.5 -71zM1501 2087q0 -50 -32.5 -95.5t-59.5 -45.5q-35 0 -22 67q13 66 50 110q18 21 33 21q13 0 22 -16t9 -41zM872 1624q120 0 195 -42.5t100 -118.5t13 -174t-60 -216q-60 -162 -185 -443.5
t-200.5 -473.5t-75.5 -277q0 -14 -14 -14q-55 0 -103 45t-48 127q0 42 14 88q54 190 225 582q-35 7 -91.5 24t-98.5 28t-89 18.5t-86.5 -1.5t-68.5 -35q-28 -28 -43 -57q-158 -384 -167 -405q-133 -303 -223 -381q-39 -33 -75 -33q-20 0 -33.5 13t-13.5 32q0 20 13.5 33.5
t33.5 13.5q32 0 71 57t81.5 153.5t91.5 221.5t104.5 263t116 276.5t131.5 263.5t145 221.5t162 153.5t178 57zM328 858q49 12 89 12.5t93 -10t93 -22.5t88.5 -25t80.5 -18q105 236 158 381t53 235q0 119 -111 119q-62 0 -124 -37t-114.5 -96t-108.5 -150t-101 -181.5
t-96 -207.5z" />
    <glyph glyph-name="AE" unicode="&#xc6;" horiz-adv-x="1734" 
d="M1094 686q2 52 35 123t72 129.5t72 124t34 106.5q1 14 -0.5 29t-1.5 16q3 29 36 29q54 -2 112.5 -64.5t55.5 -152.5q-1 -35 -39.5 -93.5t-84 -112t-84 -114.5t-39.5 -100q-3 -57 49 -61q110 -4 232 128q120 130 182 310q71 210 12 349q-67 156 -287 165q-137 6 -268 -100
q12 -104 -36.5 -253.5t-209.5 -518.5q22 -69 65 -117q12 -15 16.5 -21.5t10 -21.5t4.5 -31q0 -11 -4 -19t-11.5 -13t-14.5 -8t-18.5 -4t-18 -1.5t-17.5 0t-12 0.5q-108 0 -145 -79q-33 -71 7 -157q44 -92 143 -131q163 -63 381 62q75 44 153 109q30 0 30 -25
q-1 -24 -42.5 -67.5t-108.5 -89.5t-167 -84.5t-202 -47.5q-177 -15 -313 84q-13 -54 -13 -84q0 -14 -14 -14q-55 0 -103 45t-48 127q0 42 14 88q21 69 39 121q4 15 10 30.5t13.5 35t11.5 30.5q61 157 127 309l24 56q-16 2 -43 10q-20 5 -82 23.5t-92 25t-77 12.5t-80.5 -4
t-59.5 -33q-28 -28 -43 -57q-158 -384 -167 -405q-133 -303 -223 -381q-39 -33 -75 -33q-20 0 -33.5 13t-13.5 32q0 20 13.5 33.5t33.5 13.5q32 0 71 57t81.5 153.5t91.5 221.5t104.5 263t116 276.5t131.5 263.5t145 221.5t162 153.5t178 57q165 0 244 -82q159 86 309 80
q307 -12 418 -208q89 -156 34 -382q-49 -201 -186 -362q-143 -168 -310 -202q-43 -8 -85 -7q-96 5 -151 59t-51 166zM678 815q67 -16 94 -20q105 236 158 381t53 235q0 15 -4 39q-16 80 -107 80q-62 0 -124 -37t-114.5 -96t-108.5 -150t-101 -181.5t-96 -207.5
q104 31 328 -37q15 -4 22 -6z" />
    <glyph glyph-name="Ccedilla" unicode="&#xc7;" horiz-adv-x="1259" 
d="M1118 1626q89 0 156.5 -34t105.5 -90.5t57.5 -129t18 -149t-19.5 -152.5q-26 -107 -84 -189.5t-119 -68.5q-38 9 -23 39q4 7 19.5 22.5t32.5 34t38.5 63.5t36.5 107q18 73 17.5 145t-19.5 135t-67 102.5t-119 39.5q-83 0 -176.5 -54.5t-178 -143.5t-162.5 -206.5
t-134.5 -240t-90.5 -248t-34 -227.5v-12q0 -201 88 -311.5t221 -110.5q75 0 153.5 38t147.5 111q6 9 14 17q19 19 46 33t49 14q28 0 28 -23q0 -13 -8 -26v-2q-8 -8 -14 -17q-178 -225 -426 -225h-17q-2 -4 -7 -12.5t-7 -12.5q19 -19 26 -57t-1 -76t-41 -66t-86 -28
q-44 0 -57 32.5t4 65.5t44 33q5 0 5 -6q0 -3 -1.5 -5t-4 -4t-6.5 -8t-7 -14q-7 -12 -1.5 -30.5t24.5 -18.5q34 0 52.5 28t15.5 63.5t-23 55.5q-15 15 -15 27q0 8 2 10q2 5 10 14t11 15q-125 20 -230 92.5t-170 192t-65 260.5v22q0 138 44.5 285t119.5 276t175.5 245
t209.5 199.5t224.5 132t217.5 48.5z" />
    <glyph glyph-name="Egrave" unicode="&#xc8;" horiz-adv-x="1150" 
d="M981 1894h2q19 -4 29 13t-2 32q-84 107 -125 218v4q-8 15 -25 18q-28 4 -59 4q-29 0 -40 -10.5t-1 -36.5q15 -41 70 -101.5t103 -100.5zM936 1612q89 0 162 -34t117 -90.5t72.5 -129t29.5 -149.5t-14 -152q-26 -107 -84 -189.5t-119 -68.5q-38 9 -23 39q4 7 19.5 22.5
t32.5 34t38.5 63.5t36.5 107q11 45 11.5 93.5t-8.5 95.5t-30 88.5t-50.5 73.5t-73.5 50.5t-97 18.5q-95 0 -187.5 -57t-159.5 -147t-108.5 -205t-41.5 -226q0 -216 174 -299q20 -8 31 -19q18 -16 14.5 -29.5t-23.5 -23.5q-19 -10 -41.5 -12.5t-64.5 0t-60 2.5
q-93 0 -156 -76t-63 -174q0 -108 66.5 -185t191.5 -77q95 0 168.5 36.5t147.5 108.5q48 48 94 48q29 0 29 -23t-36.5 -71.5t-94.5 -90.5q-143 -108 -355 -108q-78 0 -151.5 24.5t-132 69.5t-94 114.5t-35.5 153.5q0 71 30 136.5t75.5 110.5t96.5 74t97 35q-69 46 -110.5 120
t-41.5 163q0 79 25 166.5t69.5 171t110.5 159t144 133t174.5 91t197.5 33.5z" />
    <glyph glyph-name="Eacute" unicode="&#xc9;" horiz-adv-x="1150" 
d="M881 1894h-2q-19 -4 -29 13t2 32q84 107 125 218q0 1 1 2t1 2q4 14 22 18q28 4 60 4q29 0 40 -10.5t1 -36.5q-15 -41 -70 -101.5t-103 -100.5zM936 1612q89 0 162 -34t117 -90.5t72.5 -129t29.5 -149.5t-14 -152q-26 -107 -84 -189.5t-119 -68.5q-38 9 -23 39
q4 7 19.5 22.5t32.5 34t38.5 63.5t36.5 107q11 45 11.5 93.5t-8.5 95.5t-30 88.5t-50.5 73.5t-73.5 50.5t-97 18.5q-95 0 -187.5 -57t-159.5 -147t-108.5 -205t-41.5 -226q0 -216 174 -299q20 -8 31 -19q18 -16 14.5 -29.5t-23.5 -23.5q-19 -10 -41.5 -12.5t-64.5 0t-60 2.5
q-93 0 -156 -76t-63 -174q0 -108 66.5 -185t191.5 -77q95 0 168.5 36.5t147.5 108.5q48 48 94 48q29 0 29 -23t-36.5 -71.5t-94.5 -90.5q-143 -108 -355 -108q-78 0 -151.5 24.5t-132 69.5t-94 114.5t-35.5 153.5q0 71 30 136.5t75.5 110.5t96.5 74t97 35q-69 46 -110.5 120
t-41.5 163q0 79 25 166.5t69.5 171t110.5 159t144 133t174.5 91t197.5 33.5z" />
    <glyph glyph-name="Ecircumflex" unicode="&#xca;" horiz-adv-x="1150" 
d="M1018 1907q3 10 -4 20q-14 12 -17.5 55.5t-2 87t-14 78.5t-50.5 35q-20 0 -64 -62t-85 -124t-54 -62q-11 0 -12 -16q3 -21 24 -23q17 0 47 42.5t67 101.5t60 82q0 -148 11 -188t59 -40q31 0 35 13zM936 1612q89 0 162 -34t117 -90.5t72.5 -129t29.5 -149.5t-14 -152
q-26 -107 -84 -189.5t-119 -68.5q-38 9 -23 39q4 7 19.5 22.5t32.5 34t38.5 63.5t36.5 107q11 45 11.5 93.5t-8.5 95.5t-30 88.5t-50.5 73.5t-73.5 50.5t-97 18.5q-95 0 -187.5 -57t-159.5 -147t-108.5 -205t-41.5 -226q0 -216 174 -299q20 -8 31 -19q18 -16 14.5 -29.5
t-23.5 -23.5q-19 -10 -41.5 -12.5t-64.5 0t-60 2.5q-93 0 -156 -76t-63 -174q0 -108 66.5 -185t191.5 -77q95 0 168.5 36.5t147.5 108.5q48 48 94 48q29 0 29 -23t-36.5 -71.5t-94.5 -90.5q-143 -108 -355 -108q-78 0 -151.5 24.5t-132 69.5t-94 114.5t-35.5 153.5
q0 71 30 136.5t75.5 110.5t96.5 74t97 35q-69 46 -110.5 120t-41.5 163q0 79 25 166.5t69.5 171t110.5 159t144 133t174.5 91t197.5 33.5z" />
    <glyph glyph-name="Edieresis" unicode="&#xcb;" horiz-adv-x="1150" 
d="M803 2114q31 0 48.5 -21.5t12.5 -52.5q-6 -32 -32 -54t-58 -22q-31 0 -48 22t-11 54q4 30 30.5 52t57.5 22zM1001 2114q31 0 49.5 -21.5t12.5 -52.5q-6 -32 -31.5 -54t-56.5 -22t-49.5 22t-12.5 54q6 31 31.5 52.5t56.5 21.5zM936 1612q89 0 162 -34t117 -90.5t72.5 -129
t29.5 -149.5t-14 -152q-26 -107 -84 -189.5t-119 -68.5q-38 9 -23 39q4 7 19.5 22.5t32.5 34t38.5 63.5t36.5 107q11 45 11.5 93.5t-8.5 95.5t-30 88.5t-50.5 73.5t-73.5 50.5t-97 18.5q-95 0 -187.5 -57t-159.5 -147t-108.5 -205t-41.5 -226q0 -216 174 -299q20 -8 31 -19
q18 -16 14.5 -29.5t-23.5 -23.5q-19 -10 -41.5 -12.5t-64.5 0t-60 2.5q-93 0 -156 -76t-63 -174q0 -108 66.5 -185t191.5 -77q95 0 168.5 36.5t147.5 108.5q48 48 94 48q29 0 29 -23t-36.5 -71.5t-94.5 -90.5q-143 -108 -355 -108q-78 0 -151.5 24.5t-132 69.5t-94 114.5
t-35.5 153.5q0 71 30 136.5t75.5 110.5t96.5 74t97 35q-69 46 -110.5 120t-41.5 163q0 79 25 166.5t69.5 171t110.5 159t144 133t174.5 91t197.5 33.5z" />
    <glyph glyph-name="Igrave" unicode="&#xcc;" horiz-adv-x="423" 
d="M705 1901h2q19 -4 28.5 13t-2.5 32q-85 108 -125 217v4q-8 15 -24 18q-28 4 -60 4q-29 0 -40 -10.5t-1 -36.5q15 -41 70.5 -101t103.5 -100zM78 -135q-43 0 -82 27t-61 84.5t4 148.5q30 104 128.5 350t183 455.5t135 409t11.5 262.5q1 1 28.5 6t72.5 9.5t82 4.5
q114 0 114 -90q0 -74 -62 -249t-150.5 -380t-177 -409.5t-150.5 -375t-62 -239.5q0 -14 -14 -14z" />
    <glyph glyph-name="Iacute" unicode="&#xcd;" horiz-adv-x="423" 
d="M604 1901h-2q-19 -4 -29 13t2 32q85 108 125 217q0 1 1 2t1 2q4 14 23 18q28 4 59 4q29 0 40 -10.5t1 -36.5q-15 -41 -70 -101t-103 -100zM78 -135q-43 0 -82 27t-61 84.5t4 148.5q30 104 128.5 350t183 455.5t135 409t11.5 262.5q1 1 28.5 6t72.5 9.5t82 4.5
q114 0 114 -90q0 -74 -62 -249t-150.5 -380t-177 -409.5t-150.5 -375t-62 -239.5q0 -14 -14 -14z" />
    <glyph glyph-name="Icircumflex" unicode="&#xce;" horiz-adv-x="423" 
d="M741 1913q3 10 -4 20q-14 12 -17.5 55.5t-2 87t-14 78.5t-50.5 35q-20 0 -63.5 -61.5t-84.5 -123.5t-54 -62q-11 0 -12 -16q3 -21 24 -23q17 0 47 42.5t67 101t60 81.5q0 -148 11 -187.5t59 -39.5q30 0 34 12zM78 -135q-43 0 -82 27t-61 84.5t4 148.5q30 104 128.5 350
t183 455.5t135 409t11.5 262.5q1 1 28.5 6t72.5 9.5t82 4.5q114 0 114 -90q0 -74 -62 -249t-150.5 -380t-177 -409.5t-150.5 -375t-62 -239.5q0 -14 -14 -14z" />
    <glyph glyph-name="Idieresis" unicode="&#xcf;" horiz-adv-x="423" 
d="M526 2120q31 0 49 -21.5t13 -52.5q-6 -32 -32 -54t-58 -22q-31 0 -48.5 22t-11.5 54q4 30 30.5 52t57.5 22zM725 2120q31 0 49 -21.5t12 -52.5q-6 -32 -31.5 -54t-56.5 -22t-49 22t-12 54q6 31 31.5 52.5t56.5 21.5zM78 -135q-43 0 -82 27t-61 84.5t4 148.5
q30 104 128.5 350t183 455.5t135 409t11.5 262.5q1 1 28.5 6t72.5 9.5t82 4.5q114 0 114 -90q0 -74 -62 -249t-150.5 -380t-177 -409.5t-150.5 -375t-62 -239.5q0 -14 -14 -14z" />
    <glyph glyph-name="Eth" unicode="&#xd0;" horiz-adv-x="1427" 
d="M1042 1624q65 0 127 -20.5t116.5 -64t95.5 -105t65 -148.5t24 -190q0 -65 -12 -143t-37.5 -166.5t-62 -179.5t-89.5 -182t-116 -173t-144.5 -153t-172 -123t-202 -81.5t-231.5 -29.5q-108 0 -196.5 26t-141 63t-88.5 81.5t-49.5 78.5t-13.5 56q0 25 12.5 36t28.5 11
q23 0 33.5 -13t16.5 -38.5t9 -32.5q5 -12 13.5 -26t31 -39.5t51 -45t75.5 -34.5t102 -15q314 0 562 266q195 208 299 519q92 273 72 492q-19 202 -129 260q-38 20 -85 20q-115 0 -252 -166.5t-285 -486.5v-3q-18 -39 -45 -100h135q24 0 41.5 -16.5t17.5 -40.5
q0 -25 -18 -42.5t-41 -17.5h-186q-187 -429 -187 -518q0 -14 -18 -14q-81 22 -114.5 60t-33.5 114q0 64 117 358h-114q-24 0 -42 18t-18 42t18 40.5t42 16.5h161q69 175 109 284.5t79 248t40 215.5q0 25 -5.5 49.5t-9.5 30.5q3 1 13 3t22 4.5t23 4.5q72 10 123 10
q114 0 114 -92q0 -46 -18 -117h2q188 209 366 209z" />
    <glyph glyph-name="Ntilde" unicode="&#xd1;" horiz-adv-x="1189" 
d="M1094 2107q20 0 31.5 -15.5t7.5 -41.5q-8 -45 -48.5 -81t-97.5 -36q-25 0 -45 12t-32.5 28.5t-24 33.5t-27 29t-35.5 12q-23 0 -34.5 -17t-8.5 -38q4 -22 -17.5 -39t-47.5 -17q-20 0 -32.5 16t-6.5 42q6 45 46 80.5t97 35.5q30 0 53.5 -18t36 -39t32 -39t42.5 -18
t34.5 15.5t8.5 39.5q-3 22 18.5 38.5t49.5 16.5zM1040 1622q89 0 154 -36.5t98 -98t43.5 -140t-5 -166t-52.5 -173.5q-46 -108 -127 -297q-184 -429 -242.5 -593t-25.5 -208q8 -16 8 -21q0 -24 -49 -24q-76 0 -120 42t-50 107q0 71 37.5 186.5t90.5 236.5t138.5 331
t153.5 406q21 59 32.5 117.5t11.5 116t-27 93t-81 35.5q-218 0 -498 -522q-45 -108 -139.5 -327.5t-149 -348t-101 -265.5t-46.5 -194q0 -14 -14 -14q-57 0 -104.5 45t-47.5 127q0 70 76 276.5t167 423t167 446.5t76 341q0 52 -17 78q1 1 28.5 6.5t73 10.5t83.5 5
q114 0 114 -92q0 -47 -26 -143q223 233 370 233z" />
    <glyph glyph-name="Ograve" unicode="&#xd2;" horiz-adv-x="1343" 
d="M1124 1950h2q19 -4 29 13t-2 32q-85 108 -125 217v4q-8 15 -24 18q-28 4 -60 4q-29 0 -40 -10.5t-1 -36.5q15 -41 70 -101t103 -100zM1026 1624q227 0 317 -217q83 -203 29 -529q-51 -312 -201 -582q-150 -272 -335 -376q-97 -55 -195 -55q-305 0 -431 225
q-108 194 -60 502q45 290 206 555q160 263 368 388q150 89 302 89zM651 -55q160 0 319 223q149 210 238 522q91 314 65 540q-25 225 -163 262q-25 7 -53 7q-159 0 -331 -209q-162 -198 -267 -490q-110 -307 -92 -538q19 -243 181 -301q46 -16 103 -16z" />
    <glyph glyph-name="Oacute" unicode="&#xd3;" horiz-adv-x="1343" 
d="M1024 1950h-2q-19 -4 -29 13t2 32q85 108 125 217q0 1 1 2t1 2q4 14 23 18q28 4 59 4q29 0 40 -10.5t1 -36.5q-15 -41 -70 -101t-103 -100zM1026 1624q227 0 317 -217q83 -203 29 -529q-51 -312 -201 -582q-150 -272 -335 -376q-97 -55 -195 -55q-305 0 -431 225
q-108 194 -60 502q45 290 206 555q160 263 368 388q150 89 302 89zM651 -55q160 0 319 223q149 210 238 522q91 314 65 540q-25 225 -163 262q-25 7 -53 7q-159 0 -331 -209q-162 -198 -267 -490q-110 -307 -92 -538q19 -243 181 -301q46 -16 103 -16z" />
    <glyph glyph-name="Ocircumflex" unicode="&#xd4;" horiz-adv-x="1343" 
d="M1161 1962q3 10 -4 20q-14 12 -17.5 55.5t-2 87t-14 78.5t-50.5 35q-20 0 -64 -62t-85 -123.5t-54 -61.5q-11 0 -12 -16q3 -21 25 -23q17 0 47 42.5t67 101t60 81.5q0 -149 10.5 -188t58.5 -39q31 0 35 12zM1026 1624q227 0 317 -217q83 -203 29 -529q-51 -312 -201 -582
q-150 -272 -335 -376q-97 -55 -195 -55q-305 0 -431 225q-108 194 -60 502q45 290 206 555q160 263 368 388q150 89 302 89zM651 -55q160 0 319 223q149 210 238 522q91 314 65 540q-25 225 -163 262q-25 7 -53 7q-159 0 -331 -209q-162 -198 -267 -490q-110 -307 -92 -538
q19 -243 181 -301q46 -16 103 -16z" />
    <glyph glyph-name="Otilde" unicode="&#xd5;" horiz-adv-x="1343" 
d="M1174 2179q20 0 31 -15t7 -42q-8 -45 -48.5 -81t-96.5 -36q-25 0 -45 12t-32.5 28.5t-24 33.5t-27 29t-35.5 12q-23 0 -34.5 -17.5t-8.5 -38.5q4 -22 -17.5 -38.5t-47.5 -16.5q-20 0 -32.5 15.5t-6.5 41.5q7 45 46.5 81t96.5 36q30 0 53.5 -18t36 -39.5t32 -39.5
t42.5 -18t34.5 16t8.5 40q-3 22 18.5 38.5t49.5 16.5zM1026 1624q227 0 317 -217q83 -203 29 -529q-51 -312 -201 -582q-150 -272 -335 -376q-97 -55 -195 -55q-305 0 -431 225q-108 194 -60 502q45 290 206 555q160 263 368 388q150 89 302 89zM651 -55q160 0 319 223
q149 210 238 522q91 314 65 540q-25 225 -163 262q-25 7 -53 7q-159 0 -331 -209q-162 -198 -267 -490q-110 -307 -92 -538q19 -243 181 -301q46 -16 103 -16z" />
    <glyph glyph-name="Odieresis" unicode="&#xd6;" horiz-adv-x="1343" 
d="M946 2169q31 0 49 -21.5t13 -52.5q-6 -32 -32 -54t-58 -22q-31 0 -48.5 22t-11.5 54q4 30 30.5 52t57.5 22zM1145 2169q31 0 49 -21.5t12 -52.5q-6 -32 -31.5 -54t-56.5 -22t-49 22t-12 54q6 31 31.5 52.5t56.5 21.5zM1026 1624q227 0 317 -217q83 -203 29 -529
q-51 -312 -201 -582q-150 -272 -335 -376q-97 -55 -195 -55q-305 0 -431 225q-108 194 -60 502q45 290 206 555q160 263 368 388q150 89 302 89zM651 -55q160 0 319 223q149 210 238 522q91 314 65 540q-25 225 -163 262q-25 7 -53 7q-159 0 -331 -209q-162 -198 -267 -490
q-110 -307 -92 -538q19 -243 181 -301q46 -16 103 -16z" />
    <glyph glyph-name="multiply" unicode="&#xd7;" horiz-adv-x="663" 
d="M272 987q-24 -5 -32 -8q-23 -10 -9 -31q10 -12 19.5 -18t17 -12.5t30 -43t58.5 -106.5q3 -12 -2 -20q-28 -38 -54 -68t-43.5 -47t-36 -30t-27 -17.5t-20.5 -9t-13 -5.5q-18 -9 -8 -38q12 -34 44 -38q41 -5 91 48q25 26 37.5 40.5t18 21t18.5 24.5t30 39q8 8 13.5 7
t14 -12t15.5 -26t19.5 -34t26 -36.5t34 -34.5t43.5 -26q10 -4 25 3.5t24.5 19t3.5 18.5q-72 71 -112 135t-29 80q13 20 86.5 105t93.5 98q20 15 -12 24q-41 11 -76 -3q-13 -5 -18 -13q-12 -16 -53.5 -67t-57.5 -66q-11 -11 -20 2l-7 12q-7 13 -11 19t-12.5 20.5t-15 23
t-16.5 21t-19 20t-19 15t-20 11t-20 3.5z" />
    <glyph glyph-name="Oslash" unicode="&#xd8;" horiz-adv-x="1343" 
d="M1450 1884q0 -121 -129 -432q59 -108 68.5 -271.5t-23 -337.5t-103.5 -350.5t-164 -315t-214 -225.5t-244 -87q-37 0 -55 2q-113 -271 -113 -379q0 -20 -16 -20q-63 0 -104.5 38t-56 121t22.5 213q3 11 33 99q-96 61 -150 168.5t-63 236t16.5 275.5t81.5 288t140 271.5
t183.5 229t221 157.5t244.5 59q24 0 64 -4q87 272 30 360q1 4 23 12t61.5 15.5t77.5 7.5q168 0 168 -131zM1049 1499q-71 -3 -147 -49.5t-144.5 -123.5t-132 -179.5t-113.5 -215.5t-85.5 -233.5t-51 -231t-7.5 -210.5t42 -170q59 140 304.5 656t334.5 757zM651 -55
q67 0 136 41.5t128.5 113t116.5 167t99.5 203.5t77.5 223t50.5 225.5t18.5 210.5t-18 178q-92 -209 -322.5 -685t-316.5 -675q10 -2 30 -2z" />
    <glyph glyph-name="Ugrave" unicode="&#xd9;" horiz-adv-x="1198" 
d="M942 1894h2q19 -4 29 13t-2 32q-84 107 -125 218v4q-8 15 -25 18q-28 4 -59 4q-29 0 -40 -10.5t-1 -36.5q15 -41 70 -101.5t103 -100.5zM889 -90q8 -11 8 -21q0 -11 -13.5 -17.5t-29.5 -6.5h-6q-47 0 -57 6q-66 20 -96.5 83.5t-8.5 156.5q-234 -244 -381 -244
q-143 0 -218 89t-75 239q0 70 17 141.5t37.5 120t54 124t51.5 124.5q106 252 174 475t68 344q0 52 -17 78l37 8q78 12 144 12q57 0 88.5 -20t31.5 -70q0 -60 -44 -195t-95 -258.5t-100.5 -239.5t-52.5 -124q-2 -5 -36 -88t-45.5 -113t-39.5 -107t-39.5 -121t-23 -101.5
t-11.5 -98.5q0 -133 106 -133q70 0 148.5 57t145.5 142t130 190.5t106 196.5t71 166q126 299 197 502t71 317q0 52 -17 78q1 1 33.5 6t77 9.5t70.5 4.5q56 0 84 -23t28 -75q0 -100 -113 -381.5t-258 -613.5t-188 -468q-2 -6 -8 -24.5t-7.5 -25.5t-5.5 -22.5t-4.5 -23.5
t-0.5 -19.5t3 -20t9 -15.5z" />
    <glyph glyph-name="Uacute" unicode="&#xda;" horiz-adv-x="1198" 
d="M842 1894h-2q-19 -4 -29 13t2 32q84 107 125 218q0 1 1 2t1 2q4 14 23 18q28 4 59 4q29 0 40 -10.5t1 -36.5q-15 -41 -70 -101.5t-103 -100.5zM889 -90q8 -11 8 -21q0 -11 -13.5 -17.5t-29.5 -6.5h-6q-47 0 -57 6q-66 20 -96.5 83.5t-8.5 156.5q-234 -244 -381 -244
q-143 0 -218 89t-75 239q0 70 17 141.5t37.5 120t54 124t51.5 124.5q106 252 174 475t68 344q0 52 -17 78l37 8q78 12 144 12q57 0 88.5 -20t31.5 -70q0 -60 -44 -195t-95 -258.5t-100.5 -239.5t-52.5 -124q-2 -5 -36 -88t-45.5 -113t-39.5 -107t-39.5 -121t-23 -101.5
t-11.5 -98.5q0 -133 106 -133q70 0 148.5 57t145.5 142t130 190.5t106 196.5t71 166q126 299 197 502t71 317q0 52 -17 78q1 1 33.5 6t77 9.5t70.5 4.5q56 0 84 -23t28 -75q0 -100 -113 -381.5t-258 -613.5t-188 -468q-2 -6 -8 -24.5t-7.5 -25.5t-5.5 -22.5t-4.5 -23.5
t-0.5 -19.5t3 -20t9 -15.5z" />
    <glyph glyph-name="Ucircumflex" unicode="&#xdb;" horiz-adv-x="1198" 
d="M979 1907q3 10 -4 20q-14 12 -17.5 55.5t-2 87t-14 78.5t-50.5 35q-20 0 -64 -62t-85 -124t-54 -62q-11 0 -12 -16q3 -21 24 -23q17 0 47 42.5t67 101.5t60 82q0 -148 11 -188t59 -40q31 0 35 13zM889 -90q8 -11 8 -21q0 -11 -13.5 -17.5t-29.5 -6.5h-6q-47 0 -57 6
q-66 20 -96.5 83.5t-8.5 156.5q-234 -244 -381 -244q-143 0 -218 89t-75 239q0 70 17 141.5t37.5 120t54 124t51.5 124.5q106 252 174 475t68 344q0 52 -17 78l37 8q78 12 144 12q57 0 88.5 -20t31.5 -70q0 -60 -44 -195t-95 -258.5t-100.5 -239.5t-52.5 -124q-2 -5 -36 -88
t-45.5 -113t-39.5 -107t-39.5 -121t-23 -101.5t-11.5 -98.5q0 -133 106 -133q70 0 148.5 57t145.5 142t130 190.5t106 196.5t71 166q126 299 197 502t71 317q0 52 -17 78q1 1 33.5 6t77 9.5t70.5 4.5q56 0 84 -23t28 -75q0 -100 -113 -381.5t-258 -613.5t-188 -468
q-2 -6 -8 -24.5t-7.5 -25.5t-5.5 -22.5t-4.5 -23.5t-0.5 -19.5t3 -20t9 -15.5z" />
    <glyph glyph-name="Udieresis" unicode="&#xdc;" horiz-adv-x="1198" 
d="M764 2114q31 0 48.5 -21.5t12.5 -52.5q-6 -32 -32 -54t-58 -22q-31 0 -48 22t-11 54q4 30 30.5 52t57.5 22zM963 2114q31 0 49 -21.5t12 -52.5q-6 -32 -31.5 -54t-56.5 -22t-49.5 22t-12.5 54q6 31 32 52.5t57 21.5zM889 -90q8 -11 8 -21q0 -11 -13.5 -17.5t-29.5 -6.5
h-6q-47 0 -57 6q-66 20 -96.5 83.5t-8.5 156.5q-234 -244 -381 -244q-143 0 -218 89t-75 239q0 70 17 141.5t37.5 120t54 124t51.5 124.5q106 252 174 475t68 344q0 52 -17 78l37 8q78 12 144 12q57 0 88.5 -20t31.5 -70q0 -60 -44 -195t-95 -258.5t-100.5 -239.5
t-52.5 -124q-2 -5 -36 -88t-45.5 -113t-39.5 -107t-39.5 -121t-23 -101.5t-11.5 -98.5q0 -133 106 -133q70 0 148.5 57t145.5 142t130 190.5t106 196.5t71 166q126 299 197 502t71 317q0 52 -17 78q1 1 33.5 6t77 9.5t70.5 4.5q56 0 84 -23t28 -75q0 -100 -113 -381.5
t-258 -613.5t-188 -468q-2 -6 -8 -24.5t-7.5 -25.5t-5.5 -22.5t-4.5 -23.5t-0.5 -19.5t3 -20t9 -15.5z" />
    <glyph glyph-name="Yacute" unicode="&#xdd;" horiz-adv-x="942" 
d="M717 1894h-2q-19 -4 -29 13t2 32q84 107 125 218q0 1 1 2t1 2q4 14 23 18q28 4 59 4q29 0 40 -10.5t1 -36.5q-15 -41 -70 -101.5t-103 -100.5zM713 246q-61 -118 -86 -157q-172 -265 -461 -265q-125 0 -199.5 93t-56.5 263q5 54 26 112.5t42.5 100.5t39 96t17.5 101
q0 14 -3 31t-3 20q0 14 14 22.5t29 8.5q54 0 105.5 -59.5t51.5 -143.5q0 -49 -19.5 -111.5t-45.5 -115t-48 -108t-30 -96.5t12.5 -73t75.5 -45q48 -9 111 33t123 133q35 57 70.5 137.5t94.5 230t93 230.5q-69 -27 -129 -27q-130 0 -197.5 72t-67.5 199q0 68 21.5 151
t47.5 147.5t47.5 146.5t21.5 149q0 52 -19 80q1 1 20.5 6t51.5 9.5t59 4.5q56 0 95.5 -23t39.5 -69q0 -68 -74 -258q-79 -203 -97 -271q-51 -189 40 -225q26 -10 60 -10q42 0 91 54t91 137.5t80.5 184t59.5 193.5t29 166t-11 101l12 2q11 2 29.5 5t40.5 6t47 5t45 2
q78 0 99 -40t7 -128q-16 -93 -209 -560.5t-284 -647.5z" />
    <glyph glyph-name="Thorn" unicode="&#xde;" horiz-adv-x="1171" 
d="M928 1294q144 0 218.5 -91.5t74.5 -237.5q0 -110 -38 -223t-108 -210t-160 -173t-202.5 -120t-227.5 -44q-96 0 -149 38t-53 89q0 24 20 24q15 0 56 -22.5t81 -22.5q80 0 167.5 52t160 136.5t132 184.5t93 203.5t33.5 185.5q0 145 -104 145q-64 0 -137 -49t-142 -131.5
t-139 -189.5t-130 -222.5t-112.5 -231.5t-89.5 -216t-58.5 -176.5t-21.5 -112.5q0 -14 -14 -14q-43 0 -82 27t-61 84.5t4 148.5q30 104 128.5 350t183 455.5t135 409t11.5 262.5q1 1 28.5 6t72.5 9.5t82 4.5q114 0 114 -90q0 -115 -153 -485q12 6 55.5 48t91 84.5t115 78.5
t125.5 36z" />
    <glyph glyph-name="germandbls" unicode="&#xdf;" horiz-adv-x="827" 
d="M674 821q-2 3 22 24.5t60.5 60.5t73 88.5t62.5 121t26 146.5q0 103 -68.5 171t-183.5 68q-74 0 -148.5 -50.5t-136 -134t-120 -189.5t-104 -218.5t-83.5 -219t-63 -194t-38.5 -140.5t-13.5 -60q0 -47 23 -83.5t61 -45.5q16 -4 29 -4q14 0 14 14q0 36 20.5 139t56 242
t87.5 289t109.5 276.5t128.5 208.5t139 82q79 0 117 -49t38 -129q0 -72 -36.5 -157.5t-96 -155.5t-121.5 -101q-8 -4 -8 -6t8 -18q46 -103 49 -202.5t-31 -172.5t-102 -117.5t-157 -44.5q-25 0 -57 18.5t-44 18.5q-39 0 -39 -33v-2q0 -44 67 -73t138 -29q117 0 204 40
t132.5 107.5t60.5 152.5t-5 178.5t-70 182.5z" />
    <glyph glyph-name="agrave" unicode="&#xe0;" horiz-adv-x="899" 
d="M692 1147h2q19 -4 29 13t-2 32q-85 108 -125 217v4q-8 16 -25 19q-28 4 -59 4q-29 0 -40 -10.5t-1 -36.5q15 -41 70 -101.5t103 -100.5zM1047 573q-48 -83 -100 -152.5t-111.5 -129.5t-124.5 -94.5t-127 -34.5q-71 0 -107 36t-33 105q-56 -62 -134 -101.5t-148 -39.5
q-124 0 -151 112q-26 109 44 265q72 159 195 258q111 88 225 88q57 0 103 -25t59 -72q19 58 8 95q5 0 20 1t23 1q123 0 123 -92q0 -31 -77 -161q-94 -161 -117 -222q-45 -125 55 -125q31 0 64 17.5t61.5 43.5t61 67t56.5 76.5t54 83.5q20 34 56 39q28 3 29 -17q1 -9 -7 -22z
M258 274q42 0 81 21.5t66.5 50.5t58 78.5t48 85.5t43.5 91.5t37 78.5q-35 -13 -59 -5q-5 3 -3 5q29 23 37 53.5t-7 53t-48 22.5q-114 0 -213 -132q-82 -109 -107 -236q-24 -119 26 -155q16 -12 40 -12z" />
    <glyph glyph-name="aacute" unicode="&#xe1;" horiz-adv-x="899" 
d="M592 1147h-2q-19 -4 -29 13t2 32q85 108 125 217q0 1 1 2t1 2q4 15 23 19q28 4 59 4q29 0 40 -10.5t1 -36.5q-15 -41 -70 -101.5t-103 -100.5zM1047 573q-48 -83 -100 -152.5t-111.5 -129.5t-124.5 -94.5t-127 -34.5q-71 0 -107 36t-33 105q-56 -62 -134 -101.5
t-148 -39.5q-124 0 -151 112q-26 109 44 265q72 159 195 258q111 88 225 88q57 0 103 -25t59 -72q19 58 8 95q5 0 20 1t23 1q123 0 123 -92q0 -31 -77 -161q-94 -161 -117 -222q-45 -125 55 -125q31 0 64 17.5t61.5 43.5t61 67t56.5 76.5t54 83.5q20 34 56 39q28 3 29 -17
q1 -9 -7 -22zM258 274q42 0 81 21.5t66.5 50.5t58 78.5t48 85.5t43.5 91.5t37 78.5q-35 -13 -59 -5q-5 3 -3 5q29 23 37 53.5t-7 53t-48 22.5q-114 0 -213 -132q-82 -109 -107 -236q-24 -119 26 -155q16 -12 40 -12z" />
    <glyph glyph-name="acircumflex" unicode="&#xe2;" horiz-adv-x="899" 
d="M729 1159q3 11 -4 21q-14 12 -17.5 55.5t-2 87t-14 78.5t-50.5 35q-20 0 -64 -62t-85 -124t-54 -62q-11 0 -12 -16q3 -21 25 -23q17 0 47 42.5t67 101t60 81.5q0 -149 10.5 -188t58.5 -39q31 0 35 12zM1047 573q-48 -83 -100 -152.5t-111.5 -129.5t-124.5 -94.5
t-127 -34.5q-71 0 -107 36t-33 105q-56 -62 -134 -101.5t-148 -39.5q-124 0 -151 112q-26 109 44 265q72 159 195 258q111 88 225 88q57 0 103 -25t59 -72q19 58 8 95q5 0 20 1t23 1q123 0 123 -92q0 -31 -77 -161q-94 -161 -117 -222q-45 -125 55 -125q31 0 64 17.5
t61.5 43.5t61 67t56.5 76.5t54 83.5q20 34 56 39q28 3 29 -17q1 -9 -7 -22zM258 274q42 0 81 21.5t66.5 50.5t58 78.5t48 85.5t43.5 91.5t37 78.5q-35 -13 -59 -5q-5 3 -3 5q29 23 37 53.5t-7 53t-48 22.5q-114 0 -213 -132q-82 -109 -107 -236q-24 -119 26 -155
q16 -12 40 -12z" />
    <glyph glyph-name="atilde" unicode="&#xe3;" horiz-adv-x="899" 
d="M741 1376q20 0 31.5 -15.5t7.5 -41.5q-8 -45 -48.5 -81t-96.5 -36q-25 0 -45 12t-32.5 29t-24 33.5t-27 28.5t-35.5 12q-23 0 -34.5 -17t-8.5 -38q4 -22 -18 -39t-48 -17q-20 0 -32 16t-6 42q6 45 46 80.5t97 35.5q30 0 53.5 -18t36 -39t32 -39t42.5 -18t34.5 15.5
t8.5 39.5q-3 22 18.5 38.5t48.5 16.5zM1047 573q-48 -83 -100 -152.5t-111.5 -129.5t-124.5 -94.5t-127 -34.5q-71 0 -107 36t-33 105q-56 -62 -134 -101.5t-148 -39.5q-124 0 -151 112q-26 109 44 265q72 159 195 258q111 88 225 88q57 0 103 -25t59 -72q19 58 8 95
q5 0 20 1t23 1q123 0 123 -92q0 -31 -77 -161q-94 -161 -117 -222q-45 -125 55 -125q31 0 64 17.5t61.5 43.5t61 67t56.5 76.5t54 83.5q20 34 56 39q28 3 29 -17q1 -9 -7 -22zM258 274q42 0 81 21.5t66.5 50.5t58 78.5t48 85.5t43.5 91.5t37 78.5q-35 -13 -59 -5q-5 3 -3 5
q29 23 37 53.5t-7 53t-48 22.5q-114 0 -213 -132q-82 -109 -107 -236q-24 -119 26 -155q16 -12 40 -12z" />
    <glyph glyph-name="adieresis" unicode="&#xe4;" horiz-adv-x="899" 
d="M514 1366q31 0 48.5 -21.5t12.5 -52.5q-6 -32 -32 -53.5t-58 -21.5q-31 0 -48 21.5t-11 53.5q4 30 30.5 52t57.5 22zM713 1366q31 0 49 -21.5t12 -52.5q-6 -32 -31.5 -53.5t-56.5 -21.5t-49 21.5t-12 53.5q6 31 31.5 52.5t56.5 21.5zM1047 573q-48 -83 -100 -152.5
t-111.5 -129.5t-124.5 -94.5t-127 -34.5q-71 0 -107 36t-33 105q-56 -62 -134 -101.5t-148 -39.5q-124 0 -151 112q-26 109 44 265q72 159 195 258q111 88 225 88q57 0 103 -25t59 -72q19 58 8 95q5 0 20 1t23 1q123 0 123 -92q0 -31 -77 -161q-94 -161 -117 -222
q-45 -125 55 -125q31 0 64 17.5t61.5 43.5t61 67t56.5 76.5t54 83.5q20 34 56 39q28 3 29 -17q1 -9 -7 -22zM258 274q42 0 81 21.5t66.5 50.5t58 78.5t48 85.5t43.5 91.5t37 78.5q-35 -13 -59 -5q-5 3 -3 5q29 23 37 53.5t-7 53t-48 22.5q-114 0 -213 -132
q-82 -109 -107 -236q-24 -119 26 -155q16 -12 40 -12z" />
    <glyph glyph-name="aring" unicode="&#xe5;" horiz-adv-x="899" 
d="M649 1149q55 0 99 71.5t30 142.5t-98 71q-56 0 -101.5 -71t-32 -142.5t102.5 -71.5zM741 1331q0 -50 -32.5 -95.5t-59.5 -45.5q-34 0 -21 66q13 67 49 111q19 21 34 22q13 0 21.5 -16.5t8.5 -41.5zM1047 573q-48 -83 -100 -152.5t-111.5 -129.5t-124.5 -94.5t-127 -34.5
q-71 0 -107 36t-33 105q-56 -62 -134 -101.5t-148 -39.5q-124 0 -151 112q-26 109 44 265q72 159 195 258q111 88 225 88q57 0 103 -25t59 -72q19 58 8 95q5 0 20 1t23 1q123 0 123 -92q0 -31 -77 -161q-94 -161 -117 -222q-45 -125 55 -125q31 0 64 17.5t61.5 43.5t61 67
t56.5 76.5t54 83.5q20 34 56 39q28 3 29 -17q1 -9 -7 -22zM258 274q42 0 81 21.5t66.5 50.5t58 78.5t48 85.5t43.5 91.5t37 78.5q-35 -13 -59 -5q-5 3 -3 5q29 23 37 53.5t-7 53t-48 22.5q-114 0 -213 -132q-82 -109 -107 -236q-24 -119 26 -155q16 -12 40 -12z" />
    <glyph glyph-name="ae" unicode="&#xe6;" horiz-adv-x="1038" 
d="M1188 573l-6 -10q-54 -88 -107 -154t-120.5 -125t-148.5 -90.5t-171 -31.5h-29q-49 3 -88 22h-2q-37 19 -57 52l-4 4l-6 14q-11 22 -11 41q-56 -59 -132 -96t-144 -37q-124 0 -151 112q-26 109 44 265q72 159 195 258q111 88 225 88q53 0 96.5 -21.5t61.5 -62.5q2 4 10 8
l21 14q63 36 102 47l31 7q4 3 30.5 5.5t65.5 -1t65 -17.5q59 -29 66 -96q-1 -80 -44 -128.5t-80 -48t-44 2.5q63 54 77 126q12 63 -25 82q-11 5 -25 5q-36 0 -72 -19q-50 -25 -83.5 -74t-33.5 -100q0 -12 8 -36q23 -41 93 -60q-7 -26 -14.5 -37.5t-24.5 -11.5
q-47 0 -86.5 -25t-61.5 -61q-15 -29 -16.5 -55.5t21 -45t65.5 -18.5q94 0 176 45q136 72 256 264q9 16 26.5 27.5t34.5 11.5q13 0 19.5 -11t-2.5 -28zM528 545l64 135q-35 -13 -59 -5q-5 3 -3 5q35 26 39 70q2 25 -13.5 42t-43.5 17q-114 0 -213 -132q-82 -109 -107 -236
q-24 -119 26 -155q16 -12 40 -12q45 0 86 22.5t74.5 65t58.5 84.5t51 99z" />
    <glyph glyph-name="ccedilla" unicode="&#xe7;" horiz-adv-x="667" 
d="M752 594q22 36 52 30q23 -4 22 -26q-1 -10 -7 -20q-45 -75 -85.5 -133t-94.5 -117t-109 -98t-123.5 -63t-142.5 -24q-57 0 -110 17q6 -6 6 -21q0 -5 -10 -19.5t-13 -21.5q19 -19 26 -57t-1 -76t-41 -66t-86 -28q-27 0 -43 13.5t-17.5 32.5t4 38.5t19 33t29.5 13.5
q4 0 4 -6q0 -3 -1.5 -5t-4 -4t-6.5 -8t-7 -14q-7 -12 -1.5 -30.5t24.5 -18.5q34 0 52.5 28t15.5 63.5t-23 55.5q-14 14 -14 27q0 8 2 10l15 21q15 21 15 43q6 4 33 4h2q-46 21 -74 59.5t-35.5 86t-1.5 103t28.5 112t54 111t75.5 102t92 83.5t104.5 57t112.5 21
q84 0 124 -37.5t40 -97.5q0 -86 -66.5 -165t-152.5 -79q-22 0 -22 27t22 27q48 0 89.5 62t41.5 120q0 61 -57 61q-89 0 -183 -117q-87 -109 -118 -238q-34 -139 31 -190q30 -24 79 -24q47 0 96 17t105 54.5t116.5 106.5t117.5 164z" />
    <glyph glyph-name="egrave" unicode="&#xe8;" horiz-adv-x="671" 
d="M621 1149h2q19 -4 28.5 13t-2.5 32q-85 108 -125 217v4q-8 16 -24 19q-28 4 -60 4q-29 0 -40 -10.5t-1 -36.5q15 -41 70.5 -101.5t103.5 -100.5zM821 573q-53 -91 -107 -162.5t-122.5 -135t-151 -98t-172.5 -34.5q-80 0 -131.5 37t-64 91t10.5 118t79 115q11 9 9.5 24
t-13.5 21t-17 6q-4 0 -8 -1t-6.5 -2.5t-7.5 -5t-10 -5.5q-13 -8 -28 -4t-15 18q0 9 6 18q54 90 115.5 160.5t131 118t138 56.5t135.5 -25q80 -44 48 -155q-22 -77 -77 -131q-46 -46 -66 -23q-6 8 -8 24q44 40 65.5 93t11.5 91.5t-50 38.5q-72 0 -130 -63.5t-58 -136.5
q0 -72 100 -103q-7 -28 -14.5 -39.5t-24.5 -11.5q-77 0 -129 -63q-44 -53 -33 -101q12 -51 84 -51q242 0 437 328q25 42 58 42q21 -1 23 -21q1 -13 -8 -28z" />
    <glyph glyph-name="eacute" unicode="&#xe9;" horiz-adv-x="671" 
d="M520 1149h-2q-19 -4 -28.5 13t2.5 32q83 106 124 217q0 1 1 2t1 2q4 15 23 19q28 4 59 4q29 0 40 -10.5t1 -36.5q-15 -41 -70 -101.5t-103 -100.5zM821 573q-53 -91 -107 -162.5t-122.5 -135t-151 -98t-172.5 -34.5q-80 0 -131.5 37t-64 91t10.5 118t79 115q11 9 9.5 24
t-13.5 21t-17 6q-4 0 -8 -1t-6.5 -2.5t-7.5 -5t-10 -5.5q-13 -8 -28 -4t-15 18q0 9 6 18q54 90 115.5 160.5t131 118t138 56.5t135.5 -25q80 -44 48 -155q-22 -77 -77 -131q-46 -46 -66 -23q-6 8 -8 24q44 40 65.5 93t11.5 91.5t-50 38.5q-72 0 -130 -63.5t-58 -136.5
q0 -72 100 -103q-7 -28 -14.5 -39.5t-24.5 -11.5q-77 0 -129 -63q-44 -53 -33 -101q12 -51 84 -51q242 0 437 328q25 42 58 42q21 -1 23 -21q1 -13 -8 -28z" />
    <glyph glyph-name="ecircumflex" unicode="&#xea;" horiz-adv-x="671" 
d="M657 1161q3 11 -4 21q-14 12 -17.5 55.5t-2 87t-14 78.5t-50.5 35q-20 0 -63.5 -62t-84.5 -124t-54 -62q-11 0 -12 -16q3 -21 24 -23q17 0 47 42.5t67 101t60 81.5q0 -148 11 -187.5t59 -39.5q30 0 34 12zM821 573q-53 -91 -107 -162.5t-122.5 -135t-151 -98
t-172.5 -34.5q-80 0 -131.5 37t-64 91t10.5 118t79 115q11 9 9.5 24t-13.5 21t-17 6q-4 0 -8 -1t-6.5 -2.5t-7.5 -5t-10 -5.5q-13 -8 -28 -4t-15 18q0 9 6 18q54 90 115.5 160.5t131 118t138 56.5t135.5 -25q80 -44 48 -155q-22 -77 -77 -131q-46 -46 -66 -23q-6 8 -8 24
q44 40 65.5 93t11.5 91.5t-50 38.5q-72 0 -130 -63.5t-58 -136.5q0 -72 100 -103q-7 -28 -14.5 -39.5t-24.5 -11.5q-77 0 -129 -63q-44 -53 -33 -101q12 -51 84 -51q242 0 437 328q25 42 58 42q21 -1 23 -21q1 -13 -8 -28z" />
    <glyph glyph-name="edieresis" unicode="&#xeb;" horiz-adv-x="671" 
d="M442 1368q31 0 49 -21.5t13 -52.5q-6 -32 -32 -53.5t-58 -21.5q-31 0 -48.5 21.5t-11.5 53.5q4 30 30.5 52t57.5 22zM641 1368q31 0 49 -21.5t12 -52.5q-6 -32 -31.5 -53.5t-56.5 -21.5t-49 21.5t-12 53.5q6 31 31.5 52.5t56.5 21.5zM821 573q-53 -91 -107 -162.5
t-122.5 -135t-151 -98t-172.5 -34.5q-80 0 -131.5 37t-64 91t10.5 118t79 115q11 9 9.5 24t-13.5 21t-17 6q-4 0 -8 -1t-6.5 -2.5t-7.5 -5t-10 -5.5q-13 -8 -28 -4t-15 18q0 9 6 18q54 90 115.5 160.5t131 118t138 56.5t135.5 -25q80 -44 48 -155q-22 -77 -77 -131
q-46 -46 -66 -23q-6 8 -8 24q44 40 65.5 93t11.5 91.5t-50 38.5q-72 0 -130 -63.5t-58 -136.5q0 -72 100 -103q-7 -28 -14.5 -39.5t-24.5 -11.5q-77 0 -129 -63q-44 -53 -33 -101q12 -51 84 -51q242 0 437 328q25 42 58 42q21 -1 23 -21q1 -13 -8 -28z" />
    <glyph glyph-name="igrave" unicode="&#xec;" horiz-adv-x="430" 
d="M496 1145h2q19 -4 28.5 13t-2.5 32q-85 108 -125 217v4q-8 16 -24 19q-28 4 -60 4q-59 0 -41 -48q15 -41 70.5 -101t103.5 -100zM117 162q-140 0 -140 131q0 62 32 146t70.5 152.5t70.5 143t32 119.5q0 21 -4 29q4 2 43 2q156 0 156 -88q0 -24 -35 -87t-77.5 -128
t-77.5 -136t-35 -110q0 -51 63 -51q34 0 74 27t79.5 73.5t71 91t62.5 96.5q24 40 59 41q24 1 26 -18q0 -11 -7 -23q-66 -113 -135.5 -200.5t-157.5 -149t-170 -61.5z" />
    <glyph glyph-name="iacute" unicode="&#xed;" horiz-adv-x="430" 
d="M395 1145h-2q-19 -4 -28.5 13t2.5 32q85 108 125 217q0 1 1 2t1 2q4 15 22 19q28 4 59 4q59 0 41 -48q-15 -41 -70 -101t-103 -100zM117 162q-140 0 -140 131q0 62 32 146t70.5 152.5t70.5 143t32 119.5q0 21 -4 29q4 2 43 2q156 0 156 -88q0 -24 -35 -87t-77.5 -128
t-77.5 -136t-35 -110q0 -51 63 -51q34 0 74 27t79.5 73.5t71 91t62.5 96.5q24 40 59 41q24 1 26 -18q0 -11 -7 -23q-66 -113 -135.5 -200.5t-157.5 -149t-170 -61.5z" />
    <glyph glyph-name="icircumflex" unicode="&#xee;" horiz-adv-x="430" 
d="M532 1157q3 11 -4 21q-14 12 -17.5 55.5t-2 87t-14 78.5t-50.5 35q-20 0 -63.5 -62t-84.5 -124t-54 -62q-11 0 -12 -16q3 -21 24 -23q17 0 47 42.5t67 101t60 81.5q0 -148 11 -187.5t59 -39.5q30 0 34 12zM117 162q-140 0 -140 131q0 62 32 146t70.5 152.5t70.5 143
t32 119.5q0 21 -4 29q4 2 43 2q156 0 156 -88q0 -24 -35 -87t-77.5 -128t-77.5 -136t-35 -110q0 -51 63 -51q34 0 74 27t79.5 73.5t71 91t62.5 96.5q24 40 59 41q24 1 26 -18q0 -11 -7 -23q-66 -113 -135.5 -200.5t-157.5 -149t-170 -61.5z" />
    <glyph glyph-name="idieresis" unicode="&#xef;" horiz-adv-x="430" 
d="M317 1364q31 0 49 -21.5t13 -52.5q-6 -32 -32 -54t-58 -22q-31 0 -48.5 22t-11.5 54q4 30 30.5 52t57.5 22zM516 1364q31 0 49.5 -21.5t12.5 -52.5q-6 -32 -32 -54t-57 -22t-49 22t-12 54q6 31 31.5 52.5t56.5 21.5zM117 162q-140 0 -140 131q0 62 32 146t70.5 152.5
t70.5 143t32 119.5q0 21 -4 29q4 2 43 2q156 0 156 -88q0 -24 -35 -87t-77.5 -128t-77.5 -136t-35 -110q0 -51 63 -51q34 0 74 27t79.5 73.5t71 91t62.5 96.5q24 40 59 41q24 1 26 -18q0 -11 -7 -23q-66 -113 -135.5 -200.5t-157.5 -149t-170 -61.5z" />
    <glyph glyph-name="eth" unicode="&#xf0;" horiz-adv-x="686" 
d="M723 1229l-148 -51q43 -102 65 -219.5t22 -232.5t-25.5 -221t-72.5 -186.5t-125.5 -129t-178.5 -48.5q-99 0 -157.5 41.5t-72.5 111.5t4.5 159t69.5 188q7 16 15.5 32.5t12.5 23.5t7 18t2.5 22.5t-4.5 28.5h74q18 42 63 75t112.5 41t143.5 -42q-9 163 -65 301l-174 -60
q-14 -5 -24 4t-9 21.5t16 17.5l175 60q-40 91 -95 154.5t-116 86.5q-1 0 -3.5 1t-3.5 1q-17 6 -25 22.5t-3 35.5q6 19 22 28t35 5h2q2 0 2 -2h4q176 -61 289 -295l152 51q13 5 22 -4t7.5 -21.5t-15.5 -17.5zM281 215q70 0 132 71.5t92 165.5t25 190t-55 140q-54 49 -117 23
q-46 -19 -59 -60q-15 -48 33 -79q8 -4 16.5 -7t13.5 -4.5t8 -4t3 -7.5q0 -9 -23.5 -18t-36.5 -9q-11 -21 -35 -58.5t-41.5 -65.5t-32 -72t-14.5 -90q0 -43 24 -79t67 -36z" />
    <glyph glyph-name="ntilde" unicode="&#xf1;" horiz-adv-x="919" 
d="M756 1380q20 0 31.5 -15.5t7.5 -41.5q-8 -45 -48.5 -81t-97.5 -36q-25 0 -45 12t-32.5 29t-24 33.5t-27 28.5t-35.5 12q-23 0 -34.5 -17t-8.5 -38q4 -22 -17.5 -39t-47.5 -17q-20 0 -32.5 16t-6.5 42q6 45 46 80.5t97 35.5q30 0 53.5 -18t36 -39t32 -39t42.5 -18
t34.5 15.5t8.5 39.5q-3 22 18.5 38.5t49.5 16.5zM1069 573q-105 -179 -224 -295t-237 -116q-139 0 -139 119q0 69 45 178t90 200.5t45 118.5q0 17 -14 17q-50 0 -139.5 -85t-173 -195.5t-142.5 -211.5q-10 -18 -26.5 -53.5t-27.5 -61.5l-11 -26q-72 0 -105 36t-33 95
q0 62 32 146t70.5 152.5t70.5 143t32 119.5q0 21 -2 29q4 0 18 1t23 1q156 0 156 -92q0 -25 -38 -90t-90.5 -150t-74.5 -137q41 60 81.5 113.5t99 122t111 117t110.5 82.5t104 34q119 0 119 -94q0 -54 -39.5 -145.5t-79 -176t-39.5 -121.5q0 -67 64 -67q58 0 134 82.5
t152 209.5q24 40 59 41q24 1 26 -18q0 -11 -7 -23z" />
    <glyph glyph-name="ograve" unicode="&#xf2;" horiz-adv-x="714" 
d="M600 1149h2q19 -4 29 13t-2 32q-85 108 -125 217v4q-8 16 -25 19q-28 4 -59 4q-29 0 -40 -10.5t-1 -36.5q15 -41 70 -101.5t103 -100.5zM868 580q-83 -144 -160 -206.5t-182 -66.5l-6 -8q-118 -156 -280 -156q-94 0 -159 57t-65 148q0 61 19.5 130t43 117t43 92.5
t19.5 62.5q0 8 -4 28h74q23 55 79 90t116 35q83 0 139 -40t77.5 -105t16 -147.5t-38.5 -168.5q-8 -16 -10 -24q92 -17 209 176q28 46 57 37q21 -6 18 -31q0 -10 -6 -20zM281 201q94 0 170 129q-27 19 -28 53.5t23.5 57.5t59.5 14q24 105 24.5 187.5t-36 133.5t-107.5 51
q-42 0 -66 -30t-21 -67t32 -56q15 -9 30 -15q7 -1 9.5 -7.5t-2.5 -10.5q-27 -15 -56 -18q-85 -180 -106 -247q-51 -167 62 -175h12z" />
    <glyph glyph-name="oacute" unicode="&#xf3;" horiz-adv-x="714" 
d="M500 1149h-2q-19 -4 -29 13t2 32q85 108 125 217q0 1 1 2t1 2q4 15 23 19q28 4 59 4q29 0 40 -10.5t1 -36.5q-15 -41 -70 -101.5t-103 -100.5zM868 580q-83 -144 -160 -206.5t-182 -66.5l-6 -8q-118 -156 -280 -156q-94 0 -159 57t-65 148q0 61 19.5 130t43 117t43 92.5
t19.5 62.5q0 8 -4 28h74q23 55 79 90t116 35q83 0 139 -40t77.5 -105t16 -147.5t-38.5 -168.5q-8 -16 -10 -24q92 -17 209 176q28 46 57 37q21 -6 18 -31q0 -10 -6 -20zM281 201q94 0 170 129q-27 19 -28 53.5t23.5 57.5t59.5 14q24 105 24.5 187.5t-36 133.5t-107.5 51
q-42 0 -66 -30t-21 -67t32 -56q15 -9 30 -15q7 -1 9.5 -7.5t-2.5 -10.5q-27 -15 -56 -18q-85 -180 -106 -247q-51 -167 62 -175h12z" />
    <glyph glyph-name="ocircumflex" unicode="&#xf4;" horiz-adv-x="714" 
d="M637 1161q3 11 -4 21q-14 12 -17.5 55.5t-2 87t-14 78.5t-50.5 35q-20 0 -64 -62t-85 -124t-54 -62q-11 0 -12 -16q3 -21 24 -23q17 0 47 42.5t67 101t60 81.5q0 -148 11 -187.5t59 -39.5q31 0 35 12zM868 580q-83 -144 -160 -206.5t-182 -66.5l-6 -8
q-118 -156 -280 -156q-94 0 -159 57t-65 148q0 61 19.5 130t43 117t43 92.5t19.5 62.5q0 8 -4 28h74q23 55 79 90t116 35q83 0 139 -40t77.5 -105t16 -147.5t-38.5 -168.5q-8 -16 -10 -24q92 -17 209 176q28 46 57 37q21 -6 18 -31q0 -10 -6 -20zM281 201q94 0 170 129
q-27 19 -28 53.5t23.5 57.5t59.5 14q24 105 24.5 187.5t-36 133.5t-107.5 51q-42 0 -66 -30t-21 -67t32 -56q15 -9 30 -15q7 -1 9.5 -7.5t-2.5 -10.5q-27 -15 -56 -18q-85 -180 -106 -247q-51 -167 62 -175h12z" />
    <glyph glyph-name="otilde" unicode="&#xf5;" horiz-adv-x="714" 
d="M649 1378q20 0 31.5 -15.5t7.5 -41.5q-8 -45 -48.5 -81t-96.5 -36q-25 0 -45 12t-32.5 29t-24 33.5t-27 28.5t-35.5 12q-23 0 -34.5 -17t-8.5 -38q4 -22 -18 -39t-48 -17q-20 0 -32.5 16t-6.5 42q6 45 46.5 80.5t97.5 35.5q30 0 53.5 -18t36 -39t32 -39t42.5 -18
t34.5 15.5t8.5 39.5q-3 22 18.5 38.5t48.5 16.5zM868 580q-83 -144 -160 -206.5t-182 -66.5l-6 -8q-118 -156 -280 -156q-94 0 -159 57t-65 148q0 61 19.5 130t43 117t43 92.5t19.5 62.5q0 8 -4 28h74q23 55 79 90t116 35q83 0 139 -40t77.5 -105t16 -147.5t-38.5 -168.5
q-8 -16 -10 -24q92 -17 209 176q28 46 57 37q21 -6 18 -31q0 -10 -6 -20zM281 201q94 0 170 129q-27 19 -28 53.5t23.5 57.5t59.5 14q24 105 24.5 187.5t-36 133.5t-107.5 51q-42 0 -66 -30t-21 -67t32 -56q15 -9 30 -15q7 -1 9.5 -7.5t-2.5 -10.5q-27 -15 -56 -18
q-85 -180 -106 -247q-51 -167 62 -175h12z" />
    <glyph glyph-name="odieresis" unicode="&#xf6;" horiz-adv-x="714" 
d="M422 1368q31 0 48.5 -21.5t12.5 -52.5q-6 -32 -32 -53.5t-58 -21.5q-31 0 -48 21.5t-11 53.5q4 30 30.5 52t57.5 22zM621 1368q31 0 49 -21.5t12 -52.5q-6 -32 -31.5 -53.5t-56.5 -21.5t-49.5 21.5t-12.5 53.5q6 31 32 52.5t57 21.5zM868 580q-83 -144 -160 -206.5
t-182 -66.5l-6 -8q-118 -156 -280 -156q-94 0 -159 57t-65 148q0 61 19.5 130t43 117t43 92.5t19.5 62.5q0 8 -4 28h74q23 55 79 90t116 35q83 0 139 -40t77.5 -105t16 -147.5t-38.5 -168.5q-8 -16 -10 -24q92 -17 209 176q28 46 57 37q21 -6 18 -31q0 -10 -6 -20zM281 201
q94 0 170 129q-27 19 -28 53.5t23.5 57.5t59.5 14q24 105 24.5 187.5t-36 133.5t-107.5 51q-42 0 -66 -30t-21 -67t32 -56q15 -9 30 -15q7 -1 9.5 -7.5t-2.5 -10.5q-27 -15 -56 -18q-85 -180 -106 -247q-51 -167 62 -175h12z" />
    <glyph glyph-name="divide" unicode="&#xf7;" horiz-adv-x="620" 
d="M561 973q0 64 -52 83q-48 17 -94 -15q-46 -33 -46 -95q0 -48 48 -76.5t96 -4t48 107.5zM592 694q20 0 34.5 14.5t14.5 34.5t-14.5 35t-34.5 15h-393q-20 0 -34.5 -15t-14.5 -35t14.5 -34.5t34.5 -14.5h393zM412 537q0 64 -52 83q-48 17 -94 -15q-47 -33 -47 -95
q0 -48 48.5 -76.5t96.5 -4t48 107.5z" />
    <glyph glyph-name="oslash" unicode="&#xf8;" horiz-adv-x="714" 
d="M799 594q28 46 57 37q21 -6 18 -31q0 -10 -6 -20q-83 -144 -160 -206.5t-182 -66.5l-6 -8q-92 -124 -219 -149q-178 -386 -178 -488q0 -14 -12 -14q-42 0 -70.5 26.5t-38 82.5t15.5 145q24 85 107 268q-51 25 -80 71.5t-29 106.5q0 61 19.5 130t43 117t43 92.5t19.5 62.5
q0 8 -4 28h74q23 55 79 90t116 35q31 0 55 -6q156 369 100 457q1 2 16 7t42 10t53 5q112 0 112 -88q0 -112 -176 -497q35 -68 32 -159.5t-40 -189.5q-8 -16 -10 -24q92 -17 209 176zM387 827q-42 0 -66 -30t-21 -67t32 -56l24 -12q38 82 72 159q-18 6 -41 6zM313 623
q-106 -221 -120 -306l147 312q-12 -6 -27 -6zM506 455q24 91 24 172q-123 -256 -198 -416q63 25 119 119q-27 19 -28 53.5t23.5 57.5t59.5 14z" />
    <glyph glyph-name="ugrave" unicode="&#xf9;" horiz-adv-x="860" 
d="M659 1151h3q19 -4 28.5 13t-2.5 32q-85 108 -125 217v4q-8 16 -24 19q-28 4 -60 4q-29 0 -40 -10.5t-1 -36.5q15 -41 70 -101.5t103 -100.5zM1010 573q-49 -84 -99.5 -153t-110 -129.5t-125 -94.5t-128.5 -34q-139 0 -139 131q0 15 4 43q-32 -37 -60 -62
q-52 -47 -115 -79.5t-120 -32.5q-140 0 -140 131q0 62 32 146t70.5 152.5t70.5 143t32 119.5q0 21 -2 31h41q156 0 156 -88q0 -24 -35 -87t-77.5 -128t-77.5 -136t-35 -110q0 -51 63 -51q45 0 100 47q95 84 196 259.5t101 266.5q0 11 -4 27h43q156 0 156 -88q0 -24 -35 -87
t-77.5 -128t-77.5 -136t-35 -110q0 -35 27 -46t65 1.5t71 40.5q90 81 187 241q23 38 59 40q24 1 26 -18q0 -10 -7 -22z" />
    <glyph glyph-name="uacute" unicode="&#xfa;" horiz-adv-x="860" 
d="M559 1151h-2q-19 -4 -29 13t2 32q85 108 125 217q0 1 1 2t1 2q4 15 23 19q28 4 59 4q29 0 40 -10.5t1 -36.5q-15 -41 -70 -101.5t-103 -100.5zM1010 573q-49 -84 -99.5 -153t-110 -129.5t-125 -94.5t-128.5 -34q-139 0 -139 131q0 15 4 43q-32 -37 -60 -62
q-52 -47 -115 -79.5t-120 -32.5q-140 0 -140 131q0 62 32 146t70.5 152.5t70.5 143t32 119.5q0 21 -2 31h41q156 0 156 -88q0 -24 -35 -87t-77.5 -128t-77.5 -136t-35 -110q0 -51 63 -51q45 0 100 47q95 84 196 259.5t101 266.5q0 11 -4 27h43q156 0 156 -88q0 -24 -35 -87
t-77.5 -128t-77.5 -136t-35 -110q0 -35 27 -46t65 1.5t71 40.5q90 81 187 241q23 38 59 40q24 1 26 -18q0 -10 -7 -22z" />
    <glyph glyph-name="ucircumflex" unicode="&#xfb;" horiz-adv-x="860" 
d="M696 1163q3 11 -4 21q-14 12 -17.5 55.5t-2 87t-14 78.5t-50.5 35q-20 0 -63.5 -62t-84.5 -124t-54 -62q-11 0 -12 -16q3 -21 24 -23q17 0 47 42.5t67 101t60 81.5q0 -148 11 -187.5t59 -39.5q30 0 34 12zM1010 573q-49 -84 -99.5 -153t-110 -129.5t-125 -94.5
t-128.5 -34q-139 0 -139 131q0 15 4 43q-32 -37 -60 -62q-52 -47 -115 -79.5t-120 -32.5q-140 0 -140 131q0 62 32 146t70.5 152.5t70.5 143t32 119.5q0 21 -2 31h41q156 0 156 -88q0 -24 -35 -87t-77.5 -128t-77.5 -136t-35 -110q0 -51 63 -51q45 0 100 47q95 84 196 259.5
t101 266.5q0 11 -4 27h43q156 0 156 -88q0 -24 -35 -87t-77.5 -128t-77.5 -136t-35 -110q0 -35 27 -46t65 1.5t71 40.5q90 81 187 241q23 38 59 40q24 1 26 -18q0 -10 -7 -22z" />
    <glyph glyph-name="udieresis" unicode="&#xfc;" horiz-adv-x="860" 
d="M481 1370q31 0 49 -21.5t13 -52.5q-6 -32 -32 -53.5t-58 -21.5q-31 0 -48.5 21.5t-11.5 53.5q4 30 30.5 52t57.5 22zM680 1370q31 0 49 -21.5t12 -52.5q-6 -32 -31.5 -53.5t-56.5 -21.5t-49 21.5t-12 53.5q6 31 31.5 52.5t56.5 21.5zM1010 573q-49 -84 -99.5 -153
t-110 -129.5t-125 -94.5t-128.5 -34q-139 0 -139 131q0 15 4 43q-32 -37 -60 -62q-52 -47 -115 -79.5t-120 -32.5q-140 0 -140 131q0 62 32 146t70.5 152.5t70.5 143t32 119.5q0 21 -2 31h41q156 0 156 -88q0 -24 -35 -87t-77.5 -128t-77.5 -136t-35 -110q0 -51 63 -51
q45 0 100 47q95 84 196 259.5t101 266.5q0 11 -4 27h43q156 0 156 -88q0 -24 -35 -87t-77.5 -128t-77.5 -136t-35 -110q0 -35 27 -46t65 1.5t71 40.5q90 81 187 241q23 38 59 40q24 1 26 -18q0 -10 -7 -22z" />
    <glyph glyph-name="yacute" unicode="&#xfd;" horiz-adv-x="774" 
d="M487 1280h-2q-19 -4 -28.5 13t2.5 32q85 108 125 217q0 1 1 2t1 2q4 15 22 19q28 4 60 4q29 0 40 -10.5t1 -36.5q-15 -41 -70.5 -101.5t-103.5 -100.5zM784 836q9 -27 9 -43t-69 -175t-134 -302l-70 -154q-58 -132 -101 -217.5t-92 -161.5t-97 -116.5t-106.5 -63.5
t-129.5 -23q-76 0 -121 33q-2 0 -2 2q-43 30 -43 84v2q0 65 55 111l6 4q0 2 2 2q40 32 95 41q24 6 53 6q4 0 4 -2h2q8 -3 8.5 -13t-6.5 -16q-51 -29 -69 -70t-3 -73q16 -41 66 -41q36 0 78 39q56 48 119 174q86 164 165 409v4q-73 -70 -173.5 -101.5t-176.5 -2t-76 120.5
q0 62 32 146t70.5 152.5t70.5 143t32 119.5q0 21 -2 31h41q156 0 156 -90q0 -7 -3 -17t-10 -25t-13 -26.5t-19 -33.5t-19.5 -33.5t-23.5 -38.5t-23 -37q-107 -174 -94 -269q7 -56 53 -56q64 -1 150 99q114 134 200 379q25 69 30 96t-3 52h15q48 0 72.5 -1.5t53.5 -13
t41 -34.5z" />
    <glyph glyph-name="thorn" unicode="&#xfe;" horiz-adv-x="806" 
d="M954 571q-105 -176 -275 -295.5t-351 -119.5q-90 0 -150.5 31t-60.5 71q0 14 10.5 23.5t28.5 9.5q12 0 44 -18.5t56 -18.5q79 0 174 135q86 122 122 255q35 125 -13 146l-17 3q-60 0 -127 -55.5t-125 -143t-111.5 -194t-91.5 -208t-60.5 -185t-22.5 -126.5q0 -6 -4 -10
t-11 -4q-51 0 -81.5 41.5t-30.5 97.5q0 65 50 197.5t120 278t138.5 287t111 252t32.5 146.5h43q142 0 146 -82l-146 -292q107 86 211 86q85 0 133.5 -52.5t48.5 -156.5q0 -69 -42.5 -179t-104.5 -190q179 102 281 272q21 34 55 37q27 3 27 -17q0 -10 -7 -22z" />
    <glyph glyph-name="ydieresis" unicode="&#xff;" horiz-adv-x="774" 
d="M410 1499q31 0 48.5 -21.5t12.5 -52.5q-6 -32 -32 -53.5t-58 -21.5q-31 0 -48 21.5t-11 53.5q4 30 30.5 52t57.5 22zM608 1499q31 0 49.5 -21.5t12.5 -52.5q-6 -32 -31.5 -53.5t-56.5 -21.5t-49.5 21.5t-12.5 53.5q6 31 31.5 52.5t56.5 21.5zM784 836q9 -27 9 -43
t-69 -175t-134 -302l-70 -154q-58 -132 -101 -217.5t-92 -161.5t-97 -116.5t-106.5 -63.5t-129.5 -23q-76 0 -121 33q-2 0 -2 2q-43 30 -43 84v2q0 65 55 111l6 4q0 2 2 2q40 32 95 41q24 6 53 6q4 0 4 -2h2q8 -3 8.5 -13t-6.5 -16q-51 -29 -69 -70t-3 -73q16 -41 66 -41
q36 0 78 39q56 48 119 174q86 164 165 409v4q-73 -70 -173.5 -101.5t-176.5 -2t-76 120.5q0 62 32 146t70.5 152.5t70.5 143t32 119.5q0 21 -2 31h41q156 0 156 -90q0 -7 -3 -17t-10 -25t-13 -26.5t-19 -33.5t-19.5 -33.5t-23.5 -38.5t-23 -37q-107 -174 -94 -269
q7 -56 53 -56q64 -1 150 99q114 134 200 379q25 69 30 96t-3 52h15q48 0 72.5 -1.5t53.5 -13t41 -34.5z" />
    <glyph glyph-name="Amacron" unicode="&#x100;" horiz-adv-x="989" 
d="M1051 1991q20 0 39.5 14.5t25.5 34.5q7 20 -2 33.5t-29 13.5h-280q-21 0 -40.5 -13.5t-25.5 -33.5q-7 -20 2 -34.5t29 -14.5h281zM872 1624q120 0 195 -42.5t100 -118.5t13 -174t-60 -216q-60 -162 -185 -443.5t-200.5 -473.5t-75.5 -277q0 -14 -14 -14q-55 0 -103 45
t-48 127q0 42 14 88q54 190 225 582q-35 7 -91.5 24t-98.5 28t-89 18.5t-86.5 -1.5t-68.5 -35q-28 -28 -43 -57q-158 -384 -167 -405q-133 -303 -223 -381q-39 -33 -75 -33q-20 0 -33.5 13t-13.5 32q0 20 13.5 33.5t33.5 13.5q32 0 71 57t81.5 153.5t91.5 221.5t104.5 263
t116 276.5t131.5 263.5t145 221.5t162 153.5t178 57zM328 858q49 12 89 12.5t93 -10t93 -22.5t88.5 -25t80.5 -18q105 236 158 381t53 235q0 119 -111 119q-62 0 -124 -37t-114.5 -96t-108.5 -150t-101 -181.5t-96 -207.5z" />
    <glyph glyph-name="amacron" unicode="&#x101;" horiz-adv-x="899" 
d="M707 1235q20 0 39.5 14.5t25.5 34.5q7 20 -2 33.5t-29 13.5h-280q-21 0 -40.5 -13.5t-25.5 -33.5q-7 -20 2 -34.5t29 -14.5h281zM1047 573q-48 -83 -100 -152.5t-111.5 -129.5t-124.5 -94.5t-127 -34.5q-71 0 -107 36t-33 105q-56 -62 -134 -101.5t-148 -39.5
q-124 0 -151 112q-26 109 44 265q72 159 195 258q111 88 225 88q57 0 103 -25t59 -72q19 58 8 95q5 0 20 1t23 1q123 0 123 -92q0 -31 -77 -161q-94 -161 -117 -222q-45 -125 55 -125q31 0 64 17.5t61.5 43.5t61 67t56.5 76.5t54 83.5q20 34 56 39q28 3 29 -17q1 -9 -7 -22z
M258 274q42 0 81 21.5t66.5 50.5t58 78.5t48 85.5t43.5 91.5t37 78.5q-35 -13 -59 -5q-5 3 -3 5q29 23 37 53.5t-7 53t-48 22.5q-114 0 -213 -132q-82 -109 -107 -236q-24 -119 26 -155q16 -12 40 -12z" />
    <glyph glyph-name="Abreve" unicode="&#x102;" horiz-adv-x="989" 
d="M946 1903q-105 0 -153 84q-38 65 -21 133q16 61 69 70q7 1 15 1q30 0 51 -22.5t21 -52.5t-24.5 -50.5t-24.5 -40.5q0 -25 21 -46.5t52 -22.5q64 6 92.5 65t-6.5 111q-9 31 13 48.5t41 -6.5q22 -30 22 -99q0 -68 -49 -120t-119 -52zM872 1624q120 0 195 -42.5t100 -118.5
t13 -174t-60 -216q-60 -162 -185 -443.5t-200.5 -473.5t-75.5 -277q0 -14 -14 -14q-55 0 -103 45t-48 127q0 42 14 88q54 190 225 582q-35 7 -91.5 24t-98.5 28t-89 18.5t-86.5 -1.5t-68.5 -35q-28 -28 -43 -57q-158 -384 -167 -405q-133 -303 -223 -381q-39 -33 -75 -33
q-20 0 -33.5 13t-13.5 32q0 20 13.5 33.5t33.5 13.5q32 0 71 57t81.5 153.5t91.5 221.5t104.5 263t116 276.5t131.5 263.5t145 221.5t162 153.5t178 57zM328 858q49 12 89 12.5t93 -10t93 -22.5t88.5 -25t80.5 -18q105 236 158 381t53 235q0 119 -111 119q-62 0 -124 -37
t-114.5 -96t-108.5 -150t-101 -181.5t-96 -207.5z" />
    <glyph glyph-name="abreve" unicode="&#x103;" horiz-adv-x="899" 
d="M602 1147q-104 0 -153 84q-39 66 -20 134q16 61 68 70l15 1q30 0 51 -23t21 -53t-24.5 -50t-24.5 -40q0 -25 21 -47t52 -23q64 6 92.5 65t-6.5 111q-9 31 13 48.5t41 -6.5q22 -28 22 -99q0 -68 -49 -120t-119 -52zM1047 573q-48 -83 -100 -152.5t-111.5 -129.5
t-124.5 -94.5t-127 -34.5q-71 0 -107 36t-33 105q-56 -62 -134 -101.5t-148 -39.5q-124 0 -151 112q-26 109 44 265q72 159 195 258q111 88 225 88q57 0 103 -25t59 -72q19 58 8 95q5 0 20 1t23 1q123 0 123 -92q0 -31 -77 -161q-94 -161 -117 -222q-45 -125 55 -125
q31 0 64 17.5t61.5 43.5t61 67t56.5 76.5t54 83.5q20 34 56 39q28 3 29 -17q1 -9 -7 -22zM258 274q42 0 81 21.5t66.5 50.5t58 78.5t48 85.5t43.5 91.5t37 78.5q-35 -13 -59 -5q-5 3 -3 5q29 23 37 53.5t-7 53t-48 22.5q-114 0 -213 -132q-82 -109 -107 -236
q-24 -119 26 -155q16 -12 40 -12z" />
    <glyph glyph-name="Aogonek" unicode="&#x104;" horiz-adv-x="989" 
d="M872 1624q120 0 195 -42.5t100 -118.5t13 -174t-60 -216q-60 -162 -185 -443.5t-200.5 -473.5t-75.5 -277q0 -14 -14 -14q-30 0 -61.5 14.5t-53.5 42.5q-39 -29 -68 -67t-38 -72q-8 -31 2 -55.5t31 -24.5q37 0 59 31l21 -29q-47 -61 -113 -61q-49 0 -66.5 35.5t-3.5 87.5
q12 44 44.5 89t76.5 76h49q-30 45 -30 105q0 42 14 88q54 190 225 582q-35 7 -91.5 24t-98.5 28t-89 18.5t-86.5 -1.5t-68.5 -35q-28 -28 -43 -57q-158 -384 -167 -405q-133 -303 -223 -381q-39 -33 -75 -33q-20 0 -33.5 13t-13.5 32q0 20 13.5 33.5t33.5 13.5q32 0 71 57
t81.5 153.5t91.5 221.5t104.5 263t116 276.5t131.5 263.5t145 221.5t162 153.5t178 57zM772 795q105 236 158 381t53 235q0 119 -111 119q-62 0 -124 -37t-114.5 -96t-108.5 -150t-101 -181.5t-96 -207.5q49 12 89 12.5t93 -10t93 -22.5t88.5 -25t80.5 -18z" />
    <glyph glyph-name="aogonek" unicode="&#x105;" horiz-adv-x="897" 
d="M969 573q20 34 56 39q28 3 29 -17q1 -9 -7 -22q-94 -161 -203 -274t-219 -133q-42 -28 -73 -69t-42 -77q-8 -31 2 -55t31 -24q37 0 59 30l21 -28q-48 -62 -113 -62q-49 0 -66.5 35.5t-3.5 87.5q28 96 113 160q-115 16 -109 139q-56 -62 -134 -101.5t-148 -39.5
q-124 0 -151 112q-26 109 44 265q72 159 195 258q111 88 225 88q57 0 103 -25t59 -72q19 58 8 95q5 0 20 1t23 1q123 0 123 -92q0 -31 -77 -161q-94 -161 -117 -222q-45 -125 55 -125q31 0 64 17.5t61.5 43.5t61 67t56.5 76.5t54 83.5zM258 274q42 0 81 21.5t66.5 50.5
t58 78.5t48 85.5t43.5 91.5t37 78.5q-35 -13 -59 -5q-5 3 -3 5q29 23 37 53.5t-7 53t-48 22.5q-114 0 -213 -132q-82 -109 -107 -236q-24 -119 26 -155q16 -12 40 -12z" />
    <glyph glyph-name="Cacute" unicode="&#x106;" horiz-adv-x="1259" 
d="M1145 1894h-2q-19 -4 -29 13t2 32q84 107 125 218q0 1 1 2t1 2q4 14 23 18q28 4 59 4q29 0 40 -10.5t1 -36.5q-15 -41 -70 -101.5t-103 -100.5zM997 113q19 19 46 33t49 14q28 0 28 -23q0 -13 -8 -26v-2q-8 -8 -14 -17q-178 -225 -426 -225q-104 0 -202.5 41.5
t-174.5 113t-122 175.5t-46 221v22q0 138 44.5 285t119.5 276t175.5 245t209.5 199.5t224.5 132t217.5 48.5q89 0 156.5 -34t105.5 -90.5t57.5 -129t18 -149t-19.5 -152.5q-26 -107 -84 -189.5t-119 -68.5q-38 9 -23 39q4 7 19.5 22.5t32.5 34t38.5 63.5t36.5 107
q18 73 17.5 145t-19.5 135t-67 102.5t-119 39.5q-83 0 -176.5 -54.5t-178 -143.5t-162.5 -206.5t-134.5 -240t-90.5 -248t-34 -227.5v-12q0 -201 88 -311.5t221 -110.5q75 0 153.5 38t147.5 111q6 9 14 17z" />
    <glyph glyph-name="cacute" unicode="&#x107;" horiz-adv-x="667" 
d="M449 1153h-3q-19 -4 -28.5 13t2.5 32q85 108 125 217q0 1 1 2t1 2q4 15 22 19q28 4 60 4q29 0 40 -10.5t1 -36.5q-15 -41 -70 -101.5t-103 -100.5zM819 578q-45 -75 -85.5 -133t-94.5 -117t-109 -98t-123.5 -63t-142.5 -24q-181 0 -230 131q-42 114 25 275
q63 153 185 255q120 99 245 99q84 0 124 -37.5t40 -97.5q0 -86 -66.5 -165t-152.5 -79q-22 0 -22 27t22 27q48 0 89.5 62t41.5 120q0 61 -57 61q-89 0 -183 -117q-87 -109 -118 -238q-34 -139 31 -190q30 -24 79 -24q47 0 96 17t105 54.5t116.5 106.5t117.5 164q22 36 52 30
q23 -4 22 -26q-1 -10 -7 -20z" />
    <glyph glyph-name="Cdotaccent" unicode="&#x10a;" horiz-adv-x="1259" 
d="M1262 2114q31 0 48.5 -21.5t12.5 -52.5q-6 -32 -32 -54t-58 -22q-31 0 -48 22t-11 54q4 30 30.5 52t57.5 22zM997 113q19 19 46 33t49 14q28 0 28 -23q0 -13 -8 -26v-2q-8 -8 -14 -17q-178 -225 -426 -225q-104 0 -202.5 41.5t-174.5 113t-122 175.5t-46 221v22
q0 138 44.5 285t119.5 276t175.5 245t209.5 199.5t224.5 132t217.5 48.5q89 0 156.5 -34t105.5 -90.5t57.5 -129t18 -149t-19.5 -152.5q-26 -107 -84 -189.5t-119 -68.5q-38 9 -23 39q4 7 19.5 22.5t32.5 34t38.5 63.5t36.5 107q18 73 17.5 145t-19.5 135t-67 102.5
t-119 39.5q-83 0 -176.5 -54.5t-178 -143.5t-162.5 -206.5t-134.5 -240t-90.5 -248t-34 -227.5v-12q0 -201 88 -311.5t221 -110.5q75 0 153.5 38t147.5 111q6 9 14 17z" />
    <glyph glyph-name="cdotaccent" unicode="&#x10b;" horiz-adv-x="667" 
d="M565 1372q31 0 49 -21.5t13 -52.5q-6 -32 -32 -53.5t-58 -21.5q-31 0 -48.5 21.5t-11.5 53.5q4 30 30.5 52t57.5 22zM819 578q-45 -75 -85.5 -133t-94.5 -117t-109 -98t-123.5 -63t-142.5 -24q-181 0 -230 131q-42 114 25 275q63 153 185 255q120 99 245 99
q84 0 124 -37.5t40 -97.5q0 -86 -66.5 -165t-152.5 -79q-22 0 -22 27t22 27q48 0 89.5 62t41.5 120q0 61 -57 61q-89 0 -183 -117q-87 -109 -118 -238q-34 -139 31 -190q30 -24 79 -24q47 0 96 17t105 54.5t116.5 106.5t117.5 164q22 36 52 30q23 -4 22 -26q-1 -10 -7 -20z
" />
    <glyph glyph-name="Ccaron" unicode="&#x10c;" horiz-adv-x="1259" 
d="M1071 2171q-3 -8 6 -21q11 -10 14.5 -40.5t3.5 -66t2.5 -70t17.5 -57t44 -22.5q20 0 64 62t85 124t54 62q11 0 12 17q-3 21 -24 24q-16 0 -46 -43t-67 -101.5t-59 -80.5q0 52 -0.5 83t-3.5 59.5t-7.5 42t-13 24t-19.5 13.5t-28 3q-27 0 -35 -12zM997 113q19 19 46 33
t49 14q28 0 28 -23q0 -13 -8 -26v-2q-8 -8 -14 -17q-178 -225 -426 -225q-104 0 -202.5 41.5t-174.5 113t-122 175.5t-46 221v22q0 138 44.5 285t119.5 276t175.5 245t209.5 199.5t224.5 132t217.5 48.5q89 0 156.5 -34t105.5 -90.5t57.5 -129t18 -149t-19.5 -152.5
q-26 -107 -84 -189.5t-119 -68.5q-38 9 -23 39q4 7 19.5 22.5t32.5 34t38.5 63.5t36.5 107q18 73 17.5 145t-19.5 135t-67 102.5t-119 39.5q-83 0 -176.5 -54.5t-178 -143.5t-162.5 -206.5t-134.5 -240t-90.5 -248t-34 -227.5v-12q0 -201 88 -311.5t221 -110.5
q75 0 153.5 38t147.5 111q6 9 14 17z" />
    <glyph glyph-name="ccaron" unicode="&#x10d;" horiz-adv-x="667" 
d="M375 1430q-3 -8 6 -21q11 -10 14.5 -40.5t3.5 -66t2.5 -70t17.5 -57t44 -22.5q20 0 64 62t85 124t54 62q11 0 12 17q-4 21 -25 24q-16 0 -46 -43t-67 -101.5t-59 -80.5q0 147 -11.5 186t-59.5 39q-27 0 -35 -12zM819 578q-45 -75 -85.5 -133t-94.5 -117t-109 -98
t-123.5 -63t-142.5 -24q-181 0 -230 131q-42 114 25 275q63 153 185 255q120 99 245 99q84 0 124 -37.5t40 -97.5q0 -86 -66.5 -165t-152.5 -79q-22 0 -22 27t22 27q48 0 89.5 62t41.5 120q0 61 -57 61q-89 0 -183 -117q-87 -109 -118 -238q-34 -139 31 -190q30 -24 79 -24
q47 0 96 17t105 54.5t116.5 106.5t117.5 164q22 36 52 30q23 -4 22 -26q-1 -10 -7 -20z" />
    <glyph glyph-name="Dcaron" unicode="&#x10e;" horiz-adv-x="1427" 
d="M940 2171q-3 -8 6 -21q11 -10 14.5 -40.5t3.5 -66t2.5 -70t17.5 -57t44 -22.5q20 0 64 62t85 124t54 62q11 0 12 17q-3 21 -24 24q-16 0 -46 -43t-67 -101.5t-59 -80.5q0 52 -0.5 83t-3.5 59.5t-7.5 42t-13 24t-19.5 13.5t-28 3q-27 0 -35 -12zM1042 1624q65 0 127 -20.5
t116.5 -64t95.5 -105t65 -148.5t24 -190q0 -65 -12 -143t-37.5 -166.5t-62 -179.5t-89.5 -182t-116 -173t-144.5 -153t-172 -123t-202 -81.5t-231.5 -29.5q-108 0 -196.5 26t-141 63t-88.5 81.5t-49.5 78.5t-13.5 56q0 25 12.5 36t28.5 11q23 0 33.5 -13t16.5 -38.5t9 -32.5
q5 -12 13.5 -26t31 -39.5t51 -45t75.5 -34.5t102 -15q314 0 562 266q195 208 299 519q92 273 72 492q-19 202 -129 260q-38 20 -85 20q-115 0 -252 -166.5t-285 -486.5v-3q-4 -4 -72.5 -158.5t-139.5 -338.5t-71 -238q0 -14 -18 -14q-81 22 -114.5 60t-33.5 114q0 41 40 154
t97.5 256.5t115 293.5t98 292.5t41.5 226.5q0 25 -5.5 49.5t-9.5 30.5q3 1 13 3t22 4.5t23 4.5q72 10 123 10q114 0 114 -92q0 -46 -18 -117h2q188 209 366 209z" />
    <glyph glyph-name="Dcroat" unicode="&#x110;" horiz-adv-x="1427" 
d="M1042 1624q65 0 127 -20.5t116.5 -64t95.5 -105t65 -148.5t24 -190q0 -65 -12 -143t-37.5 -166.5t-62 -179.5t-89.5 -182t-116 -173t-144.5 -153t-172 -123t-202 -81.5t-231.5 -29.5q-108 0 -196.5 26t-141 63t-88.5 81.5t-49.5 78.5t-13.5 56q0 25 12.5 36t28.5 11
q23 0 33.5 -13t16.5 -38.5t9 -32.5q5 -12 13.5 -26t31 -39.5t51 -45t75.5 -34.5t102 -15q314 0 562 266q195 208 299 519q92 273 72 492q-19 202 -129 260q-38 20 -85 20q-115 0 -252 -166.5t-285 -486.5v-3q-18 -39 -45 -100h135q24 0 41.5 -16.5t17.5 -40.5
q0 -25 -18 -42.5t-41 -17.5h-186q-187 -429 -187 -518q0 -14 -18 -14q-81 22 -114.5 60t-33.5 114q0 64 117 358h-114q-24 0 -42 18t-18 42t18 40.5t42 16.5h161q69 175 109 284.5t79 248t40 215.5q0 25 -5.5 49.5t-9.5 30.5q3 1 13 3t22 4.5t23 4.5q72 10 123 10
q114 0 114 -92q0 -46 -18 -117h2q188 209 366 209z" />
    <glyph glyph-name="dcroat" unicode="&#x111;" horiz-adv-x="927" 
d="M1004 580q21 36 54 36q25 0 26 -20q0 -10 -7 -23q-89 -152 -130 -207q-141 -188 -313 -203q-16 -1 -32 -1q-68 0 -103.5 42.5t-35.5 106.5v4q-56 -67 -138 -110t-155 -43q-134 0 -162 114q-26 109 48 265.5t198 254.5q114 89 229 89q47 0 89 -18.5t63 -53.5
q12 25 45 95.5t46.5 101t40 89.5t38.5 92t26.5 77t20.5 77t6 60q0 50 -16 74q1 2 18 7.5t46 10t55 4.5q116 0 116 -90q0 -64 -49.5 -178.5t-156 -315.5t-138.5 -266h164q24 0 41.5 -16.5t17.5 -40.5t-17.5 -41.5t-41.5 -17.5h-217q-51 -125 -51 -185q0 -29 2.5 -45t16 -30.5
t40.5 -14.5q121 0 316 320zM266 274q136 0 248 261h-154q-24 0 -41.5 17.5t-17.5 41.5t17.5 40.5t41.5 16.5h201q7 14 10 23q-32 -1 -32 6q29 23 37 53.5t-7.5 53t-48.5 22.5q-114 0 -213 -133q-81 -110 -105 -237q-23 -118 26 -153q16 -12 38 -12z" />
    <glyph glyph-name="Emacron" unicode="&#x112;" horiz-adv-x="1150" 
d="M995 1982q20 0 40 15t26 35q7 20 -2 33.5t-29 13.5h-280q-21 0 -40.5 -13.5t-25.5 -33.5q-8 -20 1.5 -35t29.5 -15h280zM936 1612q89 0 162 -34t117 -90.5t72.5 -129t29.5 -149.5t-14 -152q-26 -107 -84 -189.5t-119 -68.5q-38 9 -23 39q4 7 19.5 22.5t32.5 34t38.5 63.5
t36.5 107q11 45 11.5 93.5t-8.5 95.5t-30 88.5t-50.5 73.5t-73.5 50.5t-97 18.5q-95 0 -187.5 -57t-159.5 -147t-108.5 -205t-41.5 -226q0 -216 174 -299q20 -8 31 -19q18 -16 14.5 -29.5t-23.5 -23.5q-19 -10 -41.5 -12.5t-64.5 0t-60 2.5q-93 0 -156 -76t-63 -174
q0 -108 66.5 -185t191.5 -77q95 0 168.5 36.5t147.5 108.5q48 48 94 48q29 0 29 -23t-36.5 -71.5t-94.5 -90.5q-143 -108 -355 -108q-78 0 -151.5 24.5t-132 69.5t-94 114.5t-35.5 153.5q0 71 30 136.5t75.5 110.5t96.5 74t97 35q-69 46 -110.5 120t-41.5 163q0 79 25 166.5
t69.5 171t110.5 159t144 133t174.5 91t197.5 33.5z" />
    <glyph glyph-name="emacron" unicode="&#x113;" horiz-adv-x="671" 
d="M635 1237q20 0 39.5 14.5t25.5 34.5q7 20 -1.5 33.5t-28.5 13.5h-281q-21 0 -40 -13.5t-25 -33.5q-8 -20 1 -34.5t29 -14.5h281zM821 573q-53 -91 -107 -162.5t-122.5 -135t-151 -98t-172.5 -34.5q-80 0 -131.5 37t-64 91t10.5 118t79 115q11 9 9.5 24t-13.5 21t-17 6
q-4 0 -8 -1t-6.5 -2.5t-7.5 -5t-10 -5.5q-13 -8 -28 -4t-15 18q0 9 6 18q54 90 115.5 160.5t131 118t138 56.5t135.5 -25q80 -44 48 -155q-22 -77 -77 -131q-46 -46 -66 -23q-6 8 -8 24q44 40 65.5 93t11.5 91.5t-50 38.5q-72 0 -130 -63.5t-58 -136.5q0 -72 100 -103
q-7 -28 -14.5 -39.5t-24.5 -11.5q-77 0 -129 -63q-44 -53 -33 -101q12 -51 84 -51q242 0 437 328q25 42 58 42q21 -1 23 -21q1 -13 -8 -28z" />
    <glyph glyph-name="Edotaccent" unicode="&#x116;" horiz-adv-x="1150" 
d="M997 2114q31 0 49 -21.5t13 -52.5q-6 -32 -32 -54t-58 -22q-31 0 -48.5 22t-11.5 54q4 30 30.5 52t57.5 22zM936 1612q89 0 162 -34t117 -90.5t72.5 -129t29.5 -149.5t-14 -152q-26 -107 -84 -189.5t-119 -68.5q-38 9 -23 39q4 7 19.5 22.5t32.5 34t38.5 63.5t36.5 107
q11 45 11.5 93.5t-8.5 95.5t-30 88.5t-50.5 73.5t-73.5 50.5t-97 18.5q-95 0 -187.5 -57t-159.5 -147t-108.5 -205t-41.5 -226q0 -216 174 -299q20 -8 31 -19q18 -16 14.5 -29.5t-23.5 -23.5q-19 -10 -41.5 -12.5t-64.5 0t-60 2.5q-93 0 -156 -76t-63 -174q0 -108 66.5 -185
t191.5 -77q95 0 168.5 36.5t147.5 108.5q48 48 94 48q29 0 29 -23t-36.5 -71.5t-94.5 -90.5q-143 -108 -355 -108q-78 0 -151.5 24.5t-132 69.5t-94 114.5t-35.5 153.5q0 71 30 136.5t75.5 110.5t96.5 74t97 35q-69 46 -110.5 120t-41.5 163q0 79 25 166.5t69.5 171
t110.5 159t144 133t174.5 91t197.5 33.5z" />
    <glyph glyph-name="edotaccent" unicode="&#x117;" horiz-adv-x="671" 
d="M637 1368q31 0 48.5 -21.5t12.5 -52.5q-6 -32 -32 -53.5t-58 -21.5q-31 0 -48 21.5t-11 53.5q4 30 30.5 52t57.5 22zM821 573q-53 -91 -107 -162.5t-122.5 -135t-151 -98t-172.5 -34.5q-80 0 -131.5 37t-64 91t10.5 118t79 115q11 9 9.5 24t-13.5 21t-17 6q-4 0 -8 -1
t-6.5 -2.5t-7.5 -5t-10 -5.5q-13 -8 -28 -4t-15 18q0 9 6 18q54 90 115.5 160.5t131 118t138 56.5t135.5 -25q80 -44 48 -155q-22 -77 -77 -131q-46 -46 -66 -23q-6 8 -8 24q44 40 65.5 93t11.5 91.5t-50 38.5q-72 0 -130 -63.5t-58 -136.5q0 -72 100 -103
q-7 -28 -14.5 -39.5t-24.5 -11.5q-77 0 -129 -63q-44 -53 -33 -101q12 -51 84 -51q242 0 437 328q25 42 58 42q21 -1 23 -21q1 -13 -8 -28z" />
    <glyph glyph-name="Eogonek" unicode="&#x118;" horiz-adv-x="1150" 
d="M936 1612q89 0 162 -34t117 -90.5t72.5 -129t29.5 -149.5t-14 -152q-26 -107 -84 -189.5t-119 -68.5q-38 9 -23 39q4 7 19.5 22.5t32.5 34t38.5 63.5t36.5 107q11 45 11.5 93.5t-8.5 95.5t-30 88.5t-50.5 73.5t-73.5 50.5t-97 18.5q-95 0 -187.5 -57t-159.5 -147
t-108.5 -205t-41.5 -226q0 -216 174 -299q20 -8 31 -19q18 -16 14.5 -29.5t-23.5 -23.5q-19 -10 -41.5 -12.5t-64.5 0t-60 2.5q-93 0 -156 -76t-63 -174q0 -108 66.5 -185t191.5 -77q95 0 168.5 36.5t147.5 108.5q48 48 94 48q29 0 29 -23t-36.5 -71.5t-94.5 -90.5
q-87 -66 -199 -90q-33 -45 -45 -82q-8 -31 2 -55.5t31 -24.5q37 0 59 31l21 -29q-47 -61 -113 -61q-49 0 -66.5 35.5t-3.5 87.5q12 41 41 84q-54 -4 -82 -4q-78 0 -151.5 24.5t-132 69.5t-94 114.5t-35.5 153.5q0 71 30 136.5t75.5 110.5t96.5 74t97 35q-69 46 -110.5 120
t-41.5 163q0 79 25 166.5t69.5 171t110.5 159t144 133t174.5 91t197.5 33.5z" />
    <glyph glyph-name="eogonek" unicode="&#x119;" horiz-adv-x="671" 
d="M748 580q25 42 58 42q21 -1 23 -21q1 -13 -8 -28q-218 -378 -477 -423q-41 -29 -72.5 -69.5t-42.5 -76.5q-8 -31 2 -55.5t31 -24.5q38 0 60 31l20 -29q-47 -61 -113 -61q-49 0 -66 35.5t-3 87.5q23 88 106 155q-80 0 -130.5 37t-63 91t10.5 118t79 115q11 9 9.5 24
t-13.5 21t-17 6q-4 0 -8 -1t-6.5 -2.5t-7.5 -5t-10 -5.5q-13 -8 -28 -4t-15 18q0 9 6 18q54 90 115.5 160.5t131 118t138 56.5t135.5 -25q80 -44 48 -155q-22 -77 -77 -131q-46 -46 -66 -23q-6 8 -8 24q44 40 65.5 93t11.5 91.5t-50 38.5q-72 0 -130 -63.5t-58 -136.5
q0 -72 100 -103q-7 -28 -14.5 -39.5t-24.5 -11.5q-77 0 -129 -63q-44 -53 -33 -101q12 -51 84 -51q242 0 437 328z" />
    <glyph glyph-name="Ecaron" unicode="&#x11a;" horiz-adv-x="1150" 
d="M807 2171q-3 -8 6 -21q11 -10 14.5 -40.5t3.5 -66t2.5 -70t17.5 -57t44 -22.5q20 0 64 62t85 124t54 62q11 0 12 17q-4 21 -25 24q-16 0 -46 -43t-67 -101.5t-59 -80.5q0 147 -11.5 186t-59.5 39q-27 0 -35 -12zM936 1612q89 0 162 -34t117 -90.5t72.5 -129t29.5 -149.5
t-14 -152q-26 -107 -84 -189.5t-119 -68.5q-38 9 -23 39q4 7 19.5 22.5t32.5 34t38.5 63.5t36.5 107q11 45 11.5 93.5t-8.5 95.5t-30 88.5t-50.5 73.5t-73.5 50.5t-97 18.5q-95 0 -187.5 -57t-159.5 -147t-108.5 -205t-41.5 -226q0 -216 174 -299q20 -8 31 -19
q18 -16 14.5 -29.5t-23.5 -23.5q-19 -10 -41.5 -12.5t-64.5 0t-60 2.5q-93 0 -156 -76t-63 -174q0 -108 66.5 -185t191.5 -77q95 0 168.5 36.5t147.5 108.5q48 48 94 48q29 0 29 -23t-36.5 -71.5t-94.5 -90.5q-143 -108 -355 -108q-78 0 -151.5 24.5t-132 69.5t-94 114.5
t-35.5 153.5q0 71 30 136.5t75.5 110.5t96.5 74t97 35q-69 46 -110.5 120t-41.5 163q0 79 25 166.5t69.5 171t110.5 159t144 133t174.5 91t197.5 33.5z" />
    <glyph glyph-name="ecaron" unicode="&#x11b;" horiz-adv-x="671" 
d="M446 1425q-2 -6 7 -20q11 -10 14.5 -40.5t3.5 -66t2.5 -70t17.5 -57t44 -22.5q20 0 63.5 62t84.5 124t54 62q11 0 12 17q-3 21 -24 24q-16 0 -46 -43t-67 -102t-59 -81q0 52 -0.5 83t-3.5 59.5t-7.5 42t-13 24.5t-19.5 14t-28 3q-26 0 -35 -13zM821 573
q-53 -91 -107 -162.5t-122.5 -135t-151 -98t-172.5 -34.5q-80 0 -131.5 37t-64 91t10.5 118t79 115q11 9 9.5 24t-13.5 21t-17 6q-4 0 -8 -1t-6.5 -2.5t-7.5 -5t-10 -5.5q-13 -8 -28 -4t-15 18q0 9 6 18q54 90 115.5 160.5t131 118t138 56.5t135.5 -25q80 -44 48 -155
q-22 -77 -77 -131q-46 -46 -66 -23q-6 8 -8 24q44 40 65.5 93t11.5 91.5t-50 38.5q-72 0 -130 -63.5t-58 -136.5q0 -72 100 -103q-7 -28 -14.5 -39.5t-24.5 -11.5q-77 0 -129 -63q-44 -53 -33 -101q12 -51 84 -51q242 0 437 328q25 42 58 42q21 -1 23 -21q1 -13 -8 -28z" />
    <glyph glyph-name="Gbreve" unicode="&#x11e;" horiz-adv-x="1370" 
d="M1116 1894q-104 0 -153 84q-39 66 -20 134q16 61 68 70q7 1 15 1q30 0 51 -23t21 -53t-24.5 -50t-24.5 -40q0 -25 21 -46.5t52 -22.5q64 6 92.5 65t-6.5 111q-9 31 13 48.5t41 -8.5q22 -29 22 -98q0 -68 -49 -120t-119 -52zM1217 1622q78 -7 140 -42t100.5 -89.5
t58.5 -120.5t20 -139q0 -79 -22 -158t-55 -136t-73 -92.5t-75 -35.5q-15 0 -29 7.5t-14 19.5q0 6 4 14q3 6 28 32.5t53 75t46 119.5q22 78 19 152.5t-23.5 133t-68.5 96t-116 40.5q-98 0 -204 -54.5t-199 -143.5t-178 -206t-145.5 -240.5t-96 -248.5t-35.5 -227v-12
q0 -201 88.5 -311.5t221.5 -110.5q100 0 200 65t180 189q26 55 31 67q2 13 -1 23t-11 15.5t-17.5 9t-24 3.5t-26.5 -0.5t-28.5 -3.5t-26.5 -5l-25 -5l-20 -4q-39 -8 -81 21q-33 23 -19 35q2 2 6 3q27 10 122.5 18.5t182.5 8.5q76 0 108 -43q17 -24 17 -55q0 -54 -44 -143
t-88 -168.5t-44 -110.5q0 -24 16 -51.5t16 -49.5q0 -14 -9.5 -23t-26.5 -9q-59 0 -111 94q-18 30 -18 74q0 25 6 49q-130 -84 -275 -84q-104 0 -202.5 41.5t-174.5 113t-122 175.5t-46 221v22q0 129 44 269.5t119 270.5t181 248.5t224.5 205.5t254.5 138.5t267 51.5h21z" />
    <glyph glyph-name="gbreve" unicode="&#x11f;" horiz-adv-x="794" 
d="M477 1149q-104 0 -153 84q-39 66 -20 134q16 61 68 70l15 1q30 0 51 -23t21 -53t-24.5 -50t-24.5 -40q0 -25 21 -47t52 -23q64 6 92.5 65t-6.5 111q-9 31 13 48.5t41 -6.5q22 -28 22 -99q0 -68 -49 -120t-119 -52zM647 885q25 0 40.5 -0.5t37.5 -3t35 -8.5t26 -16t19 -26
t6 -38q0 -16 -8 -34.5t-34 -72t-52 -113.5q-28 -65 -80 -185q-47 -110 -69.5 -161.5t-61.5 -138.5t-59 -125.5t-54 -102t-56 -90t-54.5 -67.5t-59.5 -57t-62 -35t-71 -25t-78 -6q-115 0 -153 70q-31 57 6 120q42 72 139 90q25 5 53 5q6 0 11.5 -5.5t5.5 -11.5t-8 -14
q-49 -29 -68.5 -73.5t-2 -77.5t63.5 -33q48 0 102.5 64.5t99 155.5t82 184.5t58.5 156t21 65.5q-55 -50 -124 -82t-128 -32q-131 0 -159 114q-27 109 45 266t195 254q112 89 228 89q57 0 101.5 -24.5t58.5 -74.5q18 64 8 99zM262 274q23 -1 47 6.5t43.5 19.5t41.5 35.5
t37.5 42t35.5 51.5t31.5 53t29.5 57t24.5 51.5t22 49.5t17.5 40q-38 -13 -58 -4q-5 2 -2 4q28 23 35.5 54t-6.5 53t-43 22q-100 0 -203 -125q-88 -108 -121 -232q-33 -125 23 -164q18 -13 45 -14z" />
    <glyph glyph-name="Gdotaccent" unicode="&#x120;" horiz-adv-x="1370" 
d="M1194 1964q-31 0 -48 22t-11 54q4 30 30.5 52t57.5 22t48.5 -21.5t12.5 -52.5q-6 -32 -32 -54t-58 -22zM1217 1622q78 -7 140 -42t100.5 -89.5t58.5 -120.5t20 -139q0 -79 -22 -158t-55 -136t-73 -92.5t-75 -35.5q-15 0 -29 7.5t-14 19.5q0 6 4 14q3 6 28 32.5t53 75
t46 119.5q22 78 19 152.5t-23.5 133t-68.5 96t-116 40.5q-98 0 -204 -54.5t-199 -143.5t-178 -206t-145.5 -240.5t-96 -248.5t-35.5 -227v-12q0 -201 88.5 -311.5t221.5 -110.5q100 0 200 65t180 189q26 55 31 67q2 13 -1 23t-11 15.5t-17.5 9t-24 3.5t-26.5 -0.5
t-28.5 -3.5t-26.5 -5l-25 -5l-20 -4q-39 -8 -81 21q-33 23 -19 35q2 2 6 3q27 10 122.5 18.5t182.5 8.5q76 0 108 -43q17 -24 17 -55q0 -54 -44 -143t-88 -168.5t-44 -110.5q0 -24 16 -51.5t16 -49.5q0 -14 -9.5 -23t-26.5 -9q-59 0 -111 94q-18 30 -18 74q0 25 6 49
q-130 -84 -275 -84q-104 0 -202.5 41.5t-174.5 113t-122 175.5t-46 221v22q0 129 44 269.5t119 270.5t181 248.5t224.5 205.5t254.5 138.5t267 51.5h21z" />
    <glyph glyph-name="gdotaccent" unicode="&#x121;" horiz-adv-x="794" 
d="M584 1368q31 0 48.5 -21.5t12.5 -52.5q-6 -32 -32 -53.5t-58 -21.5q-31 0 -48 21.5t-11 53.5q4 30 30.5 52t57.5 22zM647 885q25 0 40.5 -0.5t37.5 -3t35 -8.5t26 -16t19 -26t6 -38q0 -16 -8 -34.5t-34 -72t-52 -113.5q-28 -65 -80 -185q-47 -110 -69.5 -161.5
t-61.5 -138.5t-59 -125.5t-54 -102t-56 -90t-54.5 -67.5t-59.5 -57t-62 -35t-71 -25t-78 -6q-115 0 -153 70q-31 57 6 120q42 72 139 90q25 5 53 5q6 0 11.5 -5.5t5.5 -11.5t-8 -14q-49 -29 -68.5 -73.5t-2 -77.5t63.5 -33q48 0 102.5 64.5t99 155.5t82 184.5t58.5 156
t21 65.5q-55 -50 -124 -82t-128 -32q-131 0 -159 114q-27 109 45 266t195 254q112 89 228 89q57 0 101.5 -24.5t58.5 -74.5q18 64 8 99zM262 274q23 -1 47 6.5t43.5 19.5t41.5 35.5t37.5 42t35.5 51.5t31.5 53t29.5 57t24.5 51.5t22 49.5t17.5 40q-38 -13 -58 -4q-5 2 -2 4
q28 23 35.5 54t-6.5 53t-43 22q-100 0 -203 -125q-88 -108 -121 -232q-33 -125 23 -164q18 -13 45 -14z" />
    <glyph glyph-name="Gcommaaccent" unicode="&#x122;" horiz-adv-x="1370" 
d="M1217 1622q78 -7 140 -42t100.5 -89.5t58.5 -120.5t20 -139q0 -79 -22 -158t-55 -136t-73 -92.5t-75 -35.5q-15 0 -29 7.5t-14 19.5q0 6 4 14q3 6 28 32.5t53 75t46 119.5q22 78 19 152.5t-23.5 133t-68.5 96t-116 40.5q-98 0 -204 -54.5t-199 -143.5t-178 -206
t-145.5 -240.5t-96 -248.5t-35.5 -227v-12q0 -201 88.5 -311.5t221.5 -110.5q100 0 200 65t180 189q26 55 31 67q2 13 -1 23t-11 15.5t-17.5 9t-24 3.5t-26.5 -0.5t-28.5 -3.5t-26.5 -5l-25 -5l-20 -4q-39 -8 -81 21q-33 23 -19 35q2 2 6 3q27 10 122.5 18.5t182.5 8.5
q76 0 108 -43q17 -24 17 -55q0 -54 -44 -143t-88 -168.5t-44 -110.5q0 -24 16 -51.5t16 -49.5q0 -14 -9.5 -23t-26.5 -9q-59 0 -111 94q-18 30 -18 74q0 25 6 49q-130 -84 -275 -84q-104 0 -202.5 41.5t-174.5 113t-122 175.5t-46 221v22q0 129 44 269.5t119 270.5
t181 248.5t224.5 205.5t254.5 138.5t267 51.5h21zM584 -279q59 5 63 -47q3 -54 -48 -118q-40 -49 -91 -70q-7 -2 -10.5 0.5t-4.5 12t5 28.5q2 5 8.5 23.5t11.5 32.5t12.5 36.5t9.5 36.5t3.5 32t-4.5 23q13 10 45 10z" />
    <glyph glyph-name="gcommaaccent" unicode="&#x123;" horiz-adv-x="794" 
d="M727 1452q7 2 10.5 -0.5t4.5 -12t-5 -28.5q-2 -5 -8.5 -23.5t-11.5 -32.5t-12.5 -36.5t-9.5 -36.5t-3.5 -32t4.5 -23q-13 -10 -45 -10q-59 -5 -63 47q-3 54 48 118q40 49 91 70zM647 885q25 0 40.5 -0.5t37.5 -3t35 -8.5t26 -16t19 -26t6 -38q0 -16 -8 -34.5t-34 -72
t-52 -113.5q-28 -65 -80 -185q-47 -110 -69.5 -161.5t-61.5 -138.5t-59 -125.5t-54 -102t-56 -90t-54.5 -67.5t-59.5 -57t-62 -35t-71 -25t-78 -6q-115 0 -153 70q-31 57 6 120q42 72 139 90q25 5 53 5q6 0 11.5 -5.5t5.5 -11.5t-8 -14q-49 -29 -68.5 -73.5t-2 -77.5
t63.5 -33q48 0 102.5 64.5t99 155.5t82 184.5t58.5 156t21 65.5q-55 -50 -124 -82t-128 -32q-131 0 -159 114q-27 109 45 266t195 254q112 89 228 89q57 0 101.5 -24.5t58.5 -74.5q18 64 8 99zM262 274q23 -1 47 6.5t43.5 19.5t41.5 35.5t37.5 42t35.5 51.5t31.5 53t29.5 57
t24.5 51.5t22 49.5t17.5 40q-38 -13 -58 -4q-5 2 -2 4q28 23 35.5 54t-6.5 53t-43 22q-100 0 -203 -125q-88 -108 -121 -232q-33 -125 23 -164q18 -13 45 -14z" />
    <glyph glyph-name="hbar" unicode="&#x127;" horiz-adv-x="890" 
d="M963 573q24 38 59 40q24 1 25 -18q0 -10 -7 -22q-67 -115 -136.5 -202t-156 -148t-167.5 -61q-66 0 -100 41.5t-34 107.5q0 74 62 224h-207q-82 -108 -140.5 -213t-58.5 -146q0 -6 -4 -10q-2 -2 -4 -2q-2 -2 -6 -2q-51 0 -74.5 37t-23.5 96q0 77 64 234.5t140.5 309.5
t140.5 315t64 249q0 44 -16 76q0 1 16.5 6.5t46 10.5t56.5 5q50 0 83 -21t33 -71q0 -29 -20 -85.5t-59 -139t-77.5 -160t-95 -188.5t-92.5 -185h39q198 234 324 234q117 0 117 -99q0 -50 -35 -143q31 -17 31 -49q0 -24 -18 -41.5t-42 -17.5h-16q-64 -147 -64 -187
q0 -67 64 -67q106 0 289 292zM395 651h162q45 95 45 129q0 15 -12 15q-68 0 -195 -144zM213 522l8 13h-2z" />
    <glyph glyph-name="Imacron" unicode="&#x12a;" horiz-adv-x="423" 
d="M719 1989q20 0 39.5 14.5t25.5 34.5q7 20 -1.5 33.5t-28.5 13.5h-281q-21 0 -40 -13.5t-25 -33.5q-8 -20 1 -34.5t29 -14.5h281zM78 -135q-43 0 -82 27t-61 84.5t4 148.5q30 104 128.5 350t183 455.5t135 409t11.5 262.5q1 1 28.5 6t72.5 9.5t82 4.5q114 0 114 -90
q0 -74 -62 -249t-150.5 -380t-177 -409.5t-150.5 -375t-62 -239.5q0 -14 -14 -14z" />
    <glyph glyph-name="imacron" unicode="&#x12b;" horiz-adv-x="430" 
d="M510 1233q20 0 39.5 14.5t25.5 34.5q7 20 -1.5 33.5t-28.5 13.5h-281q-21 0 -40 -13.5t-25 -33.5q-8 -20 1 -34.5t29 -14.5h281zM117 162q-140 0 -140 131q0 62 32 146t70.5 152.5t70.5 143t32 119.5q0 21 -4 29q4 2 43 2q156 0 156 -88q0 -24 -35 -87t-77.5 -128
t-77.5 -136t-35 -110q0 -51 63 -51q34 0 74 27t79.5 73.5t71 91t62.5 96.5q24 40 59 41q24 1 26 -18q0 -11 -7 -23q-66 -113 -135.5 -200.5t-157.5 -149t-170 -61.5z" />
    <glyph glyph-name="Iogonek" unicode="&#x12e;" horiz-adv-x="423" 
d="M580 1622q114 0 114 -90q0 -74 -62 -249t-150.5 -380t-177 -409.5t-150.5 -375t-62 -239.5q0 -14 -14 -14q-58 0 -103 45q-80 -64 -100 -135q-8 -31 2 -55.5t31 -24.5q37 0 59 31l21 -29q-48 -62 -113 -62q-49 0 -66.5 35.5t-3.5 87.5q12 44 44.5 89.5t76.5 76.5h35
q-59 76 -22 201q30 104 128.5 350t183 455.5t135 409t11.5 262.5q1 1 28.5 6t72.5 9.5t82 4.5z" />
    <glyph glyph-name="iogonek" unicode="&#x12f;" horiz-adv-x="430" 
d="M483 1214q-31 0 -48 22t-11 54q4 30 30.5 52t57.5 22t48.5 -21.5t12.5 -52.5q-6 -32 -32 -54t-58 -22zM502 573q24 40 59 41q24 1 26 -18q0 -11 -7 -23q-66 -113 -135.5 -200.5t-157.5 -149t-170 -61.5h-2q-39 -29 -68.5 -68t-40.5 -74q-8 -31 2 -55t31 -24q37 0 59 30
l21 -28q-48 -62 -113 -62q-49 0 -66 35.5t-3 87.5q13 45 44.5 90t75.5 76q-80 24 -80 123q0 62 32 146t70.5 152.5t70.5 143t32 119.5q0 21 -4 29q4 2 43 2q156 0 156 -88q0 -24 -35 -87t-77.5 -128t-77.5 -136t-35 -110q0 -51 63 -51q34 0 74 27t79.5 73.5t71 91t62.5 96.5
z" />
    <glyph glyph-name="Idotaccent" unicode="&#x130;" horiz-adv-x="423" 
d="M721 2120q31 0 48.5 -21.5t12.5 -52.5q-6 -32 -32 -54t-58 -22q-31 0 -48 22t-11 54q4 30 30.5 52t57.5 22zM78 -135q-43 0 -82 27t-61 84.5t4 148.5q30 104 128.5 350t183 455.5t135 409t11.5 262.5q1 1 28.5 6t72.5 9.5t82 4.5q114 0 114 -90q0 -74 -62 -249
t-150.5 -380t-177 -409.5t-150.5 -375t-62 -239.5q0 -14 -14 -14z" />
    <glyph glyph-name="dotlessi" unicode="&#x131;" horiz-adv-x="430" 
d="M117 162q-140 0 -140 131q0 62 32 146t70.5 152.5t70.5 143t32 119.5q0 21 -4 29q4 2 43 2q156 0 156 -88q0 -24 -35 -87t-77.5 -128t-77.5 -136t-35 -110q0 -51 63 -51q34 0 74 27t79.5 73.5t71 91t62.5 96.5q24 40 59 41q24 1 26 -18q0 -11 -7 -23
q-66 -113 -135.5 -200.5t-157.5 -149t-170 -61.5z" />
    <glyph glyph-name="Kcommaaccent" unicode="&#x136;" horiz-adv-x="1021" 
d="M1225 1624q41 0 77.5 -10t36.5 -27q0 -10 -12 -20q-38 -31 -92.5 -111t-107.5 -172.5t-121.5 -195.5t-134.5 -185t-147 -136t-159 -54q5 -1 14.5 -2.5t34.5 -11.5t46 -24t43 -42t32.5 -64t7.5 -92t-26 -123q-47 -139 -63 -223t-3.5 -138.5t58.5 -82.5q13 -14 2 -29.5
t-39 -15.5q-44 0 -87 20t-77 58t-45 92.5t10 124.5q75 235 87 321q21 148 -65 175q-21 6 -49 6q-51 0 -100 -21q-92 -215 -139 -328t-92 -245.5t-45 -188.5q0 -14 -15 -14q-43 0 -82 27t-61 84.5t4 148.5q16 55 47 137.5t67.5 170t80.5 191t85 201.5t80.5 201t68.5 189.5
t48.5 166.5t20 132.5t-16.5 87.5q1 1 28 6.5t66 10.5t66 5q115 0 115 -92q0 -85 -68.5 -271t-193.5 -475q43 0 75.5 5t75.5 23.5t81 51.5t85 91t94 140t103.5 201.5t117.5 272.5q9 26 68.5 39.5t114.5 13.5zM190 -500q-7 -2 -10.5 0.5t-4.5 12t5 28.5q2 5 8.5 23.5
t11.5 32.5t12.5 37t9.5 37t3.5 32t-4.5 23q13 10 45 10q59 5 63 -47q4 -54 -48 -118q-40 -50 -91 -71z" />
    <glyph glyph-name="kcommaaccent" unicode="&#x137;" horiz-adv-x="827" 
d="M975 573q-35 -60 -81 -124t-104.5 -132t-120.5 -111.5t-112 -43.5q-64 0 -105 22t-56 56t-22.5 76t-8 79t-10 68.5t-29.5 42.5q0 26 15.5 38.5t31.5 12.5q22 0 43 6q87 20 138.5 83t51.5 114q0 68 -86 7q-11 -8 -24 -19q-108 -86 -253 -287t-145 -285q0 -14 -16 -14
q-49 0 -72.5 37.5t-23.5 95.5q0 77 64 234.5t140.5 309.5t140.5 315t64 249q0 44 -16 76q0 1 16.5 6.5t46 10.5t56.5 5q116 0 116 -92q0 -52 -61.5 -186t-170.5 -346t-163 -332q248 340 420 340q87 0 107 -66t-37 -150q-71 -104 -209 -150q-37 -12 -76 -19q30 -30 45 -66.5
t17.5 -61.5t16.5 -50t44 -39q42 -19 114 30.5t134.5 121.5t101.5 138q25 43 60 43q23 1 25 -19q1 -11 -7 -24zM154 -184q-7 -2 -11 0.5t-5 12t5 28.5q2 5 8.5 23.5t11.5 32.5t12.5 36.5t9.5 36.5t3.5 32t-4.5 23q13 10 45 10q60 5 63 -47q4 -54 -47 -118q-40 -49 -91 -70z
" />
    <glyph glyph-name="Lacute" unicode="&#x139;" horiz-adv-x="868" 
d="M799 1894h-2q-19 -4 -29 13t2 32q84 107 125 218q0 1 1 2t1 2q4 14 23 18q28 4 59 4q29 0 40 -10.5t1 -36.5q-15 -41 -70 -101.5t-103 -100.5zM600 205q76 10 115 -57q40 -65 16 -150q-28 -100 -128 -146q-38 -17 -85 -24q-93 -12 -157 -2t-119.5 32t-93.5 44.5
t-80.5 36.5t-79.5 8q-16 -2 -34.5 -6.5t-29.5 -6.5q-53 -7 -68 24q-13 29 22 56q20 15 50 23q17 51 158 417.5t235.5 657t94.5 412.5q0 50 -19 78q2 2 23.5 7t60.5 10t74 5q50 0 83.5 -21t33.5 -71q0 -94 -90.5 -355t-251.5 -669.5t-201 -515.5q18 -9 39 -23q67 -44 146 -55
t143 10t101.5 77.5t25.5 135.5q-1 10 -5 22.5t-4 14.5q-3 13 5 21q12 8 20 10z" />
    <glyph glyph-name="lacute" unicode="&#x13a;" horiz-adv-x="464" 
d="M629 1569q29 0 40 -10.5t1 -36.5q-14 -37 -58 -88q2 -6 2 -23q0 -57 -47 -169.5t-114 -238.5t-133.5 -252t-111.5 -238.5t-42 -170.5q0 -57 74 -57q45 0 104 49.5t106 110.5t87 128q25 41 60 41q23 1 24 -18q0 -11 -7 -23q-33 -57 -68 -109.5t-84.5 -111t-98 -100
t-107.5 -67.5t-115 -23q-56 -3 -95.5 32t-45.5 97q-10 127 133 440q23 49 70 149t73.5 158.5t58 135t46 133t14.5 98.5q0 50 -16 74q1 2 18 7.5t46 10t55 4.5q20 0 28 -2q2 4 19 43q0 1 1 2t1 2q4 15 22 19q28 4 60 4z" />
    <glyph glyph-name="Lcommaaccent" unicode="&#x13b;" horiz-adv-x="868" 
d="M600 205q76 10 115 -57q40 -65 16 -150q-28 -100 -128 -146q-38 -17 -85 -24q-93 -12 -157 -2t-119.5 32t-93.5 44.5t-80.5 36.5t-79.5 8q-16 -2 -34.5 -6.5t-29.5 -6.5q-53 -7 -68 24q-13 29 22 56q20 15 50 23q17 51 158 417.5t235.5 657t94.5 412.5q0 50 -19 78
q2 2 23.5 7t60.5 10t74 5q50 0 83.5 -21t33.5 -71q0 -94 -90.5 -355t-251.5 -669.5t-201 -515.5q18 -9 39 -23q67 -44 146 -55t143 10t101.5 77.5t25.5 135.5q-1 10 -5 22.5t-4 14.5q-3 13 5 21q12 8 20 10zM139 -502q-7 -2 -10.5 0.5t-4.5 12t5 28.5q2 5 8.5 23.5
t11.5 32.5t12.5 37t9.5 37t3.5 32t-4.5 23q13 10 45 10q59 5 63 -47q4 -54 -48 -118q-40 -50 -91 -71z" />
    <glyph glyph-name="lcommaaccent" unicode="&#x13c;" horiz-adv-x="464" 
d="M614 573q-33 -57 -68 -109.5t-84.5 -111t-98 -100t-107.5 -67.5t-115 -23q-56 -3 -95.5 32t-45.5 97q-10 127 133 440q23 49 70 149t73.5 158.5t58 135t46 133t14.5 98.5q0 50 -16 74q1 2 18 7.5t46 10t55 4.5q116 0 116 -90q0 -57 -47 -169.5t-114 -238.5t-133.5 -252
t-111.5 -238.5t-42 -170.5q0 -57 74 -57q45 0 104 49.5t106 110.5t87 128q25 41 60 41q23 1 24 -18q0 -11 -7 -23zM-4 -215q-7 -2 -10.5 0.5t-4.5 12t5 28.5q2 5 8.5 23.5t11.5 32.5t12.5 36.5t9.5 36.5t3.5 32t-4.5 23q13 10 45 10q59 5 63 -47q3 -54 -48 -118
q-40 -49 -91 -70z" />
    <glyph glyph-name="Nacute" unicode="&#x143;" horiz-adv-x="1189" 
d="M944 1878h-2q-19 -4 -29 13t2 32q85 108 125 217q0 1 1 2t1 2q4 15 23 19q28 4 59 4q29 0 40 -10.5t1 -36.5q-15 -41 -70 -101.5t-103 -100.5zM1040 1622q89 0 154 -36.5t98 -98t43.5 -140t-5 -166t-52.5 -173.5q-46 -108 -127 -297q-184 -429 -242.5 -593t-25.5 -208
q8 -16 8 -21q0 -24 -49 -24q-76 0 -120 42t-50 107q0 71 37.5 186.5t90.5 236.5t138.5 331t153.5 406q21 59 32.5 117.5t11.5 116t-27 93t-81 35.5q-218 0 -498 -522q-45 -108 -139.5 -327.5t-149 -348t-101 -265.5t-46.5 -194q0 -14 -14 -14q-57 0 -104.5 45t-47.5 127
q0 70 76 276.5t167 423t167 446.5t76 341q0 52 -17 78q1 1 28.5 6.5t73 10.5t83.5 5q114 0 114 -92q0 -47 -26 -143q223 233 370 233z" />
    <glyph glyph-name="nacute" unicode="&#x144;" horiz-adv-x="919" 
d="M606 1151h-2q-19 -4 -28.5 13t2.5 32q83 106 124 217q0 1 1.5 2t1.5 2q4 15 22 19q28 4 59 4q29 0 40 -10.5t1 -36.5q-15 -41 -70 -101.5t-103 -100.5zM1069 573q-105 -179 -224 -295t-237 -116q-139 0 -139 119q0 69 45 178t90 200.5t45 118.5q0 17 -14 17
q-50 0 -139.5 -85t-173 -195.5t-142.5 -211.5q-10 -18 -26.5 -53.5t-27.5 -61.5l-11 -26q-72 0 -105 36t-33 95q0 62 32 146t70.5 152.5t70.5 143t32 119.5q0 21 -2 29q4 0 18 1t23 1q156 0 156 -92q0 -25 -38 -90t-90.5 -150t-74.5 -137q41 60 81.5 113.5t99 122t111 117
t110.5 82.5t104 34q119 0 119 -94q0 -54 -39.5 -145.5t-79 -176t-39.5 -121.5q0 -67 64 -67q58 0 134 82.5t152 209.5q24 40 59 41q24 1 26 -18q0 -11 -7 -23z" />
    <glyph glyph-name="Ncommaaccent" unicode="&#x145;" horiz-adv-x="1189" 
d="M1040 1622q89 0 154 -36.5t98 -98t43.5 -140t-5 -166t-52.5 -173.5q-46 -108 -127 -297q-184 -429 -242.5 -593t-25.5 -208q8 -16 8 -21q0 -24 -49 -24q-76 0 -120 42t-50 107q0 71 37.5 186.5t90.5 236.5t138.5 331t153.5 406q21 59 32.5 117.5t11.5 116t-27 93
t-81 35.5q-218 0 -498 -522q-45 -108 -139.5 -327.5t-149 -348t-101 -265.5t-46.5 -194q0 -14 -14 -14q-57 0 -104.5 45t-47.5 127q0 70 76 276.5t167 423t167 446.5t76 341q0 52 -17 78q1 1 28.5 6.5t73 10.5t83.5 5q114 0 114 -92q0 -47 -26 -143q223 233 370 233z
M252 -549q-7 -2 -10.5 0.5t-4.5 12t5 28.5q2 5 8.5 23.5t11.5 32.5t12.5 36.5t9.5 36.5t3.5 32t-4.5 23q15 11 45 11q59 5 63 -47q4 -54 -48 -118q-40 -50 -91 -71z" />
    <glyph glyph-name="ncommaaccent" unicode="&#x146;" horiz-adv-x="919" 
d="M1069 573q-105 -179 -224 -295t-237 -116q-139 0 -139 119q0 69 45 178t90 200.5t45 118.5q0 17 -14 17q-50 0 -139.5 -85t-173 -195.5t-142.5 -211.5q-10 -18 -26.5 -53.5t-27.5 -61.5l-11 -26q-72 0 -105 36t-33 95q0 62 32 146t70.5 152.5t70.5 143t32 119.5
q0 21 -2 29q4 0 18 1t23 1q156 0 156 -92q0 -25 -38 -90t-90.5 -150t-74.5 -137q41 60 81.5 113.5t99 122t111 117t110.5 82.5t104 34q119 0 119 -94q0 -54 -39.5 -145.5t-79 -176t-39.5 -121.5q0 -67 64 -67q58 0 134 82.5t152 209.5q24 40 59 41q24 1 26 -18q0 -11 -7 -23
zM201 -207q-7 -2 -11 0.5t-5 12t5 28.5q2 5 8.5 23.5t11.5 32.5t12.5 36.5t9.5 36.5t3.5 32t-4.5 23q15 11 45 11q59 5 63 -47q4 -54 -47 -118q-40 -50 -91 -71z" />
    <glyph glyph-name="Ncaron" unicode="&#x147;" horiz-adv-x="1189" 
d="M870 2154q-2 -6 7 -20q14 -12 16.5 -55.5t1 -87t13.5 -78.5t50 -35q20 0 64 62t85 124t54 62q11 0 12 17q-3 21 -24 24q-16 0 -46 -43t-67 -101.5t-59 -80.5q0 52 -0.5 83t-3.5 59.5t-7.5 42t-13 24t-19.5 13.5t-28 3q-26 0 -35 -13zM1040 1622q89 0 154 -36.5t98 -98
t43.5 -140t-5 -166t-52.5 -173.5q-46 -108 -127 -297q-184 -429 -242.5 -593t-25.5 -208q8 -16 8 -21q0 -24 -49 -24q-76 0 -120 42t-50 107q0 71 37.5 186.5t90.5 236.5t138.5 331t153.5 406q21 59 32.5 117.5t11.5 116t-27 93t-81 35.5q-218 0 -498 -522
q-45 -108 -139.5 -327.5t-149 -348t-101 -265.5t-46.5 -194q0 -14 -14 -14q-57 0 -104.5 45t-47.5 127q0 70 76 276.5t167 423t167 446.5t76 341q0 52 -17 78q1 1 28.5 6.5t73 10.5t83.5 5q114 0 114 -92q0 -47 -26 -143q223 233 370 233z" />
    <glyph glyph-name="ncaron" unicode="&#x148;" horiz-adv-x="919" 
d="M532 1427q-2 -6 7 -20q11 -10 14.5 -40.5t3.5 -66t2.5 -70t17.5 -57t44 -22.5q20 0 63.5 62t84.5 124t54 62q11 0 12 17q-3 21 -24 24q-16 0 -46 -43t-67 -102t-59 -81q0 52 -0.5 83t-3.5 59.5t-7.5 42t-13 24.5t-19.5 14t-28 3q-26 0 -35 -13zM1069 573
q-105 -179 -224 -295t-237 -116q-139 0 -139 119q0 69 45 178t90 200.5t45 118.5q0 17 -14 17q-50 0 -139.5 -85t-173 -195.5t-142.5 -211.5q-10 -18 -26.5 -53.5t-27.5 -61.5l-11 -26q-72 0 -105 36t-33 95q0 62 32 146t70.5 152.5t70.5 143t32 119.5q0 21 -2 29q4 0 18 1
t23 1q156 0 156 -92q0 -25 -38 -90t-90.5 -150t-74.5 -137q41 60 81.5 113.5t99 122t111 117t110.5 82.5t104 34q119 0 119 -94q0 -54 -39.5 -145.5t-79 -176t-39.5 -121.5q0 -67 64 -67q58 0 134 82.5t152 209.5q24 40 59 41q24 1 26 -18q0 -11 -7 -23z" />
    <glyph glyph-name="Omacron" unicode="&#x14c;" horiz-adv-x="1343" 
d="M1139 2038q20 0 39.5 14.5t25.5 34.5q7 20 -1.5 33.5t-28.5 13.5h-281q-21 0 -40.5 -13.5t-25.5 -33.5q-7 -20 2 -34.5t29 -14.5h281zM1026 1624q227 0 317 -217q83 -203 29 -529q-51 -312 -201 -582q-150 -272 -335 -376q-97 -55 -195 -55q-305 0 -431 225
q-108 194 -60 502q45 290 206 555q160 263 368 388q150 89 302 89zM651 -55q160 0 319 223q149 210 238 522q91 314 65 540q-25 225 -163 262q-25 7 -53 7q-159 0 -331 -209q-162 -198 -267 -490q-110 -307 -92 -538q19 -243 181 -301q46 -16 103 -16z" />
    <glyph glyph-name="omacron" unicode="&#x14d;" horiz-adv-x="714" 
d="M614 1237q20 0 40 14.5t26 34.5q7 20 -2 33.5t-29 13.5h-280q-21 0 -40.5 -13.5t-25.5 -33.5q-7 -20 2 -34.5t29 -14.5h280zM868 580q-83 -144 -160 -206.5t-182 -66.5l-6 -8q-118 -156 -280 -156q-94 0 -159 57t-65 148q0 61 19.5 130t43 117t43 92.5t19.5 62.5
q0 8 -4 28h74q23 55 79 90t116 35q83 0 139 -40t77.5 -105t16 -147.5t-38.5 -168.5q-8 -16 -10 -24q92 -17 209 176q28 46 57 37q21 -6 18 -31q0 -10 -6 -20zM281 201q94 0 170 129q-27 19 -28 53.5t23.5 57.5t59.5 14q24 105 24.5 187.5t-36 133.5t-107.5 51q-42 0 -66 -30
t-21 -67t32 -56q15 -9 30 -15q7 -1 9.5 -7.5t-2.5 -10.5q-27 -15 -56 -18q-85 -180 -106 -247q-51 -167 62 -175h12z" />
    <glyph glyph-name="Ohungarumlaut" unicode="&#x150;" horiz-adv-x="1343" 
d="M1423 1950h-2q-19 -4 -28.5 13t2.5 32q85 108 125 217q0 1 1 2t1 2q4 14 22 18q28 4 60 4q16 0 29.5 -2.5t19.5 -5.5l6 -2q-8 -22 -17.5 -40t-34 -54.5t-71.5 -84t-113 -99.5zM1624 1950h-2q-20 -4 -30 13t1 32q84 107 127 217v4q7 15 23 18q32 4 59 4q29 0 40 -10.5
t1 -36.5q-15 -41 -69.5 -101t-101.5 -100zM1026 1624q227 0 317 -217q83 -203 29 -529q-51 -312 -201 -582q-150 -272 -335 -376q-97 -55 -195 -55q-305 0 -431 225q-108 194 -60 502q45 290 206 555q160 263 368 388q150 89 302 89zM651 -55q160 0 319 223q149 210 238 522
q91 314 65 540q-25 225 -163 262q-25 7 -53 7q-159 0 -331 -209q-162 -198 -267 -490q-110 -307 -92 -538q19 -243 181 -301q46 -16 103 -16z" />
    </font>
</defs>
</svg>
